ISO-10303-21;
HEADER;
/* Generated by software containing ST-Developer
 * from STEP Tools, Inc. (www.steptools.com) 
 */

FILE_DESCRIPTION(
/* description */ (''),
/* implementation_level */ '2;1');

FILE_NAME(
/* name */ 'Heater_Mount.step',
/* time_stamp */ '2026-03-30T14:36:46-07:00',
/* author */ (''),
/* organization */ (''),
/* preprocessor_version */ 'ST-DEVELOPER v20.1',
/* originating_system */ 'Autodesk Translation Framework v14.24.0.0',
/* authorisation */ '');

FILE_SCHEMA (('AUTOMOTIVE_DESIGN { 1 0 10303 214 3 1 1 }'));
ENDSEC;

DATA;
#10=MECHANICAL_DESIGN_GEOMETRIC_PRESENTATION_REPRESENTATION('',(#13),#476);
#11=SHAPE_REPRESENTATION_RELATIONSHIP('SRR','None',#486,#12);
#12=ADVANCED_BREP_SHAPE_REPRESENTATION('',(#14),#475);
#13=STYLED_ITEM('',(#496),#14);
#14=MANIFOLD_SOLID_BREP('Body1',#272);
#15=FACE_BOUND('',#62,.T.);
#16=FACE_BOUND('',#63,.T.);
#17=FACE_BOUND('',#64,.T.);
#18=FACE_BOUND('',#65,.T.);
#19=FACE_BOUND('',#66,.T.);
#20=FACE_BOUND('',#67,.T.);
#21=FACE_BOUND('',#68,.T.);
#22=FACE_BOUND('',#69,.T.);
#23=FACE_BOUND('',#70,.T.);
#24=FACE_BOUND('',#71,.T.);
#25=FACE_BOUND('',#73,.T.);
#26=FACE_BOUND('',#74,.T.);
#27=FACE_BOUND('',#75,.T.);
#28=FACE_BOUND('',#76,.T.);
#29=FACE_BOUND('',#77,.T.);
#30=FACE_BOUND('',#78,.T.);
#31=FACE_BOUND('',#79,.T.);
#32=FACE_BOUND('',#80,.T.);
#33=FACE_BOUND('',#81,.T.);
#34=FACE_BOUND('',#82,.T.);
#35=PLANE('',#319);
#36=PLANE('',#320);
#37=FACE_OUTER_BOUND('',#50,.T.);
#38=FACE_OUTER_BOUND('',#51,.T.);
#39=FACE_OUTER_BOUND('',#52,.T.);
#40=FACE_OUTER_BOUND('',#53,.T.);
#41=FACE_OUTER_BOUND('',#54,.T.);
#42=FACE_OUTER_BOUND('',#55,.T.);
#43=FACE_OUTER_BOUND('',#56,.T.);
#44=FACE_OUTER_BOUND('',#57,.T.);
#45=FACE_OUTER_BOUND('',#58,.T.);
#46=FACE_OUTER_BOUND('',#59,.T.);
#47=FACE_OUTER_BOUND('',#60,.T.);
#48=FACE_OUTER_BOUND('',#61,.T.);
#49=FACE_OUTER_BOUND('',#72,.T.);
#50=EDGE_LOOP('',(#182,#183,#184,#185));
#51=EDGE_LOOP('',(#186,#187,#188,#189));
#52=EDGE_LOOP('',(#190,#191,#192,#193));
#53=EDGE_LOOP('',(#194,#195,#196,#197));
#54=EDGE_LOOP('',(#198,#199,#200,#201));
#55=EDGE_LOOP('',(#202,#203,#204,#205));
#56=EDGE_LOOP('',(#206,#207,#208,#209));
#57=EDGE_LOOP('',(#210,#211,#212,#213));
#58=EDGE_LOOP('',(#214,#215,#216,#217));
#59=EDGE_LOOP('',(#218,#219,#220,#221));
#60=EDGE_LOOP('',(#222,#223,#224,#225));
#61=EDGE_LOOP('',(#226));
#62=EDGE_LOOP('',(#227));
#63=EDGE_LOOP('',(#228));
#64=EDGE_LOOP('',(#229));
#65=EDGE_LOOP('',(#230));
#66=EDGE_LOOP('',(#231));
#67=EDGE_LOOP('',(#232));
#68=EDGE_LOOP('',(#233));
#69=EDGE_LOOP('',(#234));
#70=EDGE_LOOP('',(#235));
#71=EDGE_LOOP('',(#236));
#72=EDGE_LOOP('',(#237));
#73=EDGE_LOOP('',(#238));
#74=EDGE_LOOP('',(#239));
#75=EDGE_LOOP('',(#240));
#76=EDGE_LOOP('',(#241));
#77=EDGE_LOOP('',(#242));
#78=EDGE_LOOP('',(#243));
#79=EDGE_LOOP('',(#244));
#80=EDGE_LOOP('',(#245));
#81=EDGE_LOOP('',(#246));
#82=EDGE_LOOP('',(#247));
#83=LINE('',#409,#94);
#84=LINE('',#415,#95);
#85=LINE('',#421,#96);
#86=LINE('',#427,#97);
#87=LINE('',#433,#98);
#88=LINE('',#439,#99);
#89=LINE('',#445,#100);
#90=LINE('',#451,#101);
#91=LINE('',#457,#102);
#92=LINE('',#463,#103);
#93=LINE('',#469,#104);
#94=VECTOR('',#327,0.133);
#95=VECTOR('',#334,0.133);
#96=VECTOR('',#341,0.133);
#97=VECTOR('',#348,0.133);
#98=VECTOR('',#355,0.133);
#99=VECTOR('',#362,0.133);
#100=VECTOR('',#369,0.1005);
#101=VECTOR('',#376,0.1005);
#102=VECTOR('',#383,0.1005);
#103=VECTOR('',#390,0.1005);
#104=VECTOR('',#397,1.3);
#105=CIRCLE('',#287,0.133);
#106=CIRCLE('',#288,0.133);
#107=CIRCLE('',#290,0.133);
#108=CIRCLE('',#291,0.133);
#109=CIRCLE('',#293,0.133);
#110=CIRCLE('',#294,0.133);
#111=CIRCLE('',#296,0.133);
#112=CIRCLE('',#297,0.133);
#113=CIRCLE('',#299,0.133);
#114=CIRCLE('',#300,0.133);
#115=CIRCLE('',#302,0.133);
#116=CIRCLE('',#303,0.133);
#117=CIRCLE('',#305,0.1005);
#118=CIRCLE('',#306,0.1005);
#119=CIRCLE('',#308,0.1005);
#120=CIRCLE('',#309,0.1005);
#121=CIRCLE('',#311,0.1005);
#122=CIRCLE('',#312,0.1005);
#123=CIRCLE('',#314,0.1005);
#124=CIRCLE('',#315,0.1005);
#125=CIRCLE('',#317,1.3);
#126=CIRCLE('',#318,1.3);
#127=VERTEX_POINT('',#406);
#128=VERTEX_POINT('',#408);
#129=VERTEX_POINT('',#412);
#130=VERTEX_POINT('',#414);
#131=VERTEX_POINT('',#418);
#132=VERTEX_POINT('',#420);
#133=VERTEX_POINT('',#424);
#134=VERTEX_POINT('',#426);
#135=VERTEX_POINT('',#430);
#136=VERTEX_POINT('',#432);
#137=VERTEX_POINT('',#436);
#138=VERTEX_POINT('',#438);
#139=VERTEX_POINT('',#442);
#140=VERTEX_POINT('',#444);
#141=VERTEX_POINT('',#448);
#142=VERTEX_POINT('',#450);
#143=VERTEX_POINT('',#454);
#144=VERTEX_POINT('',#456);
#145=VERTEX_POINT('',#460);
#146=VERTEX_POINT('',#462);
#147=VERTEX_POINT('',#466);
#148=VERTEX_POINT('',#468);
#149=EDGE_CURVE('',#127,#127,#105,.T.);
#150=EDGE_CURVE('',#127,#128,#83,.T.);
#151=EDGE_CURVE('',#128,#128,#106,.T.);
#152=EDGE_CURVE('',#129,#129,#107,.T.);
#153=EDGE_CURVE('',#129,#130,#84,.T.);
#154=EDGE_CURVE('',#130,#130,#108,.T.);
#155=EDGE_CURVE('',#131,#131,#109,.T.);
#156=EDGE_CURVE('',#131,#132,#85,.T.);
#157=EDGE_CURVE('',#132,#132,#110,.T.);
#158=EDGE_CURVE('',#133,#133,#111,.T.);
#159=EDGE_CURVE('',#133,#134,#86,.T.);
#160=EDGE_CURVE('',#134,#134,#112,.T.);
#161=EDGE_CURVE('',#135,#135,#113,.T.);
#162=EDGE_CURVE('',#135,#136,#87,.T.);
#163=EDGE_CURVE('',#136,#136,#114,.T.);
#164=EDGE_CURVE('',#137,#137,#115,.T.);
#165=EDGE_CURVE('',#137,#138,#88,.T.);
#166=EDGE_CURVE('',#138,#138,#116,.T.);
#167=EDGE_CURVE('',#139,#139,#117,.T.);
#168=EDGE_CURVE('',#139,#140,#89,.T.);
#169=EDGE_CURVE('',#140,#140,#118,.T.);
#170=EDGE_CURVE('',#141,#141,#119,.T.);
#171=EDGE_CURVE('',#141,#142,#90,.T.);
#172=EDGE_CURVE('',#142,#142,#120,.T.);
#173=EDGE_CURVE('',#143,#143,#121,.T.);
#174=EDGE_CURVE('',#143,#144,#91,.T.);
#175=EDGE_CURVE('',#144,#144,#122,.T.);
#176=EDGE_CURVE('',#145,#145,#123,.T.);
#177=EDGE_CURVE('',#145,#146,#92,.T.);
#178=EDGE_CURVE('',#146,#146,#124,.T.);
#179=EDGE_CURVE('',#147,#147,#125,.T.);
#180=EDGE_CURVE('',#147,#148,#93,.T.);
#181=EDGE_CURVE('',#148,#148,#126,.T.);
#182=ORIENTED_EDGE('',*,*,#149,.F.);
#183=ORIENTED_EDGE('',*,*,#150,.T.);
#184=ORIENTED_EDGE('',*,*,#151,.F.);
#185=ORIENTED_EDGE('',*,*,#150,.F.);
#186=ORIENTED_EDGE('',*,*,#152,.F.);
#187=ORIENTED_EDGE('',*,*,#153,.T.);
#188=ORIENTED_EDGE('',*,*,#154,.F.);
#189=ORIENTED_EDGE('',*,*,#153,.F.);
#190=ORIENTED_EDGE('',*,*,#155,.F.);
#191=ORIENTED_EDGE('',*,*,#156,.T.);
#192=ORIENTED_EDGE('',*,*,#157,.F.);
#193=ORIENTED_EDGE('',*,*,#156,.F.);
#194=ORIENTED_EDGE('',*,*,#158,.F.);
#195=ORIENTED_EDGE('',*,*,#159,.T.);
#196=ORIENTED_EDGE('',*,*,#160,.F.);
#197=ORIENTED_EDGE('',*,*,#159,.F.);
#198=ORIENTED_EDGE('',*,*,#161,.F.);
#199=ORIENTED_EDGE('',*,*,#162,.T.);
#200=ORIENTED_EDGE('',*,*,#163,.F.);
#201=ORIENTED_EDGE('',*,*,#162,.F.);
#202=ORIENTED_EDGE('',*,*,#164,.F.);
#203=ORIENTED_EDGE('',*,*,#165,.T.);
#204=ORIENTED_EDGE('',*,*,#166,.F.);
#205=ORIENTED_EDGE('',*,*,#165,.F.);
#206=ORIENTED_EDGE('',*,*,#167,.F.);
#207=ORIENTED_EDGE('',*,*,#168,.T.);
#208=ORIENTED_EDGE('',*,*,#169,.F.);
#209=ORIENTED_EDGE('',*,*,#168,.F.);
#210=ORIENTED_EDGE('',*,*,#170,.F.);
#211=ORIENTED_EDGE('',*,*,#171,.T.);
#212=ORIENTED_EDGE('',*,*,#172,.F.);
#213=ORIENTED_EDGE('',*,*,#171,.F.);
#214=ORIENTED_EDGE('',*,*,#173,.F.);
#215=ORIENTED_EDGE('',*,*,#174,.T.);
#216=ORIENTED_EDGE('',*,*,#175,.F.);
#217=ORIENTED_EDGE('',*,*,#174,.F.);
#218=ORIENTED_EDGE('',*,*,#176,.F.);
#219=ORIENTED_EDGE('',*,*,#177,.T.);
#220=ORIENTED_EDGE('',*,*,#178,.F.);
#221=ORIENTED_EDGE('',*,*,#177,.F.);
#222=ORIENTED_EDGE('',*,*,#179,.F.);
#223=ORIENTED_EDGE('',*,*,#180,.T.);
#224=ORIENTED_EDGE('',*,*,#181,.T.);
#225=ORIENTED_EDGE('',*,*,#180,.F.);
#226=ORIENTED_EDGE('',*,*,#179,.T.);
#227=ORIENTED_EDGE('',*,*,#149,.T.);
#228=ORIENTED_EDGE('',*,*,#152,.T.);
#229=ORIENTED_EDGE('',*,*,#155,.T.);
#230=ORIENTED_EDGE('',*,*,#158,.T.);
#231=ORIENTED_EDGE('',*,*,#161,.T.);
#232=ORIENTED_EDGE('',*,*,#164,.T.);
#233=ORIENTED_EDGE('',*,*,#167,.T.);
#234=ORIENTED_EDGE('',*,*,#170,.T.);
#235=ORIENTED_EDGE('',*,*,#173,.T.);
#236=ORIENTED_EDGE('',*,*,#176,.T.);
#237=ORIENTED_EDGE('',*,*,#181,.F.);
#238=ORIENTED_EDGE('',*,*,#151,.T.);
#239=ORIENTED_EDGE('',*,*,#154,.T.);
#240=ORIENTED_EDGE('',*,*,#157,.T.);
#241=ORIENTED_EDGE('',*,*,#160,.T.);
#242=ORIENTED_EDGE('',*,*,#163,.T.);
#243=ORIENTED_EDGE('',*,*,#166,.T.);
#244=ORIENTED_EDGE('',*,*,#169,.T.);
#245=ORIENTED_EDGE('',*,*,#172,.T.);
#246=ORIENTED_EDGE('',*,*,#175,.T.);
#247=ORIENTED_EDGE('',*,*,#178,.T.);
#248=CYLINDRICAL_SURFACE('',#286,0.133);
#249=CYLINDRICAL_SURFACE('',#289,0.133);
#250=CYLINDRICAL_SURFACE('',#292,0.133);
#251=CYLINDRICAL_SURFACE('',#295,0.133);
#252=CYLINDRICAL_SURFACE('',#298,0.133);
#253=CYLINDRICAL_SURFACE('',#301,0.133);
#254=CYLINDRICAL_SURFACE('',#304,0.1005);
#255=CYLINDRICAL_SURFACE('',#307,0.1005);
#256=CYLINDRICAL_SURFACE('',#310,0.1005);
#257=CYLINDRICAL_SURFACE('',#313,0.1005);
#258=CYLINDRICAL_SURFACE('',#316,1.3);
#259=ADVANCED_FACE('',(#37),#248,.F.);
#260=ADVANCED_FACE('',(#38),#249,.F.);
#261=ADVANCED_FACE('',(#39),#250,.F.);
#262=ADVANCED_FACE('',(#40),#251,.F.);
#263=ADVANCED_FACE('',(#41),#252,.F.);
#264=ADVANCED_FACE('',(#42),#253,.F.);
#265=ADVANCED_FACE('',(#43),#254,.F.);
#266=ADVANCED_FACE('',(#44),#255,.F.);
#267=ADVANCED_FACE('',(#45),#256,.F.);
#268=ADVANCED_FACE('',(#46),#257,.F.);
#269=ADVANCED_FACE('',(#47),#258,.T.);
#270=ADVANCED_FACE('',(#48,#15,#16,#17,#18,#19,#20,#21,#22,#23,#24),#35,
 .T.);
#271=ADVANCED_FACE('',(#49,#25,#26,#27,#28,#29,#30,#31,#32,#33,#34),#36,
 .F.);
#272=CLOSED_SHELL('',(#259,#260,#261,#262,#263,#264,#265,#266,#267,#268,
#269,#270,#271));
#273=DERIVED_UNIT_ELEMENT(#275,1.);
#274=DERIVED_UNIT_ELEMENT(#480,-3.);
#275=(
MASS_UNIT()
NAMED_UNIT(*)
SI_UNIT(.KILO.,.GRAM.)
);
#276=DERIVED_UNIT((#273,#274));
#277=MEASURE_REPRESENTATION_ITEM('density measure',
POSITIVE_RATIO_MEASURE(7850.),#276);
#278=PROPERTY_DEFINITION_REPRESENTATION(#283,#280);
#279=PROPERTY_DEFINITION_REPRESENTATION(#284,#281);
#280=REPRESENTATION('material name',(#282),#475);
#281=REPRESENTATION('density',(#277),#475);
#282=DESCRIPTIVE_REPRESENTATION_ITEM('Steel','Steel');
#283=PROPERTY_DEFINITION('material property','material name',#488);
#284=PROPERTY_DEFINITION('material property','density of part',#488);
#285=AXIS2_PLACEMENT_3D('',#404,#321,#322);
#286=AXIS2_PLACEMENT_3D('',#405,#323,#324);
#287=AXIS2_PLACEMENT_3D('',#407,#325,#326);
#288=AXIS2_PLACEMENT_3D('',#410,#328,#329);
#289=AXIS2_PLACEMENT_3D('',#411,#330,#331);
#290=AXIS2_PLACEMENT_3D('',#413,#332,#333);
#291=AXIS2_PLACEMENT_3D('',#416,#335,#336);
#292=AXIS2_PLACEMENT_3D('',#417,#337,#338);
#293=AXIS2_PLACEMENT_3D('',#419,#339,#340);
#294=AXIS2_PLACEMENT_3D('',#422,#342,#343);
#295=AXIS2_PLACEMENT_3D('',#423,#344,#345);
#296=AXIS2_PLACEMENT_3D('',#425,#346,#347);
#297=AXIS2_PLACEMENT_3D('',#428,#349,#350);
#298=AXIS2_PLACEMENT_3D('',#429,#351,#352);
#299=AXIS2_PLACEMENT_3D('',#431,#353,#354);
#300=AXIS2_PLACEMENT_3D('',#434,#356,#357);
#301=AXIS2_PLACEMENT_3D('',#435,#358,#359);
#302=AXIS2_PLACEMENT_3D('',#437,#360,#361);
#303=AXIS2_PLACEMENT_3D('',#440,#363,#364);
#304=AXIS2_PLACEMENT_3D('',#441,#365,#366);
#305=AXIS2_PLACEMENT_3D('',#443,#367,#368);
#306=AXIS2_PLACEMENT_3D('',#446,#370,#371);
#307=AXIS2_PLACEMENT_3D('',#447,#372,#373);
#308=AXIS2_PLACEMENT_3D('',#449,#374,#375);
#309=AXIS2_PLACEMENT_3D('',#452,#377,#378);
#310=AXIS2_PLACEMENT_3D('',#453,#379,#380);
#311=AXIS2_PLACEMENT_3D('',#455,#381,#382);
#312=AXIS2_PLACEMENT_3D('',#458,#384,#385);
#313=AXIS2_PLACEMENT_3D('',#459,#386,#387);
#314=AXIS2_PLACEMENT_3D('',#461,#388,#389);
#315=AXIS2_PLACEMENT_3D('',#464,#391,#392);
#316=AXIS2_PLACEMENT_3D('',#465,#393,#394);
#317=AXIS2_PLACEMENT_3D('',#467,#395,#396);
#318=AXIS2_PLACEMENT_3D('',#470,#398,#399);
#319=AXIS2_PLACEMENT_3D('',#471,#400,#401);
#320=AXIS2_PLACEMENT_3D('',#472,#402,#403);
#321=DIRECTION('axis',(0.,0.,1.));
#322=DIRECTION('refdir',(1.,0.,0.));
#323=DIRECTION('center_axis',(0.,0.,-1.));
#324=DIRECTION('ref_axis',(1.,0.,0.));
#325=DIRECTION('center_axis',(0.,0.,-1.));
#326=DIRECTION('ref_axis',(1.,0.,0.));
#327=DIRECTION('',(0.,0.,-1.));
#328=DIRECTION('center_axis',(0.,0.,1.));
#329=DIRECTION('ref_axis',(1.,0.,0.));
#330=DIRECTION('center_axis',(0.,0.,-1.));
#331=DIRECTION('ref_axis',(1.,0.,0.));
#332=DIRECTION('center_axis',(0.,0.,-1.));
#333=DIRECTION('ref_axis',(1.,0.,0.));
#334=DIRECTION('',(0.,0.,-1.));
#335=DIRECTION('center_axis',(0.,0.,1.));
#336=DIRECTION('ref_axis',(1.,0.,0.));
#337=DIRECTION('center_axis',(0.,0.,-1.));
#338=DIRECTION('ref_axis',(1.,0.,0.));
#339=DIRECTION('center_axis',(0.,0.,-1.));
#340=DIRECTION('ref_axis',(1.,0.,0.));
#341=DIRECTION('',(0.,0.,-1.));
#342=DIRECTION('center_axis',(0.,0.,1.));
#343=DIRECTION('ref_axis',(1.,0.,0.));
#344=DIRECTION('center_axis',(0.,0.,-1.));
#345=DIRECTION('ref_axis',(1.,0.,0.));
#346=DIRECTION('center_axis',(0.,0.,-1.));
#347=DIRECTION('ref_axis',(1.,0.,0.));
#348=DIRECTION('',(0.,0.,-1.));
#349=DIRECTION('center_axis',(0.,0.,1.));
#350=DIRECTION('ref_axis',(1.,0.,0.));
#351=DIRECTION('center_axis',(0.,0.,-1.));
#352=DIRECTION('ref_axis',(1.,0.,0.));
#353=DIRECTION('center_axis',(0.,0.,-1.));
#354=DIRECTION('ref_axis',(1.,0.,0.));
#355=DIRECTION('',(0.,0.,-1.));
#356=DIRECTION('center_axis',(0.,0.,1.));
#357=DIRECTION('ref_axis',(1.,0.,0.));
#358=DIRECTION('center_axis',(0.,0.,-1.));
#359=DIRECTION('ref_axis',(1.,0.,0.));
#360=DIRECTION('center_axis',(0.,0.,-1.));
#361=DIRECTION('ref_axis',(1.,0.,0.));
#362=DIRECTION('',(0.,0.,-1.));
#363=DIRECTION('center_axis',(0.,0.,1.));
#364=DIRECTION('ref_axis',(1.,0.,0.));
#365=DIRECTION('center_axis',(0.,0.,-1.));
#366=DIRECTION('ref_axis',(1.,0.,0.));
#367=DIRECTION('center_axis',(0.,0.,-1.));
#368=DIRECTION('ref_axis',(1.,0.,0.));
#369=DIRECTION('',(0.,0.,-1.));
#370=DIRECTION('center_axis',(0.,0.,1.));
#371=DIRECTION('ref_axis',(1.,0.,0.));
#372=DIRECTION('center_axis',(0.,0.,-1.));
#373=DIRECTION('ref_axis',(1.,0.,0.));
#374=DIRECTION('center_axis',(0.,0.,-1.));
#375=DIRECTION('ref_axis',(1.,0.,0.));
#376=DIRECTION('',(0.,0.,-1.));
#377=DIRECTION('center_axis',(0.,0.,1.));
#378=DIRECTION('ref_axis',(1.,0.,0.));
#379=DIRECTION('center_axis',(0.,0.,-1.));
#380=DIRECTION('ref_axis',(1.,0.,0.));
#381=DIRECTION('center_axis',(0.,0.,-1.));
#382=DIRECTION('ref_axis',(1.,0.,0.));
#383=DIRECTION('',(0.,0.,-1.));
#384=DIRECTION('center_axis',(0.,0.,1.));
#385=DIRECTION('ref_axis',(1.,0.,0.));
#386=DIRECTION('center_axis',(0.,0.,-1.));
#387=DIRECTION('ref_axis',(1.,0.,0.));
#388=DIRECTION('center_axis',(0.,0.,-1.));
#389=DIRECTION('ref_axis',(1.,0.,0.));
#390=DIRECTION('',(0.,0.,-1.));
#391=DIRECTION('center_axis',(0.,0.,1.));
#392=DIRECTION('ref_axis',(1.,0.,0.));
#393=DIRECTION('center_axis',(0.,0.,1.));
#394=DIRECTION('ref_axis',(1.,0.,0.));
#395=DIRECTION('center_axis',(0.,0.,1.));
#396=DIRECTION('ref_axis',(1.,0.,0.));
#397=DIRECTION('',(0.,0.,-1.));
#398=DIRECTION('center_axis',(0.,0.,1.));
#399=DIRECTION('ref_axis',(1.,0.,0.));
#400=DIRECTION('center_axis',(0.,0.,1.));
#401=DIRECTION('ref_axis',(1.,0.,0.));
#402=DIRECTION('center_axis',(0.,0.,1.));
#403=DIRECTION('ref_axis',(1.,0.,0.));
#404=CARTESIAN_POINT('',(0.,0.,0.));
#405=CARTESIAN_POINT('Origin',(0.5,-0.866025403784439,0.0283464566929134));
#406=CARTESIAN_POINT('',(0.367,-0.866025403784439,0.062992125984252));
#407=CARTESIAN_POINT('Origin',(0.5,-0.866025403784439,0.062992125984252));
#408=CARTESIAN_POINT('',(0.367,-0.866025403784439,0.));
#409=CARTESIAN_POINT('',(0.367,-0.866025403784439,0.0283464566929134));
#410=CARTESIAN_POINT('Origin',(0.5,-0.866025403784439,0.));
#411=CARTESIAN_POINT('Origin',(0.5,0.866025403784439,0.0283464566929134));
#412=CARTESIAN_POINT('',(0.367,0.866025403784439,0.062992125984252));
#413=CARTESIAN_POINT('Origin',(0.5,0.866025403784439,0.062992125984252));
#414=CARTESIAN_POINT('',(0.367,0.866025403784439,0.));
#415=CARTESIAN_POINT('',(0.367,0.866025403784439,0.0283464566929134));
#416=CARTESIAN_POINT('Origin',(0.5,0.866025403784439,0.));
#417=CARTESIAN_POINT('Origin',(-1.,1.09273919746571E-16,0.0283464566929134));
#418=CARTESIAN_POINT('',(-1.133,1.2556172217523E-16,0.062992125984252));
#419=CARTESIAN_POINT('Origin',(-1.,1.09273919746571E-16,0.062992125984252));
#420=CARTESIAN_POINT('',(-1.133,9.29861173179107E-17,0.));
#421=CARTESIAN_POINT('',(-1.133,1.2556172217523E-16,0.0283464566929134));
#422=CARTESIAN_POINT('Origin',(-1.,1.09273919746571E-16,0.));
#423=CARTESIAN_POINT('Origin',(-0.5,0.866025403784439,0.0283464566929134));
#424=CARTESIAN_POINT('',(-0.633,0.866025403784439,0.062992125984252));
#425=CARTESIAN_POINT('Origin',(-0.5,0.866025403784439,0.062992125984252));
#426=CARTESIAN_POINT('',(-0.633,0.866025403784439,0.));
#427=CARTESIAN_POINT('',(-0.633,0.866025403784439,0.0283464566929134));
#428=CARTESIAN_POINT('Origin',(-0.5,0.866025403784439,0.));
#429=CARTESIAN_POINT('Origin',(1.,4.37095678986282E-17,0.0283464566929134));
#430=CARTESIAN_POINT('',(0.867,5.9997370327288E-17,0.062992125984252));
#431=CARTESIAN_POINT('Origin',(1.,4.37095678986282E-17,0.062992125984252));
#432=CARTESIAN_POINT('',(0.867,2.74217654699684E-17,0.));
#433=CARTESIAN_POINT('',(0.867,5.9997370327288E-17,0.0283464566929134));
#434=CARTESIAN_POINT('Origin',(1.,4.37095678986282E-17,0.));
#435=CARTESIAN_POINT('Origin',(-0.5,-0.866025403784439,0.0283464566929134));
#436=CARTESIAN_POINT('',(-0.633,-0.866025403784439,0.062992125984252));
#437=CARTESIAN_POINT('Origin',(-0.5,-0.866025403784439,0.062992125984252));
#438=CARTESIAN_POINT('',(-0.633,-0.866025403784439,0.));
#439=CARTESIAN_POINT('',(-0.633,-0.866025403784439,0.0283464566929134));
#440=CARTESIAN_POINT('Origin',(-0.5,-0.866025403784439,0.));
#441=CARTESIAN_POINT('Origin',(0.5,0.25,0.0283464566929134));
#442=CARTESIAN_POINT('',(0.3995,0.25,0.062992125984252));
#443=CARTESIAN_POINT('Origin',(0.5,0.25,0.062992125984252));
#444=CARTESIAN_POINT('',(0.3995,0.25,0.));
#445=CARTESIAN_POINT('',(0.3995,0.25,0.0283464566929134));
#446=CARTESIAN_POINT('Origin',(0.5,0.25,0.));
#447=CARTESIAN_POINT('Origin',(-0.5,0.25,0.0283464566929134));
#448=CARTESIAN_POINT('',(-0.6005,0.25,0.062992125984252));
#449=CARTESIAN_POINT('Origin',(-0.5,0.25,0.062992125984252));
#450=CARTESIAN_POINT('',(-0.6005,0.25,0.));
#451=CARTESIAN_POINT('',(-0.6005,0.25,0.0283464566929134));
#452=CARTESIAN_POINT('Origin',(-0.5,0.25,0.));
#453=CARTESIAN_POINT('Origin',(-0.5,-0.25,0.0283464566929134));
#454=CARTESIAN_POINT('',(-0.6005,-0.25,0.062992125984252));
#455=CARTESIAN_POINT('Origin',(-0.5,-0.25,0.062992125984252));
#456=CARTESIAN_POINT('',(-0.6005,-0.25,0.));
#457=CARTESIAN_POINT('',(-0.6005,-0.25,0.0283464566929134));
#458=CARTESIAN_POINT('Origin',(-0.5,-0.25,0.));
#459=CARTESIAN_POINT('Origin',(0.5,-0.25,0.0283464566929134));
#460=CARTESIAN_POINT('',(0.3995,-0.25,0.062992125984252));
#461=CARTESIAN_POINT('Origin',(0.5,-0.25,0.062992125984252));
#462=CARTESIAN_POINT('',(0.3995,-0.25,0.));
#463=CARTESIAN_POINT('',(0.3995,-0.25,0.0283464566929134));
#464=CARTESIAN_POINT('Origin',(0.5,-0.25,0.));
#465=CARTESIAN_POINT('Origin',(0.,0.,0.));
#466=CARTESIAN_POINT('',(-1.3,-1.59204083889156E-16,0.062992125984252));
#467=CARTESIAN_POINT('Origin',(0.,0.,0.062992125984252));
#468=CARTESIAN_POINT('',(-1.3,-1.59204083889156E-16,0.));
#469=CARTESIAN_POINT('',(-1.3,-1.59204083889156E-16,0.));
#470=CARTESIAN_POINT('Origin',(0.,0.,0.));
#471=CARTESIAN_POINT('Origin',(0.,0.,0.062992125984252));
#472=CARTESIAN_POINT('Origin',(0.,0.,0.));
#473=UNCERTAINTY_MEASURE_WITH_UNIT(LENGTH_MEASURE(0.000393700787401575),
#478,'DISTANCE_ACCURACY_VALUE',
'Maximum model space distance between geometric entities at asserted c
onnectivities');
#474=UNCERTAINTY_MEASURE_WITH_UNIT(LENGTH_MEASURE(0.000393700787401575),
#478,'DISTANCE_ACCURACY_VALUE',
'Maximum model space distance between geometric entities at asserted c
onnectivities');
#475=(
GEOMETRIC_REPRESENTATION_CONTEXT(3)
GLOBAL_UNCERTAINTY_ASSIGNED_CONTEXT((#473))
GLOBAL_UNIT_ASSIGNED_CONTEXT((#478,#482,#483))
REPRESENTATION_CONTEXT('','3D')
);
#476=(
GEOMETRIC_REPRESENTATION_CONTEXT(3)
GLOBAL_UNCERTAINTY_ASSIGNED_CONTEXT((#474))
GLOBAL_UNIT_ASSIGNED_CONTEXT((#478,#482,#483))
REPRESENTATION_CONTEXT('','3D')
);
#477=DIMENSIONAL_EXPONENTS(1.,0.,0.,0.,0.,0.,0.);
#478=(
CONVERSION_BASED_UNIT('inch',#481)
LENGTH_UNIT()
NAMED_UNIT(#477)
);
#479=(
LENGTH_UNIT()
NAMED_UNIT(*)
SI_UNIT(.MILLI.,.METRE.)
);
#480=(
LENGTH_UNIT()
NAMED_UNIT(*)
SI_UNIT($,.METRE.)
);
#481=LENGTH_MEASURE_WITH_UNIT(LENGTH_MEASURE(25.4),#479);
#482=(
NAMED_UNIT(*)
PLANE_ANGLE_UNIT()
SI_UNIT($,.RADIAN.)
);
#483=(
NAMED_UNIT(*)
SI_UNIT($,.STERADIAN.)
SOLID_ANGLE_UNIT()
);
#484=SHAPE_DEFINITION_REPRESENTATION(#485,#486);
#485=PRODUCT_DEFINITION_SHAPE('',$,#488);
#486=SHAPE_REPRESENTATION('',(#285),#475);
#487=PRODUCT_DEFINITION_CONTEXT('part definition',#492,'design');
#488=PRODUCT_DEFINITION('Heater_Mount','Heater_Mount v12',#489,#487);
#489=PRODUCT_DEFINITION_FORMATION('',$,#494);
#490=PRODUCT_RELATED_PRODUCT_CATEGORY('Heater_Mount v12',
'Heater_Mount v12',(#494));
#491=APPLICATION_PROTOCOL_DEFINITION('international standard',
'automotive_design',2009,#492);
#492=APPLICATION_CONTEXT(
'Core Data for Automotive Mechanical Design Process');
#493=PRODUCT_CONTEXT('part definition',#492,'mechanical');
#494=PRODUCT('Heater_Mount','Heater_Mount v12',$,(#493));
#495=PRESENTATION_STYLE_ASSIGNMENT((#497));
#496=PRESENTATION_STYLE_ASSIGNMENT((#498));
#497=SURFACE_STYLE_USAGE(.BOTH.,#499);
#498=SURFACE_STYLE_USAGE(.BOTH.,#500);
#499=SURFACE_SIDE_STYLE('',(#501));
#500=SURFACE_SIDE_STYLE('',(#502));
#501=SURFACE_STYLE_FILL_AREA(#503);
#502=SURFACE_STYLE_FILL_AREA(#504);
#503=FILL_AREA_STYLE('Steel - Satin',(#505));
#504=FILL_AREA_STYLE('PEEK',(#506));
#505=FILL_AREA_STYLE_COLOUR('Steel - Satin',#507);
#506=FILL_AREA_STYLE_COLOUR('PEEK',#508);
#507=COLOUR_RGB('Steel - Satin',0.627450980392157,0.627450980392157,0.627450980392157);
#508=COLOUR_RGB('PEEK',0.6,0.509803921568627,0.368627450980392);
ENDSEC;
END-ISO-10303-21;
