ISO-10303-21;
HEADER;
/* Generated by software containing ST-Developer
 * from STEP Tools, Inc. (www.steptools.com) 
 */

FILE_DESCRIPTION(
/* description */ (''),
/* implementation_level */ '2;1');

FILE_NAME(
/* name */ 'Slide_Holder.step',
/* time_stamp */ '2026-03-30T14:38:37-07:00',
/* author */ (''),
/* organization */ (''),
/* preprocessor_version */ 'ST-DEVELOPER v20.1',
/* originating_system */ 'Autodesk Translation Framework v14.24.0.0',
/* authorisation */ '');

FILE_SCHEMA (('AUTOMOTIVE_DESIGN { 1 0 10303 214 3 1 1 }'));
ENDSEC;

DATA;
#10=MECHANICAL_DESIGN_GEOMETRIC_PRESENTATION_REPRESENTATION('',(#13),#832);
#11=SHAPE_REPRESENTATION_RELATIONSHIP('SRR','None',#839,#12);
#12=ADVANCED_BREP_SHAPE_REPRESENTATION('',(#14),#831);
#13=STYLED_ITEM('',(#849),#14);
#14=MANIFOLD_SOLID_BREP('Body1',#462);
#15=B_SPLINE_CURVE_WITH_KNOTS('',3,(#716,#717,#718,#719,#720,#721,#722,
#723,#724,#725),.UNSPECIFIED.,.F.,.F.,(4,2,2,2,4),(0.987601240147533,1.01191234302622,
1.13352980306306,1.2551472630999,1.27945836597859),.UNSPECIFIED.);
#16=B_SPLINE_CURVE_WITH_KNOTS('',3,(#726,#727,#728,#729,#730,#731,#732,
#733,#734,#735),.UNSPECIFIED.,.F.,.F.,(4,2,2,2,4),(0.987601240147533,1.01191234302622,
1.13352980306306,1.2551472630999,1.27945836597858),.UNSPECIFIED.);
#17=B_SPLINE_CURVE_WITH_KNOTS('',3,(#742,#743,#744,#745,#746,#747,#748,
#749,#750,#751,#752),.UNSPECIFIED.,.F.,.F.,(4,2,3,2,4),(-0.145928562915526,
-0.121617460036843,0.,0.121617460036843,0.145928562915526),
 .UNSPECIFIED.);
#18=B_SPLINE_CURVE_WITH_KNOTS('',3,(#762,#763,#764,#765,#766,#767,#768,
#769,#770,#771,#772),.UNSPECIFIED.,.F.,.F.,(4,2,3,2,4),(-0.145928562915525,
-0.121617460036843,0.,0.121617460036843,0.145928562915525),
 .UNSPECIFIED.);
#19=PLANE('',#479);
#20=PLANE('',#485);
#21=PLANE('',#502);
#22=PLANE('',#506);
#23=PLANE('',#508);
#24=PLANE('',#512);
#25=PLANE('',#513);
#26=PLANE('',#515);
#27=PLANE('',#516);
#28=PLANE('',#518);
#29=PLANE('',#519);
#30=FACE_OUTER_BOUND('',#51,.T.);
#31=FACE_OUTER_BOUND('',#52,.T.);
#32=FACE_OUTER_BOUND('',#53,.T.);
#33=FACE_OUTER_BOUND('',#54,.T.);
#34=FACE_OUTER_BOUND('',#55,.T.);
#35=FACE_OUTER_BOUND('',#56,.T.);
#36=FACE_OUTER_BOUND('',#57,.T.);
#37=FACE_OUTER_BOUND('',#58,.T.);
#38=FACE_OUTER_BOUND('',#59,.T.);
#39=FACE_OUTER_BOUND('',#60,.T.);
#40=FACE_OUTER_BOUND('',#61,.T.);
#41=FACE_OUTER_BOUND('',#62,.T.);
#42=FACE_OUTER_BOUND('',#63,.T.);
#43=FACE_OUTER_BOUND('',#64,.T.);
#44=FACE_OUTER_BOUND('',#65,.T.);
#45=FACE_OUTER_BOUND('',#66,.T.);
#46=FACE_OUTER_BOUND('',#67,.T.);
#47=FACE_OUTER_BOUND('',#68,.T.);
#48=FACE_OUTER_BOUND('',#69,.T.);
#49=FACE_OUTER_BOUND('',#70,.T.);
#50=FACE_OUTER_BOUND('',#71,.T.);
#51=EDGE_LOOP('',(#293,#294,#295,#296));
#52=EDGE_LOOP('',(#297,#298,#299,#300,#301,#302,#303,#304,#305,#306,#307));
#53=EDGE_LOOP('',(#308,#309,#310,#311,#312,#313,#314,#315,#316,#317,#318,
#319,#320,#321,#322,#323));
#54=EDGE_LOOP('',(#324,#325,#326,#327,#328,#329,#330,#331));
#55=EDGE_LOOP('',(#332,#333,#334,#335,#336,#337,#338,#339));
#56=EDGE_LOOP('',(#340,#341,#342,#343,#344,#345,#346,#347));
#57=EDGE_LOOP('',(#348,#349,#350,#351,#352,#353,#354,#355));
#58=EDGE_LOOP('',(#356,#357,#358,#359,#360,#361,#362,#363,#364,#365,#366));
#59=EDGE_LOOP('',(#367,#368,#369,#370));
#60=EDGE_LOOP('',(#371,#372,#373,#374));
#61=EDGE_LOOP('',(#375,#376,#377,#378,#379,#380,#381,#382,#383,#384,#385,
#386,#387,#388,#389,#390));
#62=EDGE_LOOP('',(#391,#392,#393,#394));
#63=EDGE_LOOP('',(#395,#396,#397,#398));
#64=EDGE_LOOP('',(#399,#400,#401,#402));
#65=EDGE_LOOP('',(#403,#404,#405,#406));
#66=EDGE_LOOP('',(#407,#408,#409,#410));
#67=EDGE_LOOP('',(#411,#412,#413,#414));
#68=EDGE_LOOP('',(#415,#416,#417,#418));
#69=EDGE_LOOP('',(#419,#420,#421,#422));
#70=EDGE_LOOP('',(#423,#424,#425,#426));
#71=EDGE_LOOP('',(#427,#428,#429,#430));
#72=LINE('',#660,#113);
#73=LINE('',#663,#114);
#74=LINE('',#666,#115);
#75=LINE('',#670,#116);
#76=LINE('',#674,#117);
#77=LINE('',#678,#118);
#78=LINE('',#683,#119);
#79=LINE('',#686,#120);
#80=LINE('',#688,#121);
#81=LINE('',#692,#122);
#82=LINE('',#696,#123);
#83=LINE('',#700,#124);
#84=LINE('',#704,#125);
#85=LINE('',#708,#126);
#86=LINE('',#711,#127);
#87=LINE('',#715,#128);
#88=LINE('',#738,#129);
#89=LINE('',#755,#130);
#90=LINE('',#758,#131);
#91=LINE('',#775,#132);
#92=LINE('',#777,#133);
#93=LINE('',#779,#134);
#94=LINE('',#782,#135);
#95=LINE('',#783,#136);
#96=LINE('',#786,#137);
#97=LINE('',#792,#138);
#98=LINE('',#795,#139);
#99=LINE('',#796,#140);
#100=LINE('',#799,#141);
#101=LINE('',#800,#142);
#102=LINE('',#803,#143);
#103=LINE('',#806,#144);
#104=LINE('',#808,#145);
#105=LINE('',#811,#146);
#106=LINE('',#813,#147);
#107=LINE('',#814,#148);
#108=LINE('',#817,#149);
#109=LINE('',#819,#150);
#110=LINE('',#822,#151);
#111=LINE('',#824,#152);
#112=LINE('',#827,#153);
#113=VECTOR('',#527,10.);
#114=VECTOR('',#530,10.);
#115=VECTOR('',#533,10.);
#116=VECTOR('',#536,10.);
#117=VECTOR('',#539,10.);
#118=VECTOR('',#542,10.);
#119=VECTOR('',#547,10.);
#120=VECTOR('',#550,10.);
#121=VECTOR('',#551,10.);
#122=VECTOR('',#554,10.);
#123=VECTOR('',#557,10.);
#124=VECTOR('',#560,10.);
#125=VECTOR('',#563,10.);
#126=VECTOR('',#566,10.);
#127=VECTOR('',#569,10.);
#128=VECTOR('',#574,10.);
#129=VECTOR('',#577,10.);
#130=VECTOR('',#582,10.);
#131=VECTOR('',#585,10.);
#132=VECTOR('',#590,10.);
#133=VECTOR('',#593,10.);
#134=VECTOR('',#594,10.);
#135=VECTOR('',#597,10.);
#136=VECTOR('',#598,10.);
#137=VECTOR('',#601,10.);
#138=VECTOR('',#606,10.);
#139=VECTOR('',#609,10.);
#140=VECTOR('',#610,10.);
#141=VECTOR('',#615,10.);
#142=VECTOR('',#616,10.);
#143=VECTOR('',#619,10.);
#144=VECTOR('',#622,10.);
#145=VECTOR('',#623,10.);
#146=VECTOR('',#626,10.);
#147=VECTOR('',#629,10.);
#148=VECTOR('',#630,10.);
#149=VECTOR('',#635,10.);
#150=VECTOR('',#638,10.);
#151=VECTOR('',#643,10.);
#152=VECTOR('',#646,10.);
#153=VECTOR('',#651,10.);
#154=CIRCLE('',#477,1.27);
#155=CIRCLE('',#478,1.27);
#156=CIRCLE('',#480,2.54);
#157=CIRCLE('',#481,2.54);
#158=CIRCLE('',#482,1.);
#159=CIRCLE('',#483,1.);
#160=CIRCLE('',#484,3.50000000000231);
#161=CIRCLE('',#486,2.5);
#162=CIRCLE('',#487,2.5);
#163=CIRCLE('',#488,2.5);
#164=CIRCLE('',#489,2.5);
#165=CIRCLE('',#490,2.5);
#166=CIRCLE('',#491,2.5);
#167=CIRCLE('',#493,2.54);
#168=CIRCLE('',#495,2.5);
#169=CIRCLE('',#496,2.5);
#170=CIRCLE('',#498,2.5);
#171=CIRCLE('',#499,2.5);
#172=CIRCLE('',#501,2.54);
#173=CIRCLE('',#503,3.50000000000231);
#174=CIRCLE('',#504,1.);
#175=CIRCLE('',#505,1.);
#176=CIRCLE('',#509,2.5);
#177=CIRCLE('',#510,2.5);
#178=VERTEX_POINT('',#656);
#179=VERTEX_POINT('',#657);
#180=VERTEX_POINT('',#659);
#181=VERTEX_POINT('',#661);
#182=VERTEX_POINT('',#665);
#183=VERTEX_POINT('',#667);
#184=VERTEX_POINT('',#669);
#185=VERTEX_POINT('',#671);
#186=VERTEX_POINT('',#673);
#187=VERTEX_POINT('',#675);
#188=VERTEX_POINT('',#677);
#189=VERTEX_POINT('',#679);
#190=VERTEX_POINT('',#681);
#191=VERTEX_POINT('',#685);
#192=VERTEX_POINT('',#687);
#193=VERTEX_POINT('',#689);
#194=VERTEX_POINT('',#691);
#195=VERTEX_POINT('',#693);
#196=VERTEX_POINT('',#695);
#197=VERTEX_POINT('',#697);
#198=VERTEX_POINT('',#699);
#199=VERTEX_POINT('',#701);
#200=VERTEX_POINT('',#703);
#201=VERTEX_POINT('',#705);
#202=VERTEX_POINT('',#707);
#203=VERTEX_POINT('',#709);
#204=VERTEX_POINT('',#713);
#205=VERTEX_POINT('',#737);
#206=VERTEX_POINT('',#739);
#207=VERTEX_POINT('',#741);
#208=VERTEX_POINT('',#753);
#209=VERTEX_POINT('',#757);
#210=VERTEX_POINT('',#759);
#211=VERTEX_POINT('',#761);
#212=VERTEX_POINT('',#773);
#213=VERTEX_POINT('',#778);
#214=VERTEX_POINT('',#780);
#215=VERTEX_POINT('',#785);
#216=VERTEX_POINT('',#787);
#217=VERTEX_POINT('',#789);
#218=VERTEX_POINT('',#791);
#219=VERTEX_POINT('',#793);
#220=VERTEX_POINT('',#802);
#221=VERTEX_POINT('',#804);
#222=VERTEX_POINT('',#807);
#223=VERTEX_POINT('',#809);
#224=EDGE_CURVE('',#178,#179,#154,.T.);
#225=EDGE_CURVE('',#179,#180,#72,.T.);
#226=EDGE_CURVE('',#180,#181,#155,.T.);
#227=EDGE_CURVE('',#181,#178,#73,.T.);
#228=EDGE_CURVE('',#180,#182,#74,.T.);
#229=EDGE_CURVE('',#183,#182,#156,.T.);
#230=EDGE_CURVE('',#183,#184,#75,.T.);
#231=EDGE_CURVE('',#185,#184,#157,.T.);
#232=EDGE_CURVE('',#185,#186,#76,.T.);
#233=EDGE_CURVE('',#187,#186,#158,.T.);
#234=EDGE_CURVE('',#187,#188,#77,.T.);
#235=EDGE_CURVE('',#189,#188,#159,.T.);
#236=EDGE_CURVE('',#190,#189,#160,.T.);
#237=EDGE_CURVE('',#190,#181,#78,.T.);
#238=EDGE_CURVE('',#191,#179,#79,.T.);
#239=EDGE_CURVE('',#192,#191,#80,.T.);
#240=EDGE_CURVE('',#192,#193,#161,.T.);
#241=EDGE_CURVE('',#193,#194,#81,.T.);
#242=EDGE_CURVE('',#194,#195,#162,.T.);
#243=EDGE_CURVE('',#195,#196,#82,.T.);
#244=EDGE_CURVE('',#196,#197,#163,.T.);
#245=EDGE_CURVE('',#198,#197,#83,.T.);
#246=EDGE_CURVE('',#198,#199,#164,.T.);
#247=EDGE_CURVE('',#199,#200,#84,.T.);
#248=EDGE_CURVE('',#200,#201,#165,.T.);
#249=EDGE_CURVE('',#201,#202,#85,.T.);
#250=EDGE_CURVE('',#202,#203,#166,.T.);
#251=EDGE_CURVE('',#182,#203,#86,.T.);
#252=EDGE_CURVE('',#191,#204,#167,.T.);
#253=EDGE_CURVE('',#204,#183,#87,.T.);
#254=EDGE_CURVE('',#203,#198,#15,.T.);
#255=EDGE_CURVE('',#197,#192,#16,.T.);
#256=EDGE_CURVE('',#205,#196,#88,.T.);
#257=EDGE_CURVE('',#206,#205,#168,.T.);
#258=EDGE_CURVE('',#207,#206,#17,.T.);
#259=EDGE_CURVE('',#208,#207,#169,.T.);
#260=EDGE_CURVE('',#208,#193,#89,.T.);
#261=EDGE_CURVE('',#209,#202,#90,.T.);
#262=EDGE_CURVE('',#210,#209,#170,.T.);
#263=EDGE_CURVE('',#211,#210,#18,.T.);
#264=EDGE_CURVE('',#212,#211,#171,.T.);
#265=EDGE_CURVE('',#212,#199,#91,.T.);
#266=EDGE_CURVE('',#210,#185,#92,.T.);
#267=EDGE_CURVE('',#184,#213,#93,.T.);
#268=EDGE_CURVE('',#213,#214,#172,.T.);
#269=EDGE_CURVE('',#214,#207,#94,.T.);
#270=EDGE_CURVE('',#206,#211,#95,.T.);
#271=EDGE_CURVE('',#178,#215,#96,.T.);
#272=EDGE_CURVE('',#215,#216,#173,.T.);
#273=EDGE_CURVE('',#217,#216,#174,.T.);
#274=EDGE_CURVE('',#217,#218,#97,.T.);
#275=EDGE_CURVE('',#219,#218,#175,.T.);
#276=EDGE_CURVE('',#219,#214,#98,.T.);
#277=EDGE_CURVE('',#213,#204,#99,.T.);
#278=EDGE_CURVE('',#218,#187,#100,.T.);
#279=EDGE_CURVE('',#186,#219,#101,.T.);
#280=EDGE_CURVE('',#209,#220,#102,.T.);
#281=EDGE_CURVE('',#220,#221,#176,.T.);
#282=EDGE_CURVE('',#221,#212,#103,.T.);
#283=EDGE_CURVE('',#205,#222,#104,.T.);
#284=EDGE_CURVE('',#222,#223,#177,.T.);
#285=EDGE_CURVE('',#223,#208,#105,.T.);
#286=EDGE_CURVE('',#188,#217,#106,.T.);
#287=EDGE_CURVE('',#216,#189,#107,.T.);
#288=EDGE_CURVE('',#223,#194,#108,.T.);
#289=EDGE_CURVE('',#222,#195,#109,.T.);
#290=EDGE_CURVE('',#221,#200,#110,.T.);
#291=EDGE_CURVE('',#220,#201,#111,.T.);
#292=EDGE_CURVE('',#190,#215,#112,.T.);
#293=ORIENTED_EDGE('',*,*,#224,.T.);
#294=ORIENTED_EDGE('',*,*,#225,.T.);
#295=ORIENTED_EDGE('',*,*,#226,.T.);
#296=ORIENTED_EDGE('',*,*,#227,.T.);
#297=ORIENTED_EDGE('',*,*,#226,.F.);
#298=ORIENTED_EDGE('',*,*,#228,.T.);
#299=ORIENTED_EDGE('',*,*,#229,.F.);
#300=ORIENTED_EDGE('',*,*,#230,.T.);
#301=ORIENTED_EDGE('',*,*,#231,.F.);
#302=ORIENTED_EDGE('',*,*,#232,.T.);
#303=ORIENTED_EDGE('',*,*,#233,.F.);
#304=ORIENTED_EDGE('',*,*,#234,.T.);
#305=ORIENTED_EDGE('',*,*,#235,.F.);
#306=ORIENTED_EDGE('',*,*,#236,.F.);
#307=ORIENTED_EDGE('',*,*,#237,.T.);
#308=ORIENTED_EDGE('',*,*,#225,.F.);
#309=ORIENTED_EDGE('',*,*,#238,.F.);
#310=ORIENTED_EDGE('',*,*,#239,.F.);
#311=ORIENTED_EDGE('',*,*,#240,.T.);
#312=ORIENTED_EDGE('',*,*,#241,.T.);
#313=ORIENTED_EDGE('',*,*,#242,.T.);
#314=ORIENTED_EDGE('',*,*,#243,.T.);
#315=ORIENTED_EDGE('',*,*,#244,.T.);
#316=ORIENTED_EDGE('',*,*,#245,.F.);
#317=ORIENTED_EDGE('',*,*,#246,.T.);
#318=ORIENTED_EDGE('',*,*,#247,.T.);
#319=ORIENTED_EDGE('',*,*,#248,.T.);
#320=ORIENTED_EDGE('',*,*,#249,.T.);
#321=ORIENTED_EDGE('',*,*,#250,.T.);
#322=ORIENTED_EDGE('',*,*,#251,.F.);
#323=ORIENTED_EDGE('',*,*,#228,.F.);
#324=ORIENTED_EDGE('',*,*,#252,.T.);
#325=ORIENTED_EDGE('',*,*,#253,.T.);
#326=ORIENTED_EDGE('',*,*,#229,.T.);
#327=ORIENTED_EDGE('',*,*,#251,.T.);
#328=ORIENTED_EDGE('',*,*,#254,.T.);
#329=ORIENTED_EDGE('',*,*,#245,.T.);
#330=ORIENTED_EDGE('',*,*,#255,.T.);
#331=ORIENTED_EDGE('',*,*,#239,.T.);
#332=ORIENTED_EDGE('',*,*,#255,.F.);
#333=ORIENTED_EDGE('',*,*,#244,.F.);
#334=ORIENTED_EDGE('',*,*,#256,.F.);
#335=ORIENTED_EDGE('',*,*,#257,.F.);
#336=ORIENTED_EDGE('',*,*,#258,.F.);
#337=ORIENTED_EDGE('',*,*,#259,.F.);
#338=ORIENTED_EDGE('',*,*,#260,.T.);
#339=ORIENTED_EDGE('',*,*,#240,.F.);
#340=ORIENTED_EDGE('',*,*,#254,.F.);
#341=ORIENTED_EDGE('',*,*,#250,.F.);
#342=ORIENTED_EDGE('',*,*,#261,.F.);
#343=ORIENTED_EDGE('',*,*,#262,.F.);
#344=ORIENTED_EDGE('',*,*,#263,.F.);
#345=ORIENTED_EDGE('',*,*,#264,.F.);
#346=ORIENTED_EDGE('',*,*,#265,.T.);
#347=ORIENTED_EDGE('',*,*,#246,.F.);
#348=ORIENTED_EDGE('',*,*,#263,.T.);
#349=ORIENTED_EDGE('',*,*,#266,.T.);
#350=ORIENTED_EDGE('',*,*,#231,.T.);
#351=ORIENTED_EDGE('',*,*,#267,.T.);
#352=ORIENTED_EDGE('',*,*,#268,.T.);
#353=ORIENTED_EDGE('',*,*,#269,.T.);
#354=ORIENTED_EDGE('',*,*,#258,.T.);
#355=ORIENTED_EDGE('',*,*,#270,.T.);
#356=ORIENTED_EDGE('',*,*,#224,.F.);
#357=ORIENTED_EDGE('',*,*,#271,.T.);
#358=ORIENTED_EDGE('',*,*,#272,.T.);
#359=ORIENTED_EDGE('',*,*,#273,.F.);
#360=ORIENTED_EDGE('',*,*,#274,.T.);
#361=ORIENTED_EDGE('',*,*,#275,.F.);
#362=ORIENTED_EDGE('',*,*,#276,.T.);
#363=ORIENTED_EDGE('',*,*,#268,.F.);
#364=ORIENTED_EDGE('',*,*,#277,.T.);
#365=ORIENTED_EDGE('',*,*,#252,.F.);
#366=ORIENTED_EDGE('',*,*,#238,.T.);
#367=ORIENTED_EDGE('',*,*,#253,.F.);
#368=ORIENTED_EDGE('',*,*,#277,.F.);
#369=ORIENTED_EDGE('',*,*,#267,.F.);
#370=ORIENTED_EDGE('',*,*,#230,.F.);
#371=ORIENTED_EDGE('',*,*,#275,.T.);
#372=ORIENTED_EDGE('',*,*,#278,.T.);
#373=ORIENTED_EDGE('',*,*,#233,.T.);
#374=ORIENTED_EDGE('',*,*,#279,.T.);
#375=ORIENTED_EDGE('',*,*,#269,.F.);
#376=ORIENTED_EDGE('',*,*,#276,.F.);
#377=ORIENTED_EDGE('',*,*,#279,.F.);
#378=ORIENTED_EDGE('',*,*,#232,.F.);
#379=ORIENTED_EDGE('',*,*,#266,.F.);
#380=ORIENTED_EDGE('',*,*,#262,.T.);
#381=ORIENTED_EDGE('',*,*,#280,.T.);
#382=ORIENTED_EDGE('',*,*,#281,.T.);
#383=ORIENTED_EDGE('',*,*,#282,.T.);
#384=ORIENTED_EDGE('',*,*,#264,.T.);
#385=ORIENTED_EDGE('',*,*,#270,.F.);
#386=ORIENTED_EDGE('',*,*,#257,.T.);
#387=ORIENTED_EDGE('',*,*,#283,.T.);
#388=ORIENTED_EDGE('',*,*,#284,.T.);
#389=ORIENTED_EDGE('',*,*,#285,.T.);
#390=ORIENTED_EDGE('',*,*,#259,.T.);
#391=ORIENTED_EDGE('',*,*,#235,.T.);
#392=ORIENTED_EDGE('',*,*,#286,.T.);
#393=ORIENTED_EDGE('',*,*,#273,.T.);
#394=ORIENTED_EDGE('',*,*,#287,.T.);
#395=ORIENTED_EDGE('',*,*,#278,.F.);
#396=ORIENTED_EDGE('',*,*,#274,.F.);
#397=ORIENTED_EDGE('',*,*,#286,.F.);
#398=ORIENTED_EDGE('',*,*,#234,.F.);
#399=ORIENTED_EDGE('',*,*,#241,.F.);
#400=ORIENTED_EDGE('',*,*,#260,.F.);
#401=ORIENTED_EDGE('',*,*,#285,.F.);
#402=ORIENTED_EDGE('',*,*,#288,.T.);
#403=ORIENTED_EDGE('',*,*,#242,.F.);
#404=ORIENTED_EDGE('',*,*,#288,.F.);
#405=ORIENTED_EDGE('',*,*,#284,.F.);
#406=ORIENTED_EDGE('',*,*,#289,.T.);
#407=ORIENTED_EDGE('',*,*,#243,.F.);
#408=ORIENTED_EDGE('',*,*,#289,.F.);
#409=ORIENTED_EDGE('',*,*,#283,.F.);
#410=ORIENTED_EDGE('',*,*,#256,.T.);
#411=ORIENTED_EDGE('',*,*,#247,.F.);
#412=ORIENTED_EDGE('',*,*,#265,.F.);
#413=ORIENTED_EDGE('',*,*,#282,.F.);
#414=ORIENTED_EDGE('',*,*,#290,.T.);
#415=ORIENTED_EDGE('',*,*,#248,.F.);
#416=ORIENTED_EDGE('',*,*,#290,.F.);
#417=ORIENTED_EDGE('',*,*,#281,.F.);
#418=ORIENTED_EDGE('',*,*,#291,.T.);
#419=ORIENTED_EDGE('',*,*,#249,.F.);
#420=ORIENTED_EDGE('',*,*,#291,.F.);
#421=ORIENTED_EDGE('',*,*,#280,.F.);
#422=ORIENTED_EDGE('',*,*,#261,.T.);
#423=ORIENTED_EDGE('',*,*,#227,.F.);
#424=ORIENTED_EDGE('',*,*,#237,.F.);
#425=ORIENTED_EDGE('',*,*,#292,.T.);
#426=ORIENTED_EDGE('',*,*,#271,.F.);
#427=ORIENTED_EDGE('',*,*,#287,.F.);
#428=ORIENTED_EDGE('',*,*,#272,.F.);
#429=ORIENTED_EDGE('',*,*,#292,.F.);
#430=ORIENTED_EDGE('',*,*,#236,.T.);
#431=CYLINDRICAL_SURFACE('',#476,1.27);
#432=CYLINDRICAL_SURFACE('',#492,2.54);
#433=CYLINDRICAL_SURFACE('',#494,2.5);
#434=CYLINDRICAL_SURFACE('',#497,2.5);
#435=CYLINDRICAL_SURFACE('',#500,2.54);
#436=CYLINDRICAL_SURFACE('',#507,1.);
#437=CYLINDRICAL_SURFACE('',#511,1.);
#438=CYLINDRICAL_SURFACE('',#514,2.5);
#439=CYLINDRICAL_SURFACE('',#517,2.5);
#440=CYLINDRICAL_SURFACE('',#520,3.50000000000231);
#441=ADVANCED_FACE('',(#30),#431,.T.);
#442=ADVANCED_FACE('',(#31),#19,.F.);
#443=ADVANCED_FACE('',(#32),#20,.T.);
#444=ADVANCED_FACE('',(#33),#432,.T.);
#445=ADVANCED_FACE('',(#34),#433,.F.);
#446=ADVANCED_FACE('',(#35),#434,.F.);
#447=ADVANCED_FACE('',(#36),#435,.T.);
#448=ADVANCED_FACE('',(#37),#21,.T.);
#449=ADVANCED_FACE('',(#38),#22,.T.);
#450=ADVANCED_FACE('',(#39),#436,.T.);
#451=ADVANCED_FACE('',(#40),#23,.T.);
#452=ADVANCED_FACE('',(#41),#437,.F.);
#453=ADVANCED_FACE('',(#42),#24,.T.);
#454=ADVANCED_FACE('',(#43),#25,.F.);
#455=ADVANCED_FACE('',(#44),#438,.F.);
#456=ADVANCED_FACE('',(#45),#26,.F.);
#457=ADVANCED_FACE('',(#46),#27,.F.);
#458=ADVANCED_FACE('',(#47),#439,.F.);
#459=ADVANCED_FACE('',(#48),#28,.F.);
#460=ADVANCED_FACE('',(#49),#29,.T.);
#461=ADVANCED_FACE('',(#50),#440,.T.);
#462=CLOSED_SHELL('',(#441,#442,#443,#444,#445,#446,#447,#448,#449,#450,
#451,#452,#453,#454,#455,#456,#457,#458,#459,#460,#461));
#463=DERIVED_UNIT_ELEMENT(#465,1.);
#464=DERIVED_UNIT_ELEMENT(#834,-3.);
#465=(
MASS_UNIT()
NAMED_UNIT(*)
SI_UNIT(.KILO.,.GRAM.)
);
#466=DERIVED_UNIT((#463,#464));
#467=MEASURE_REPRESENTATION_ITEM('density measure',
POSITIVE_RATIO_MEASURE(7850.),#466);
#468=PROPERTY_DEFINITION_REPRESENTATION(#473,#470);
#469=PROPERTY_DEFINITION_REPRESENTATION(#474,#471);
#470=REPRESENTATION('material name',(#472),#831);
#471=REPRESENTATION('density',(#467),#831);
#472=DESCRIPTIVE_REPRESENTATION_ITEM('Steel','Steel');
#473=PROPERTY_DEFINITION('material property','material name',#841);
#474=PROPERTY_DEFINITION('material property','density of part',#841);
#475=AXIS2_PLACEMENT_3D('',#654,#521,#522);
#476=AXIS2_PLACEMENT_3D('',#655,#523,#524);
#477=AXIS2_PLACEMENT_3D('',#658,#525,#526);
#478=AXIS2_PLACEMENT_3D('',#662,#528,#529);
#479=AXIS2_PLACEMENT_3D('',#664,#531,#532);
#480=AXIS2_PLACEMENT_3D('',#668,#534,#535);
#481=AXIS2_PLACEMENT_3D('',#672,#537,#538);
#482=AXIS2_PLACEMENT_3D('',#676,#540,#541);
#483=AXIS2_PLACEMENT_3D('',#680,#543,#544);
#484=AXIS2_PLACEMENT_3D('',#682,#545,#546);
#485=AXIS2_PLACEMENT_3D('',#684,#548,#549);
#486=AXIS2_PLACEMENT_3D('',#690,#552,#553);
#487=AXIS2_PLACEMENT_3D('',#694,#555,#556);
#488=AXIS2_PLACEMENT_3D('',#698,#558,#559);
#489=AXIS2_PLACEMENT_3D('',#702,#561,#562);
#490=AXIS2_PLACEMENT_3D('',#706,#564,#565);
#491=AXIS2_PLACEMENT_3D('',#710,#567,#568);
#492=AXIS2_PLACEMENT_3D('',#712,#570,#571);
#493=AXIS2_PLACEMENT_3D('',#714,#572,#573);
#494=AXIS2_PLACEMENT_3D('',#736,#575,#576);
#495=AXIS2_PLACEMENT_3D('',#740,#578,#579);
#496=AXIS2_PLACEMENT_3D('',#754,#580,#581);
#497=AXIS2_PLACEMENT_3D('',#756,#583,#584);
#498=AXIS2_PLACEMENT_3D('',#760,#586,#587);
#499=AXIS2_PLACEMENT_3D('',#774,#588,#589);
#500=AXIS2_PLACEMENT_3D('',#776,#591,#592);
#501=AXIS2_PLACEMENT_3D('',#781,#595,#596);
#502=AXIS2_PLACEMENT_3D('',#784,#599,#600);
#503=AXIS2_PLACEMENT_3D('',#788,#602,#603);
#504=AXIS2_PLACEMENT_3D('',#790,#604,#605);
#505=AXIS2_PLACEMENT_3D('',#794,#607,#608);
#506=AXIS2_PLACEMENT_3D('',#797,#611,#612);
#507=AXIS2_PLACEMENT_3D('',#798,#613,#614);
#508=AXIS2_PLACEMENT_3D('',#801,#617,#618);
#509=AXIS2_PLACEMENT_3D('',#805,#620,#621);
#510=AXIS2_PLACEMENT_3D('',#810,#624,#625);
#511=AXIS2_PLACEMENT_3D('',#812,#627,#628);
#512=AXIS2_PLACEMENT_3D('',#815,#631,#632);
#513=AXIS2_PLACEMENT_3D('',#816,#633,#634);
#514=AXIS2_PLACEMENT_3D('',#818,#636,#637);
#515=AXIS2_PLACEMENT_3D('',#820,#639,#640);
#516=AXIS2_PLACEMENT_3D('',#821,#641,#642);
#517=AXIS2_PLACEMENT_3D('',#823,#644,#645);
#518=AXIS2_PLACEMENT_3D('',#825,#647,#648);
#519=AXIS2_PLACEMENT_3D('',#826,#649,#650);
#520=AXIS2_PLACEMENT_3D('',#828,#652,#653);
#521=DIRECTION('axis',(0.,0.,1.));
#522=DIRECTION('refdir',(1.,0.,0.));
#523=DIRECTION('center_axis',(1.,0.,0.));
#524=DIRECTION('ref_axis',(0.,-0.707106781186545,0.70710678118655));
#525=DIRECTION('center_axis',(-1.,0.,0.));
#526=DIRECTION('ref_axis',(0.,-0.707106781186545,0.70710678118655));
#527=DIRECTION('',(-1.,0.,0.));
#528=DIRECTION('center_axis',(1.,0.,0.));
#529=DIRECTION('ref_axis',(0.,-0.707106781186545,0.70710678118655));
#530=DIRECTION('',(1.,0.,0.));
#531=DIRECTION('center_axis',(1.,0.,0.));
#532=DIRECTION('ref_axis',(0.,1.,0.));
#533=DIRECTION('',(0.,1.,6.93889390390723E-16));
#534=DIRECTION('center_axis',(1.,0.,0.));
#535=DIRECTION('ref_axis',(0.,0.707106781186546,0.707106781186549));
#536=DIRECTION('',(0.,1.78050769635398E-15,-1.));
#537=DIRECTION('center_axis',(1.,0.,0.));
#538=DIRECTION('ref_axis',(0.,0.707106781186548,-0.707106781186547));
#539=DIRECTION('',(0.,-1.,-5.13581318503263E-33));
#540=DIRECTION('center_axis',(1.,0.,0.));
#541=DIRECTION('ref_axis',(0.,-0.104528463267654,-0.994521895368273));
#542=DIRECTION('',(0.,-0.978147600733805,0.20791169081776));
#543=DIRECTION('center_axis',(-1.,0.,0.));
#544=DIRECTION('ref_axis',(0.,-0.428555656360641,0.903515384153087));
#545=DIRECTION('center_axis',(1.,0.,0.));
#546=DIRECTION('ref_axis',(0.,-0.987702800572737,0.156343141009679));
#547=DIRECTION('',(0.,-2.22044604925031E-15,1.));
#548=DIRECTION('center_axis',(0.,-6.93889390390723E-16,1.));
#549=DIRECTION('ref_axis',(0.,-1.,-6.93889390390723E-16));
#550=DIRECTION('',(0.,-1.,-6.93889390390723E-16));
#551=DIRECTION('',(1.,0.,0.));
#552=DIRECTION('center_axis',(0.,6.93889390390723E-16,-1.));
#553=DIRECTION('ref_axis',(-1.,0.,0.));
#554=DIRECTION('',(0.,-1.,-6.93889390390723E-16));
#555=DIRECTION('center_axis',(0.,6.93889390390723E-16,-1.));
#556=DIRECTION('ref_axis',(1.,0.,0.));
#557=DIRECTION('',(0.,1.,6.93889390390723E-16));
#558=DIRECTION('center_axis',(0.,6.93889390390723E-16,-1.));
#559=DIRECTION('ref_axis',(-1.,0.,0.));
#560=DIRECTION('',(1.,0.,0.));
#561=DIRECTION('center_axis',(0.,6.93889390390723E-16,-1.));
#562=DIRECTION('ref_axis',(-1.,0.,0.));
#563=DIRECTION('',(0.,-1.,-6.93889390390723E-16));
#564=DIRECTION('center_axis',(0.,6.93889390390723E-16,-1.));
#565=DIRECTION('ref_axis',(1.,0.,0.));
#566=DIRECTION('',(0.,1.,6.93889390390723E-16));
#567=DIRECTION('center_axis',(0.,6.93889390390723E-16,-1.));
#568=DIRECTION('ref_axis',(-1.,0.,0.));
#569=DIRECTION('',(1.,0.,0.));
#570=DIRECTION('center_axis',(1.,0.,0.));
#571=DIRECTION('ref_axis',(0.,0.707106781186546,0.707106781186549));
#572=DIRECTION('center_axis',(-1.,0.,0.));
#573=DIRECTION('ref_axis',(0.,0.707106781186546,0.707106781186549));
#574=DIRECTION('',(-1.,0.,0.));
#575=DIRECTION('center_axis',(0.,0.,1.));
#576=DIRECTION('ref_axis',(-1.,0.,0.));
#577=DIRECTION('',(0.,0.,1.));
#578=DIRECTION('center_axis',(0.,-5.13581318503263E-33,1.));
#579=DIRECTION('ref_axis',(-1.,0.,0.));
#580=DIRECTION('center_axis',(0.,-5.13581318503263E-33,1.));
#581=DIRECTION('ref_axis',(-1.,0.,0.));
#582=DIRECTION('',(0.,0.,1.));
#583=DIRECTION('center_axis',(0.,0.,1.));
#584=DIRECTION('ref_axis',(-1.,0.,0.));
#585=DIRECTION('',(0.,0.,1.));
#586=DIRECTION('center_axis',(0.,-5.13581318503263E-33,1.));
#587=DIRECTION('ref_axis',(-1.,0.,0.));
#588=DIRECTION('center_axis',(0.,-5.13581318503263E-33,1.));
#589=DIRECTION('ref_axis',(-1.,0.,0.));
#590=DIRECTION('',(0.,0.,1.));
#591=DIRECTION('center_axis',(1.,0.,0.));
#592=DIRECTION('ref_axis',(0.,0.707106781186548,-0.707106781186547));
#593=DIRECTION('',(-1.,0.,0.));
#594=DIRECTION('',(1.,0.,0.));
#595=DIRECTION('center_axis',(-1.,0.,0.));
#596=DIRECTION('ref_axis',(0.,0.707106781186548,-0.707106781186547));
#597=DIRECTION('',(-1.,0.,0.));
#598=DIRECTION('',(-1.,0.,0.));
#599=DIRECTION('center_axis',(1.,0.,0.));
#600=DIRECTION('ref_axis',(0.,1.,0.));
#601=DIRECTION('',(0.,2.22044604925031E-15,-1.));
#602=DIRECTION('center_axis',(1.,0.,0.));
#603=DIRECTION('ref_axis',(0.,-0.987702800572737,0.156343141009679));
#604=DIRECTION('center_axis',(1.,0.,0.));
#605=DIRECTION('ref_axis',(0.,-0.428555656360641,0.903515384153087));
#606=DIRECTION('',(0.,0.978147600733805,-0.20791169081776));
#607=DIRECTION('center_axis',(-1.,0.,0.));
#608=DIRECTION('ref_axis',(0.,-0.104528463267654,-0.994521895368273));
#609=DIRECTION('',(0.,1.,5.13581318503263E-33));
#610=DIRECTION('',(0.,-1.78050769635398E-15,1.));
#611=DIRECTION('center_axis',(0.,1.,1.78050769635398E-15));
#612=DIRECTION('ref_axis',(0.,-1.78050769635398E-15,1.));
#613=DIRECTION('center_axis',(1.,0.,0.));
#614=DIRECTION('ref_axis',(0.,-0.104528463267654,-0.994521895368273));
#615=DIRECTION('',(-1.,0.,0.));
#616=DIRECTION('',(1.,0.,0.));
#617=DIRECTION('center_axis',(0.,5.13581318503263E-33,-1.));
#618=DIRECTION('ref_axis',(0.,1.,5.13581318503263E-33));
#619=DIRECTION('',(0.,-1.,-5.13581318503263E-33));
#620=DIRECTION('center_axis',(0.,-5.13581318503263E-33,1.));
#621=DIRECTION('ref_axis',(1.,0.,0.));
#622=DIRECTION('',(0.,1.,5.13581318503263E-33));
#623=DIRECTION('',(0.,-1.,-5.13581318503263E-33));
#624=DIRECTION('center_axis',(0.,-5.13581318503263E-33,1.));
#625=DIRECTION('ref_axis',(1.,0.,0.));
#626=DIRECTION('',(0.,1.,5.13581318503263E-33));
#627=DIRECTION('center_axis',(1.,0.,0.));
#628=DIRECTION('ref_axis',(0.,-0.428555656360641,0.903515384153087));
#629=DIRECTION('',(1.,0.,0.));
#630=DIRECTION('',(-1.,0.,0.));
#631=DIRECTION('center_axis',(0.,-0.20791169081776,-0.978147600733806));
#632=DIRECTION('ref_axis',(0.,0.978147600733805,-0.20791169081776));
#633=DIRECTION('center_axis',(1.,0.,0.));
#634=DIRECTION('ref_axis',(0.,1.,0.));
#635=DIRECTION('',(0.,0.,1.));
#636=DIRECTION('center_axis',(0.,0.,1.));
#637=DIRECTION('ref_axis',(1.,0.,0.));
#638=DIRECTION('',(0.,0.,1.));
#639=DIRECTION('center_axis',(-1.,0.,0.));
#640=DIRECTION('ref_axis',(0.,-1.,0.));
#641=DIRECTION('center_axis',(1.,0.,0.));
#642=DIRECTION('ref_axis',(0.,1.,0.));
#643=DIRECTION('',(0.,0.,1.));
#644=DIRECTION('center_axis',(0.,0.,1.));
#645=DIRECTION('ref_axis',(1.,0.,0.));
#646=DIRECTION('',(0.,0.,1.));
#647=DIRECTION('center_axis',(-1.,0.,0.));
#648=DIRECTION('ref_axis',(0.,-1.,0.));
#649=DIRECTION('center_axis',(0.,-1.,-2.22044604925031E-15));
#650=DIRECTION('ref_axis',(0.,2.22044604925031E-15,-1.));
#651=DIRECTION('',(1.,0.,0.));
#652=DIRECTION('center_axis',(1.,0.,0.));
#653=DIRECTION('ref_axis',(0.,-0.987702800572737,0.156343141009679));
#654=CARTESIAN_POINT('',(0.,0.,0.));
#655=CARTESIAN_POINT('Origin',(0.,-26.1228987080315,5.27720099353424));
#656=CARTESIAN_POINT('',(40.,-27.3928987080315,5.27720099353424));
#657=CARTESIAN_POINT('',(40.,-26.1228987080315,6.54720099353424));
#658=CARTESIAN_POINT('Origin',(40.,-26.1228987080315,5.27720099353424));
#659=CARTESIAN_POINT('',(0.,-26.1228987080315,6.54720099353424));
#660=CARTESIAN_POINT('',(0.,-26.1228987080315,6.54720099353424));
#661=CARTESIAN_POINT('',(0.,-27.3928987080315,5.27720099353424));
#662=CARTESIAN_POINT('Origin',(0.,-26.1228987080315,5.27720099353424));
#663=CARTESIAN_POINT('',(0.,-27.3928987080315,5.27720099353424));
#664=CARTESIAN_POINT('Origin',(0.,-23.9956105962386,2.52360049676596));
#665=CARTESIAN_POINT('',(0.,2.06710129196853,6.54720099353426));
#666=CARTESIAN_POINT('',(0.,-27.3928987080315,6.54720099353424));
#667=CARTESIAN_POINT('',(0.,4.60710129196853,4.00720099353426));
#668=CARTESIAN_POINT('Origin',(0.,2.06710129196853,4.00720099353426));
#669=CARTESIAN_POINT('',(0.,4.60710129196854,2.54));
#670=CARTESIAN_POINT('',(0.,4.60710129196853,6.54720099353426));
#671=CARTESIAN_POINT('',(0.,2.06710129196854,1.061624607009E-32));
#672=CARTESIAN_POINT('Origin',(0.,2.06710129196854,2.54));
#673=CARTESIAN_POINT('',(0.,-5.89489576473432,-3.02750833929155E-32));
#674=CARTESIAN_POINT('',(0.,0.,0.));
#675=CARTESIAN_POINT('',(0.,-6.10280745555208,0.0218523992661937));
#676=CARTESIAN_POINT('Origin',(0.,-5.89489576473432,1.));
#677=CARTESIAN_POINT('',(0.,-19.7273829525143,2.91784532111412));
#678=CARTESIAN_POINT('',(0.,-6.,-3.08148791101958E-32));
#679=CARTESIAN_POINT('',(0.,-20.8243267017077,2.39754267140668));
#680=CARTESIAN_POINT('Origin',(0.,-19.9352946433321,1.93969772038032));
#681=CARTESIAN_POINT('',(0.,-27.3928987080315,4.54720099353424));
#682=CARTESIAN_POINT('Origin',(0.,-23.9359389060246,4.));
#683=CARTESIAN_POINT('',(0.,-27.3928987080315,4.54720099353424));
#684=CARTESIAN_POINT('Origin',(0.,4.60710129196853,6.54720099353426));
#685=CARTESIAN_POINT('',(40.,2.06710129196853,6.54720099353426));
#686=CARTESIAN_POINT('',(40.,-27.3928987080315,6.54720099353424));
#687=CARTESIAN_POINT('',(34.1060911239113,2.06710129196853,6.54720099353426));
#688=CARTESIAN_POINT('',(0.,2.06710129196853,6.54720099353426));
#689=CARTESIAN_POINT('',(35.2,0.,6.54720099353426));
#690=CARTESIAN_POINT('Origin',(32.7,0.,6.54720099353426));
#691=CARTESIAN_POINT('',(35.2,-3.,6.54720099353426));
#692=CARTESIAN_POINT('',(35.2,0.803550645984262,6.54720099353426));
#693=CARTESIAN_POINT('',(30.2,-3.,6.54720099353426));
#694=CARTESIAN_POINT('Origin',(32.7,-3.,6.54720099353426));
#695=CARTESIAN_POINT('',(30.2,0.,6.54720099353426));
#696=CARTESIAN_POINT('',(30.2,2.30355064598426,6.54720099353426));
#697=CARTESIAN_POINT('',(31.2939088760887,2.06710129196853,6.54720099353426));
#698=CARTESIAN_POINT('Origin',(32.7,0.,6.54720099353426));
#699=CARTESIAN_POINT('',(8.70609112391126,2.06710129196853,6.54720099353426));
#700=CARTESIAN_POINT('',(0.,2.06710129196853,6.54720099353426));
#701=CARTESIAN_POINT('',(9.8,0.,6.54720099353426));
#702=CARTESIAN_POINT('Origin',(7.3,0.,6.54720099353426));
#703=CARTESIAN_POINT('',(9.8,-3.,6.54720099353426));
#704=CARTESIAN_POINT('',(9.8,0.803550645984262,6.54720099353426));
#705=CARTESIAN_POINT('',(4.8,-3.,6.54720099353426));
#706=CARTESIAN_POINT('Origin',(7.3,-3.,6.54720099353426));
#707=CARTESIAN_POINT('',(4.8,0.,6.54720099353426));
#708=CARTESIAN_POINT('',(4.8,2.30355064598426,6.54720099353426));
#709=CARTESIAN_POINT('',(5.89390887608874,2.06710129196853,6.54720099353426));
#710=CARTESIAN_POINT('Origin',(7.3,0.,6.54720099353426));
#711=CARTESIAN_POINT('',(0.,2.06710129196853,6.54720099353426));
#712=CARTESIAN_POINT('Origin',(0.,2.06710129196853,4.00720099353426));
#713=CARTESIAN_POINT('',(40.,4.60710129196853,4.00720099353426));
#714=CARTESIAN_POINT('Origin',(40.,2.06710129196853,4.00720099353426));
#715=CARTESIAN_POINT('',(0.,4.60710129196853,4.00720099353426));
#716=CARTESIAN_POINT('Ctrl Pts',(5.89390887608874,2.06710129196853,6.54720099353426));
#717=CARTESIAN_POINT('Ctrl Pts',(5.9626634828288,2.11386979946297,6.54720099353426));
#718=CARTESIAN_POINT('Ctrl Pts',(6.03391029827513,2.15730592146592,6.54591124664037));
#719=CARTESIAN_POINT('Ctrl Pts',(6.47374827620204,2.39609690737837,6.53367504800672));
#720=CARTESIAN_POINT('Ctrl Pts',(6.89460846654385,2.5,6.510039124254));
#721=CARTESIAN_POINT('Ctrl Pts',(7.70539153345614,2.5,6.510039124254));
#722=CARTESIAN_POINT('Ctrl Pts',(8.12625172379796,2.39609690737837,6.53367504800672));
#723=CARTESIAN_POINT('Ctrl Pts',(8.56608970172487,2.15730592146592,6.54591124664037));
#724=CARTESIAN_POINT('Ctrl Pts',(8.6373365171712,2.11386979946297,6.54720099353426));
#725=CARTESIAN_POINT('Ctrl Pts',(8.70609112391126,2.06710129196853,6.54720099353426));
#726=CARTESIAN_POINT('Ctrl Pts',(31.2939088760887,2.06710129196853,6.54720099353426));
#727=CARTESIAN_POINT('Ctrl Pts',(31.3626634828288,2.11386979946297,6.54720099353426));
#728=CARTESIAN_POINT('Ctrl Pts',(31.4339102982751,2.15730592146592,6.54591124664037));
#729=CARTESIAN_POINT('Ctrl Pts',(31.873748276202,2.39609690737837,6.53367504800672));
#730=CARTESIAN_POINT('Ctrl Pts',(32.2946084665438,2.5,6.510039124254));
#731=CARTESIAN_POINT('Ctrl Pts',(33.1053915334561,2.5,6.510039124254));
#732=CARTESIAN_POINT('Ctrl Pts',(33.526251723798,2.39609690737837,6.53367504800672));
#733=CARTESIAN_POINT('Ctrl Pts',(33.9660897017249,2.15730592146592,6.54591124664037));
#734=CARTESIAN_POINT('Ctrl Pts',(34.0373365171712,2.11386979946298,6.54720099353426));
#735=CARTESIAN_POINT('Ctrl Pts',(34.1060911239113,2.06710129196853,6.54720099353426));
#736=CARTESIAN_POINT('Origin',(32.7,0.,-3.08148791101958E-32));
#737=CARTESIAN_POINT('',(30.2,0.,-3.08148791101958E-32));
#738=CARTESIAN_POINT('',(30.2,0.,-3.08148791101958E-32));
#739=CARTESIAN_POINT('',(31.2939088760888,2.06710129196854,-2.01986330401058E-32));
#740=CARTESIAN_POINT('Origin',(32.7,0.,-3.08148791101958E-32));
#741=CARTESIAN_POINT('',(34.1060911239112,2.06710129196854,-2.01986330401058E-32));
#742=CARTESIAN_POINT('Ctrl Pts',(34.1060911239112,2.06710129196854,-2.01986330401058E-32));
#743=CARTESIAN_POINT('Ctrl Pts',(34.0373365171712,2.11386979946298,-2.01986330401058E-32));
#744=CARTESIAN_POINT('Ctrl Pts',(33.9660897017249,2.15730592146592,0.00128974689389156));
#745=CARTESIAN_POINT('Ctrl Pts',(33.5262517237979,2.39609690737838,0.0135259455275391));
#746=CARTESIAN_POINT('Ctrl Pts',(33.1053915334561,2.5,0.0371618692802583));
#747=CARTESIAN_POINT('Ctrl Pts',(32.7,2.5,0.0371618692802583));
#748=CARTESIAN_POINT('Ctrl Pts',(32.2946084665439,2.5,0.0371618692802583));
#749=CARTESIAN_POINT('Ctrl Pts',(31.873748276202,2.39609690737837,0.0135259455275383));
#750=CARTESIAN_POINT('Ctrl Pts',(31.4339102982751,2.15730592146592,0.00128974689389121));
#751=CARTESIAN_POINT('Ctrl Pts',(31.3626634828288,2.11386979946298,-2.01986330401058E-32));
#752=CARTESIAN_POINT('Ctrl Pts',(31.2939088760888,2.06710129196854,-2.01986330401058E-32));
#753=CARTESIAN_POINT('',(35.2,0.,-3.08148791101958E-32));
#754=CARTESIAN_POINT('Origin',(32.7,0.,-3.08148791101958E-32));
#755=CARTESIAN_POINT('',(35.2,0.,-3.08148791101958E-32));
#756=CARTESIAN_POINT('Origin',(7.3,0.,-3.08148791101958E-32));
#757=CARTESIAN_POINT('',(4.8,0.,-3.08148791101958E-32));
#758=CARTESIAN_POINT('',(4.8,0.,-3.08148791101958E-32));
#759=CARTESIAN_POINT('',(5.89390887608875,2.06710129196854,-2.01986330401058E-32));
#760=CARTESIAN_POINT('Origin',(7.3,0.,-3.08148791101958E-32));
#761=CARTESIAN_POINT('',(8.70609112391125,2.06710129196854,-2.01986330401058E-32));
#762=CARTESIAN_POINT('Ctrl Pts',(8.70609112391125,2.06710129196854,0.));
#763=CARTESIAN_POINT('Ctrl Pts',(8.6373365171712,2.11386979946298,0.));
#764=CARTESIAN_POINT('Ctrl Pts',(8.56608970172486,2.15730592146592,0.00128974689389163));
#765=CARTESIAN_POINT('Ctrl Pts',(8.12625172379796,2.39609690737837,0.0135259455275389));
#766=CARTESIAN_POINT('Ctrl Pts',(7.70539153345614,2.5,0.0371618692802583));
#767=CARTESIAN_POINT('Ctrl Pts',(7.3,2.5,0.0371618692802583));
#768=CARTESIAN_POINT('Ctrl Pts',(6.89460846654386,2.5,0.0371618692802583));
#769=CARTESIAN_POINT('Ctrl Pts',(6.47374827620204,2.39609690737838,0.0135259455275389));
#770=CARTESIAN_POINT('Ctrl Pts',(6.03391029827513,2.15730592146592,0.0012897468938917));
#771=CARTESIAN_POINT('Ctrl Pts',(5.9626634828288,2.11386979946298,0.));
#772=CARTESIAN_POINT('Ctrl Pts',(5.89390887608875,2.06710129196854,0.));
#773=CARTESIAN_POINT('',(9.8,0.,-3.08148791101958E-32));
#774=CARTESIAN_POINT('Origin',(7.3,0.,-3.08148791101958E-32));
#775=CARTESIAN_POINT('',(9.8,0.,-3.08148791101958E-32));
#776=CARTESIAN_POINT('Origin',(0.,2.06710129196854,2.54));
#777=CARTESIAN_POINT('',(0.,2.06710129196854,0.));
#778=CARTESIAN_POINT('',(40.,4.60710129196854,2.54));
#779=CARTESIAN_POINT('',(0.,4.60710129196854,2.54));
#780=CARTESIAN_POINT('',(40.,2.06710129196854,1.061624607009E-32));
#781=CARTESIAN_POINT('Origin',(40.,2.06710129196854,2.54));
#782=CARTESIAN_POINT('',(0.,2.06710129196854,0.));
#783=CARTESIAN_POINT('',(0.,2.06710129196854,0.));
#784=CARTESIAN_POINT('Origin',(40.,-23.9956105962386,2.52360049676596));
#785=CARTESIAN_POINT('',(40.,-27.3928987080315,4.54720099353424));
#786=CARTESIAN_POINT('',(40.,-27.3928987080315,4.54720099353424));
#787=CARTESIAN_POINT('',(40.,-20.8243267017077,2.39754267140668));
#788=CARTESIAN_POINT('Origin',(40.,-23.9359389060246,4.));
#789=CARTESIAN_POINT('',(40.,-19.7273829525143,2.91784532111412));
#790=CARTESIAN_POINT('Origin',(40.,-19.9352946433321,1.93969772038032));
#791=CARTESIAN_POINT('',(40.,-6.10280745555208,0.0218523992661937));
#792=CARTESIAN_POINT('',(40.,-6.,-3.08148791101958E-32));
#793=CARTESIAN_POINT('',(40.,-5.89489576473432,-3.02750833929155E-32));
#794=CARTESIAN_POINT('Origin',(40.,-5.89489576473432,1.));
#795=CARTESIAN_POINT('',(40.,0.,0.));
#796=CARTESIAN_POINT('',(40.,4.60710129196853,6.54720099353426));
#797=CARTESIAN_POINT('Origin',(0.,4.60710129196854,1.11022302462516E-15));
#798=CARTESIAN_POINT('Origin',(0.,-5.89489576473432,1.));
#799=CARTESIAN_POINT('',(0.,-6.10280745555208,0.0218523992661933));
#800=CARTESIAN_POINT('',(0.,-5.89489576473432,0.));
#801=CARTESIAN_POINT('Origin',(0.,-6.,-3.08148791101958E-32));
#802=CARTESIAN_POINT('',(4.8,-3.,-3.08148791101958E-32));
#803=CARTESIAN_POINT('',(4.8,-3.,-1.54074395550979E-32));
#804=CARTESIAN_POINT('',(9.8,-3.,-3.08148791101958E-32));
#805=CARTESIAN_POINT('Origin',(7.3,-3.,-3.08148791101958E-32));
#806=CARTESIAN_POINT('',(9.8,-4.5,-2.31111593326468E-32));
#807=CARTESIAN_POINT('',(30.2,-3.,-3.08148791101958E-32));
#808=CARTESIAN_POINT('',(30.2,-3.,-1.54074395550979E-32));
#809=CARTESIAN_POINT('',(35.2,-3.,-3.08148791101958E-32));
#810=CARTESIAN_POINT('Origin',(32.7,-3.,-3.08148791101958E-32));
#811=CARTESIAN_POINT('',(35.2,-4.5,-2.31111593326468E-32));
#812=CARTESIAN_POINT('Origin',(0.,-19.9352946433321,1.93969772038032));
#813=CARTESIAN_POINT('',(0.,-19.7273829525143,2.91784532111412));
#814=CARTESIAN_POINT('',(0.,-20.8243267017077,2.39754267140668));
#815=CARTESIAN_POINT('Origin',(0.,-20.5552822864503,3.09382075694446));
#816=CARTESIAN_POINT('Origin',(35.2,-3.,-3.08148791101958E-32));
#817=CARTESIAN_POINT('',(35.2,-3.,-3.08148791101958E-32));
#818=CARTESIAN_POINT('Origin',(32.7,-3.,-3.08148791101958E-32));
#819=CARTESIAN_POINT('',(30.2,-3.,-3.08148791101958E-32));
#820=CARTESIAN_POINT('Origin',(30.2,0.,-3.08148791101958E-32));
#821=CARTESIAN_POINT('Origin',(9.8,-3.,-3.08148791101958E-32));
#822=CARTESIAN_POINT('',(9.8,-3.,-3.08148791101958E-32));
#823=CARTESIAN_POINT('Origin',(7.3,-3.,-3.08148791101958E-32));
#824=CARTESIAN_POINT('',(4.8,-3.,-3.08148791101958E-32));
#825=CARTESIAN_POINT('Origin',(4.8,0.,-3.08148791101958E-32));
#826=CARTESIAN_POINT('Origin',(0.,-27.3928987080315,6.54720099353424));
#827=CARTESIAN_POINT('',(0.,-27.3928987080315,4.54720099353424));
#828=CARTESIAN_POINT('Origin',(0.,-23.9359389060246,4.));
#829=UNCERTAINTY_MEASURE_WITH_UNIT(LENGTH_MEASURE(0.01),#833,
'DISTANCE_ACCURACY_VALUE',
'Maximum model space distance between geometric entities at asserted c
onnectivities');
#830=UNCERTAINTY_MEASURE_WITH_UNIT(LENGTH_MEASURE(0.01),#833,
'DISTANCE_ACCURACY_VALUE',
'Maximum model space distance between geometric entities at asserted c
onnectivities');
#831=(
GEOMETRIC_REPRESENTATION_CONTEXT(3)
GLOBAL_UNCERTAINTY_ASSIGNED_CONTEXT((#829))
GLOBAL_UNIT_ASSIGNED_CONTEXT((#833,#835,#836))
REPRESENTATION_CONTEXT('','3D')
);
#832=(
GEOMETRIC_REPRESENTATION_CONTEXT(3)
GLOBAL_UNCERTAINTY_ASSIGNED_CONTEXT((#830))
GLOBAL_UNIT_ASSIGNED_CONTEXT((#833,#835,#836))
REPRESENTATION_CONTEXT('','3D')
);
#833=(
LENGTH_UNIT()
NAMED_UNIT(*)
SI_UNIT(.MILLI.,.METRE.)
);
#834=(
LENGTH_UNIT()
NAMED_UNIT(*)
SI_UNIT($,.METRE.)
);
#835=(
NAMED_UNIT(*)
PLANE_ANGLE_UNIT()
SI_UNIT($,.RADIAN.)
);
#836=(
NAMED_UNIT(*)
SI_UNIT($,.STERADIAN.)
SOLID_ANGLE_UNIT()
);
#837=SHAPE_DEFINITION_REPRESENTATION(#838,#839);
#838=PRODUCT_DEFINITION_SHAPE('',$,#841);
#839=SHAPE_REPRESENTATION('',(#475),#831);
#840=PRODUCT_DEFINITION_CONTEXT('part definition',#845,'design');
#841=PRODUCT_DEFINITION('Slide_Holder','Slide_Holder v28',#842,#840);
#842=PRODUCT_DEFINITION_FORMATION('',$,#847);
#843=PRODUCT_RELATED_PRODUCT_CATEGORY('Slide_Holder v28',
'Slide_Holder v28',(#847));
#844=APPLICATION_PROTOCOL_DEFINITION('international standard',
'automotive_design',2009,#845);
#845=APPLICATION_CONTEXT(
'Core Data for Automotive Mechanical Design Process');
#846=PRODUCT_CONTEXT('part definition',#845,'mechanical');
#847=PRODUCT('Slide_Holder','Slide_Holder v28',$,(#846));
#848=PRESENTATION_STYLE_ASSIGNMENT((#850));
#849=PRESENTATION_STYLE_ASSIGNMENT((#851));
#850=SURFACE_STYLE_USAGE(.BOTH.,#852);
#851=SURFACE_STYLE_USAGE(.BOTH.,#853);
#852=SURFACE_SIDE_STYLE('',(#854));
#853=SURFACE_SIDE_STYLE('',(#855));
#854=SURFACE_STYLE_FILL_AREA(#856);
#855=SURFACE_STYLE_FILL_AREA(#857);
#856=FILL_AREA_STYLE('Steel - Satin',(#858));
#857=FILL_AREA_STYLE('PEEK',(#859));
#858=FILL_AREA_STYLE_COLOUR('Steel - Satin',#860);
#859=FILL_AREA_STYLE_COLOUR('PEEK',#861);
#860=COLOUR_RGB('Steel - Satin',0.627450980392157,0.627450980392157,0.627450980392157);
#861=COLOUR_RGB('PEEK',0.6,0.509803921568627,0.368627450980392);
ENDSEC;
END-ISO-10303-21;
