ISO-10303-21;
HEADER;
/* Generated by software containing ST-Developer
 * from STEP Tools, Inc. (www.steptools.com) 
 */

FILE_DESCRIPTION(
/* description */ (''),
/* implementation_level */ '2;1');

FILE_NAME(
/* name */ 'XY_Mount.step',
/* time_stamp */ '2026-03-30T14:35:05-07:00',
/* author */ (''),
/* organization */ (''),
/* preprocessor_version */ 'ST-DEVELOPER v20.1',
/* originating_system */ 'Autodesk Translation Framework v14.24.0.0',
/* authorisation */ '');

FILE_SCHEMA (('AUTOMOTIVE_DESIGN { 1 0 10303 214 3 1 1 }'));
ENDSEC;

DATA;
#10=MECHANICAL_DESIGN_GEOMETRIC_PRESENTATION_REPRESENTATION('',(#13),#1647);
#11=SHAPE_REPRESENTATION_RELATIONSHIP('SRR','None',#1657,#12);
#12=ADVANCED_BREP_SHAPE_REPRESENTATION('',(#14),#1646);
#13=STYLED_ITEM('',(#1667),#14);
#14=MANIFOLD_SOLID_BREP('Body1',#963);
#15=FACE_BOUND('',#195,.T.);
#16=FACE_BOUND('',#196,.T.);
#17=FACE_BOUND('',#197,.T.);
#18=FACE_BOUND('',#198,.T.);
#19=FACE_BOUND('',#199,.T.);
#20=FACE_BOUND('',#200,.T.);
#21=FACE_BOUND('',#201,.T.);
#22=FACE_BOUND('',#202,.T.);
#23=FACE_BOUND('',#203,.T.);
#24=FACE_BOUND('',#204,.T.);
#25=FACE_BOUND('',#205,.T.);
#26=FACE_BOUND('',#206,.T.);
#27=FACE_BOUND('',#226,.T.);
#28=FACE_BOUND('',#230,.T.);
#29=FACE_BOUND('',#234,.T.);
#30=FACE_BOUND('',#238,.T.);
#31=FACE_BOUND('',#243,.T.);
#32=FACE_BOUND('',#244,.T.);
#33=FACE_BOUND('',#245,.T.);
#34=FACE_BOUND('',#246,.T.);
#35=FACE_BOUND('',#247,.T.);
#36=FACE_BOUND('',#248,.T.);
#37=FACE_BOUND('',#249,.T.);
#38=FACE_BOUND('',#250,.T.);
#39=FACE_BOUND('',#251,.T.);
#40=FACE_BOUND('',#252,.T.);
#41=FACE_BOUND('',#253,.T.);
#42=FACE_BOUND('',#254,.T.);
#43=CIRCLE('',#979,0.133);
#44=CIRCLE('',#980,0.133);
#45=CIRCLE('',#983,0.133);
#46=CIRCLE('',#984,0.133);
#47=CIRCLE('',#987,0.133);
#48=CIRCLE('',#988,0.133);
#49=CIRCLE('',#991,0.133);
#50=CIRCLE('',#992,0.133);
#51=CIRCLE('',#995,0.133);
#52=CIRCLE('',#996,0.133);
#53=CIRCLE('',#999,0.133);
#54=CIRCLE('',#1000,0.133);
#55=CIRCLE('',#1003,0.133);
#56=CIRCLE('',#1004,0.133);
#57=CIRCLE('',#1007,0.133);
#58=CIRCLE('',#1008,0.133);
#59=CIRCLE('',#1010,0.25);
#60=CIRCLE('',#1011,0.25);
#61=CIRCLE('',#1013,0.25);
#62=CIRCLE('',#1014,0.25);
#63=CIRCLE('',#1015,0.25);
#64=CIRCLE('',#1016,0.25);
#65=CIRCLE('',#1017,0.25);
#66=CIRCLE('',#1018,0.25);
#67=CIRCLE('',#1019,0.25);
#68=CIRCLE('',#1020,0.10075);
#69=CIRCLE('',#1021,0.10075);
#70=CIRCLE('',#1022,0.10075);
#71=CIRCLE('',#1023,0.10075);
#72=CIRCLE('',#1024,0.1105);
#73=CIRCLE('',#1025,0.1105);
#74=CIRCLE('',#1026,0.1105);
#75=CIRCLE('',#1027,0.1105);
#76=CIRCLE('',#1030,0.25);
#77=CIRCLE('',#1032,0.25);
#78=CIRCLE('',#1035,0.25);
#79=CIRCLE('',#1037,0.25);
#80=CIRCLE('',#1040,0.25);
#81=CIRCLE('',#1042,0.25);
#82=CIRCLE('',#1045,0.25);
#83=CIRCLE('',#1050,0.10075);
#84=CIRCLE('',#1052,0.10075);
#85=CIRCLE('',#1054,0.10075);
#86=CIRCLE('',#1056,0.10075);
#87=CIRCLE('',#1058,0.1875);
#88=CIRCLE('',#1059,0.1105);
#89=CIRCLE('',#1061,0.1875);
#90=CIRCLE('',#1064,0.1875);
#91=CIRCLE('',#1065,0.1105);
#92=CIRCLE('',#1067,0.1875);
#93=CIRCLE('',#1070,0.1875);
#94=CIRCLE('',#1071,0.1105);
#95=CIRCLE('',#1073,0.1875);
#96=CIRCLE('',#1076,0.1875);
#97=CIRCLE('',#1077,0.1105);
#98=CIRCLE('',#1079,0.1875);
#99=CYLINDRICAL_SURFACE('',#978,0.133);
#100=CYLINDRICAL_SURFACE('',#982,0.133);
#101=CYLINDRICAL_SURFACE('',#986,0.133);
#102=CYLINDRICAL_SURFACE('',#990,0.133);
#103=CYLINDRICAL_SURFACE('',#994,0.133);
#104=CYLINDRICAL_SURFACE('',#998,0.133);
#105=CYLINDRICAL_SURFACE('',#1002,0.133);
#106=CYLINDRICAL_SURFACE('',#1006,0.133);
#107=CYLINDRICAL_SURFACE('',#1009,0.25);
#108=CYLINDRICAL_SURFACE('',#1029,0.25);
#109=CYLINDRICAL_SURFACE('',#1031,0.25);
#110=CYLINDRICAL_SURFACE('',#1034,0.25);
#111=CYLINDRICAL_SURFACE('',#1036,0.25);
#112=CYLINDRICAL_SURFACE('',#1039,0.25);
#113=CYLINDRICAL_SURFACE('',#1041,0.25);
#114=CYLINDRICAL_SURFACE('',#1044,0.25);
#115=CYLINDRICAL_SURFACE('',#1049,0.10075);
#116=CYLINDRICAL_SURFACE('',#1051,0.10075);
#117=CYLINDRICAL_SURFACE('',#1053,0.10075);
#118=CYLINDRICAL_SURFACE('',#1055,0.10075);
#119=CYLINDRICAL_SURFACE('',#1060,0.1875);
#120=CYLINDRICAL_SURFACE('',#1062,0.1105);
#121=CYLINDRICAL_SURFACE('',#1066,0.1875);
#122=CYLINDRICAL_SURFACE('',#1068,0.1105);
#123=CYLINDRICAL_SURFACE('',#1072,0.1875);
#124=CYLINDRICAL_SURFACE('',#1074,0.1105);
#125=CYLINDRICAL_SURFACE('',#1078,0.1875);
#126=CYLINDRICAL_SURFACE('',#1080,0.1105);
#127=FACE_OUTER_BOUND('',#177,.T.);
#128=FACE_OUTER_BOUND('',#178,.T.);
#129=FACE_OUTER_BOUND('',#179,.T.);
#130=FACE_OUTER_BOUND('',#180,.T.);
#131=FACE_OUTER_BOUND('',#181,.T.);
#132=FACE_OUTER_BOUND('',#182,.T.);
#133=FACE_OUTER_BOUND('',#183,.T.);
#134=FACE_OUTER_BOUND('',#184,.T.);
#135=FACE_OUTER_BOUND('',#185,.T.);
#136=FACE_OUTER_BOUND('',#186,.T.);
#137=FACE_OUTER_BOUND('',#187,.T.);
#138=FACE_OUTER_BOUND('',#188,.T.);
#139=FACE_OUTER_BOUND('',#189,.T.);
#140=FACE_OUTER_BOUND('',#190,.T.);
#141=FACE_OUTER_BOUND('',#191,.T.);
#142=FACE_OUTER_BOUND('',#192,.T.);
#143=FACE_OUTER_BOUND('',#193,.T.);
#144=FACE_OUTER_BOUND('',#194,.T.);
#145=FACE_OUTER_BOUND('',#207,.T.);
#146=FACE_OUTER_BOUND('',#208,.T.);
#147=FACE_OUTER_BOUND('',#209,.T.);
#148=FACE_OUTER_BOUND('',#210,.T.);
#149=FACE_OUTER_BOUND('',#211,.T.);
#150=FACE_OUTER_BOUND('',#212,.T.);
#151=FACE_OUTER_BOUND('',#213,.T.);
#152=FACE_OUTER_BOUND('',#214,.T.);
#153=FACE_OUTER_BOUND('',#215,.T.);
#154=FACE_OUTER_BOUND('',#216,.T.);
#155=FACE_OUTER_BOUND('',#217,.T.);
#156=FACE_OUTER_BOUND('',#218,.T.);
#157=FACE_OUTER_BOUND('',#219,.T.);
#158=FACE_OUTER_BOUND('',#220,.T.);
#159=FACE_OUTER_BOUND('',#221,.T.);
#160=FACE_OUTER_BOUND('',#222,.T.);
#161=FACE_OUTER_BOUND('',#223,.T.);
#162=FACE_OUTER_BOUND('',#224,.T.);
#163=FACE_OUTER_BOUND('',#225,.T.);
#164=FACE_OUTER_BOUND('',#227,.T.);
#165=FACE_OUTER_BOUND('',#228,.T.);
#166=FACE_OUTER_BOUND('',#229,.T.);
#167=FACE_OUTER_BOUND('',#231,.T.);
#168=FACE_OUTER_BOUND('',#232,.T.);
#169=FACE_OUTER_BOUND('',#233,.T.);
#170=FACE_OUTER_BOUND('',#235,.T.);
#171=FACE_OUTER_BOUND('',#236,.T.);
#172=FACE_OUTER_BOUND('',#237,.T.);
#173=FACE_OUTER_BOUND('',#239,.T.);
#174=FACE_OUTER_BOUND('',#240,.T.);
#175=FACE_OUTER_BOUND('',#241,.T.);
#176=FACE_OUTER_BOUND('',#242,.T.);
#177=EDGE_LOOP('',(#627,#628,#629,#630));
#178=EDGE_LOOP('',(#631,#632,#633,#634));
#179=EDGE_LOOP('',(#635,#636,#637,#638));
#180=EDGE_LOOP('',(#639,#640,#641,#642));
#181=EDGE_LOOP('',(#643,#644,#645,#646));
#182=EDGE_LOOP('',(#647,#648,#649,#650));
#183=EDGE_LOOP('',(#651,#652,#653,#654));
#184=EDGE_LOOP('',(#655,#656,#657,#658));
#185=EDGE_LOOP('',(#659,#660,#661,#662));
#186=EDGE_LOOP('',(#663,#664,#665,#666));
#187=EDGE_LOOP('',(#667,#668,#669,#670));
#188=EDGE_LOOP('',(#671,#672,#673,#674));
#189=EDGE_LOOP('',(#675,#676,#677,#678));
#190=EDGE_LOOP('',(#679,#680,#681,#682));
#191=EDGE_LOOP('',(#683,#684,#685,#686));
#192=EDGE_LOOP('',(#687,#688,#689,#690));
#193=EDGE_LOOP('',(#691,#692,#693,#694));
#194=EDGE_LOOP('',(#695,#696,#697,#698,#699,#700,#701,#702,#703,#704,#705,
#706,#707,#708,#709,#710));
#195=EDGE_LOOP('',(#711,#712,#713,#714));
#196=EDGE_LOOP('',(#715,#716,#717,#718));
#197=EDGE_LOOP('',(#719,#720,#721,#722));
#198=EDGE_LOOP('',(#723,#724,#725,#726));
#199=EDGE_LOOP('',(#727));
#200=EDGE_LOOP('',(#728));
#201=EDGE_LOOP('',(#729));
#202=EDGE_LOOP('',(#730));
#203=EDGE_LOOP('',(#731));
#204=EDGE_LOOP('',(#732));
#205=EDGE_LOOP('',(#733));
#206=EDGE_LOOP('',(#734));
#207=EDGE_LOOP('',(#735,#736,#737,#738));
#208=EDGE_LOOP('',(#739,#740,#741,#742));
#209=EDGE_LOOP('',(#743,#744,#745,#746));
#210=EDGE_LOOP('',(#747,#748,#749,#750));
#211=EDGE_LOOP('',(#751,#752,#753,#754));
#212=EDGE_LOOP('',(#755,#756,#757,#758));
#213=EDGE_LOOP('',(#759,#760,#761,#762));
#214=EDGE_LOOP('',(#763,#764,#765,#766));
#215=EDGE_LOOP('',(#767,#768,#769,#770));
#216=EDGE_LOOP('',(#771,#772,#773,#774));
#217=EDGE_LOOP('',(#775,#776,#777,#778));
#218=EDGE_LOOP('',(#779,#780,#781,#782));
#219=EDGE_LOOP('',(#783,#784,#785,#786));
#220=EDGE_LOOP('',(#787,#788,#789,#790));
#221=EDGE_LOOP('',(#791,#792,#793,#794));
#222=EDGE_LOOP('',(#795,#796,#797,#798));
#223=EDGE_LOOP('',(#799,#800,#801,#802));
#224=EDGE_LOOP('',(#803,#804,#805,#806));
#225=EDGE_LOOP('',(#807));
#226=EDGE_LOOP('',(#808));
#227=EDGE_LOOP('',(#809,#810,#811,#812));
#228=EDGE_LOOP('',(#813,#814,#815,#816));
#229=EDGE_LOOP('',(#817));
#230=EDGE_LOOP('',(#818));
#231=EDGE_LOOP('',(#819,#820,#821,#822));
#232=EDGE_LOOP('',(#823,#824,#825,#826));
#233=EDGE_LOOP('',(#827));
#234=EDGE_LOOP('',(#828));
#235=EDGE_LOOP('',(#829,#830,#831,#832));
#236=EDGE_LOOP('',(#833,#834,#835,#836));
#237=EDGE_LOOP('',(#837));
#238=EDGE_LOOP('',(#838));
#239=EDGE_LOOP('',(#839,#840,#841,#842));
#240=EDGE_LOOP('',(#843,#844,#845,#846));
#241=EDGE_LOOP('',(#847,#848,#849,#850));
#242=EDGE_LOOP('',(#851,#852,#853,#854,#855,#856,#857,#858,#859,#860,#861,
#862,#863,#864,#865,#866));
#243=EDGE_LOOP('',(#867,#868,#869,#870));
#244=EDGE_LOOP('',(#871,#872,#873,#874));
#245=EDGE_LOOP('',(#875,#876,#877,#878));
#246=EDGE_LOOP('',(#879,#880,#881,#882));
#247=EDGE_LOOP('',(#883));
#248=EDGE_LOOP('',(#884));
#249=EDGE_LOOP('',(#885));
#250=EDGE_LOOP('',(#886));
#251=EDGE_LOOP('',(#887));
#252=EDGE_LOOP('',(#888));
#253=EDGE_LOOP('',(#889));
#254=EDGE_LOOP('',(#890));
#255=LINE('',#1377,#331);
#256=LINE('',#1379,#332);
#257=LINE('',#1381,#333);
#258=LINE('',#1382,#334);
#259=LINE('',#1388,#335);
#260=LINE('',#1391,#336);
#261=LINE('',#1393,#337);
#262=LINE('',#1394,#338);
#263=LINE('',#1401,#339);
#264=LINE('',#1403,#340);
#265=LINE('',#1405,#341);
#266=LINE('',#1406,#342);
#267=LINE('',#1412,#343);
#268=LINE('',#1415,#344);
#269=LINE('',#1417,#345);
#270=LINE('',#1418,#346);
#271=LINE('',#1425,#347);
#272=LINE('',#1427,#348);
#273=LINE('',#1429,#349);
#274=LINE('',#1430,#350);
#275=LINE('',#1436,#351);
#276=LINE('',#1439,#352);
#277=LINE('',#1441,#353);
#278=LINE('',#1442,#354);
#279=LINE('',#1449,#355);
#280=LINE('',#1451,#356);
#281=LINE('',#1453,#357);
#282=LINE('',#1454,#358);
#283=LINE('',#1460,#359);
#284=LINE('',#1463,#360);
#285=LINE('',#1465,#361);
#286=LINE('',#1466,#362);
#287=LINE('',#1475,#363);
#288=LINE('',#1478,#364);
#289=LINE('',#1481,#365);
#290=LINE('',#1485,#366);
#291=LINE('',#1489,#367);
#292=LINE('',#1493,#368);
#293=LINE('',#1497,#369);
#294=LINE('',#1501,#370);
#295=LINE('',#1505,#371);
#296=LINE('',#1508,#372);
#297=LINE('',#1527,#373);
#298=LINE('',#1528,#374);
#299=LINE('',#1532,#375);
#300=LINE('',#1537,#376);
#301=LINE('',#1538,#377);
#302=LINE('',#1541,#378);
#303=LINE('',#1542,#379);
#304=LINE('',#1546,#380);
#305=LINE('',#1551,#381);
#306=LINE('',#1552,#382);
#307=LINE('',#1555,#383);
#308=LINE('',#1556,#384);
#309=LINE('',#1560,#385);
#310=LINE('',#1565,#386);
#311=LINE('',#1566,#387);
#312=LINE('',#1569,#388);
#313=LINE('',#1570,#389);
#314=LINE('',#1574,#390);
#315=LINE('',#1576,#391);
#316=LINE('',#1578,#392);
#317=LINE('',#1580,#393);
#318=LINE('',#1584,#394);
#319=LINE('',#1588,#395);
#320=LINE('',#1592,#396);
#321=LINE('',#1596,#397);
#322=LINE('',#1605,#398);
#323=LINE('',#1607,#399);
#324=LINE('',#1616,#400);
#325=LINE('',#1618,#401);
#326=LINE('',#1627,#402);
#327=LINE('',#1629,#403);
#328=LINE('',#1638,#404);
#329=LINE('',#1640,#405);
#330=LINE('',#1642,#406);
#331=VECTOR('',#1087,0.393700787401575);
#332=VECTOR('',#1088,0.393700787401575);
#333=VECTOR('',#1089,0.393700787401575);
#334=VECTOR('',#1090,0.393700787401575);
#335=VECTOR('',#1097,0.393700787401575);
#336=VECTOR('',#1100,0.393700787401575);
#337=VECTOR('',#1101,0.393700787401575);
#338=VECTOR('',#1102,0.393700787401575);
#339=VECTOR('',#1111,0.393700787401575);
#340=VECTOR('',#1112,0.393700787401575);
#341=VECTOR('',#1113,0.393700787401575);
#342=VECTOR('',#1114,0.393700787401575);
#343=VECTOR('',#1121,0.393700787401575);
#344=VECTOR('',#1124,0.393700787401575);
#345=VECTOR('',#1125,0.393700787401575);
#346=VECTOR('',#1126,0.393700787401575);
#347=VECTOR('',#1135,0.393700787401575);
#348=VECTOR('',#1136,0.393700787401575);
#349=VECTOR('',#1137,0.393700787401575);
#350=VECTOR('',#1138,0.393700787401575);
#351=VECTOR('',#1145,0.393700787401575);
#352=VECTOR('',#1148,0.393700787401575);
#353=VECTOR('',#1149,0.393700787401575);
#354=VECTOR('',#1150,0.393700787401575);
#355=VECTOR('',#1159,0.393700787401575);
#356=VECTOR('',#1160,0.393700787401575);
#357=VECTOR('',#1161,0.393700787401575);
#358=VECTOR('',#1162,0.393700787401575);
#359=VECTOR('',#1169,0.393700787401575);
#360=VECTOR('',#1172,0.393700787401575);
#361=VECTOR('',#1173,0.393700787401575);
#362=VECTOR('',#1174,0.393700787401575);
#363=VECTOR('',#1185,0.393700787401575);
#364=VECTOR('',#1188,0.393700787401575);
#365=VECTOR('',#1191,0.393700787401575);
#366=VECTOR('',#1194,0.393700787401575);
#367=VECTOR('',#1197,0.393700787401575);
#368=VECTOR('',#1200,0.393700787401575);
#369=VECTOR('',#1203,0.393700787401575);
#370=VECTOR('',#1206,0.393700787401575);
#371=VECTOR('',#1209,0.393700787401575);
#372=VECTOR('',#1212,0.393700787401575);
#373=VECTOR('',#1231,0.393700787401575);
#374=VECTOR('',#1232,0.393700787401575);
#375=VECTOR('',#1237,0.393700787401575);
#376=VECTOR('',#1242,0.393700787401575);
#377=VECTOR('',#1243,0.393700787401575);
#378=VECTOR('',#1246,0.393700787401575);
#379=VECTOR('',#1247,0.393700787401575);
#380=VECTOR('',#1252,0.393700787401575);
#381=VECTOR('',#1257,0.393700787401575);
#382=VECTOR('',#1258,0.393700787401575);
#383=VECTOR('',#1261,0.393700787401575);
#384=VECTOR('',#1262,0.393700787401575);
#385=VECTOR('',#1267,0.393700787401575);
#386=VECTOR('',#1272,0.393700787401575);
#387=VECTOR('',#1273,0.393700787401575);
#388=VECTOR('',#1276,0.393700787401575);
#389=VECTOR('',#1277,0.393700787401575);
#390=VECTOR('',#1282,0.393700787401575);
#391=VECTOR('',#1285,0.393700787401575);
#392=VECTOR('',#1288,0.393700787401575);
#393=VECTOR('',#1291,0.393700787401575);
#394=VECTOR('',#1296,0.100748031496063);
#395=VECTOR('',#1301,0.100748031496063);
#396=VECTOR('',#1306,0.100748031496063);
#397=VECTOR('',#1311,0.100748031496063);
#398=VECTOR('',#1322,0.1875);
#399=VECTOR('',#1325,0.1105);
#400=VECTOR('',#1336,0.1875);
#401=VECTOR('',#1339,0.1105);
#402=VECTOR('',#1350,0.1875);
#403=VECTOR('',#1353,0.1105);
#404=VECTOR('',#1364,0.1875);
#405=VECTOR('',#1367,0.1105);
#406=VECTOR('',#1370,0.393700787401575);
#407=VERTEX_POINT('',#1375);
#408=VERTEX_POINT('',#1376);
#409=VERTEX_POINT('',#1378);
#410=VERTEX_POINT('',#1380);
#411=VERTEX_POINT('',#1384);
#412=VERTEX_POINT('',#1386);
#413=VERTEX_POINT('',#1390);
#414=VERTEX_POINT('',#1392);
#415=VERTEX_POINT('',#1399);
#416=VERTEX_POINT('',#1400);
#417=VERTEX_POINT('',#1402);
#418=VERTEX_POINT('',#1404);
#419=VERTEX_POINT('',#1408);
#420=VERTEX_POINT('',#1410);
#421=VERTEX_POINT('',#1414);
#422=VERTEX_POINT('',#1416);
#423=VERTEX_POINT('',#1423);
#424=VERTEX_POINT('',#1424);
#425=VERTEX_POINT('',#1426);
#426=VERTEX_POINT('',#1428);
#427=VERTEX_POINT('',#1432);
#428=VERTEX_POINT('',#1434);
#429=VERTEX_POINT('',#1438);
#430=VERTEX_POINT('',#1440);
#431=VERTEX_POINT('',#1447);
#432=VERTEX_POINT('',#1448);
#433=VERTEX_POINT('',#1450);
#434=VERTEX_POINT('',#1452);
#435=VERTEX_POINT('',#1456);
#436=VERTEX_POINT('',#1458);
#437=VERTEX_POINT('',#1462);
#438=VERTEX_POINT('',#1464);
#439=VERTEX_POINT('',#1471);
#440=VERTEX_POINT('',#1472);
#441=VERTEX_POINT('',#1474);
#442=VERTEX_POINT('',#1476);
#443=VERTEX_POINT('',#1480);
#444=VERTEX_POINT('',#1482);
#445=VERTEX_POINT('',#1484);
#446=VERTEX_POINT('',#1486);
#447=VERTEX_POINT('',#1488);
#448=VERTEX_POINT('',#1490);
#449=VERTEX_POINT('',#1492);
#450=VERTEX_POINT('',#1494);
#451=VERTEX_POINT('',#1496);
#452=VERTEX_POINT('',#1498);
#453=VERTEX_POINT('',#1500);
#454=VERTEX_POINT('',#1502);
#455=VERTEX_POINT('',#1504);
#456=VERTEX_POINT('',#1506);
#457=VERTEX_POINT('',#1509);
#458=VERTEX_POINT('',#1511);
#459=VERTEX_POINT('',#1513);
#460=VERTEX_POINT('',#1515);
#461=VERTEX_POINT('',#1517);
#462=VERTEX_POINT('',#1519);
#463=VERTEX_POINT('',#1521);
#464=VERTEX_POINT('',#1523);
#465=VERTEX_POINT('',#1526);
#466=VERTEX_POINT('',#1530);
#467=VERTEX_POINT('',#1534);
#468=VERTEX_POINT('',#1535);
#469=VERTEX_POINT('',#1540);
#470=VERTEX_POINT('',#1544);
#471=VERTEX_POINT('',#1548);
#472=VERTEX_POINT('',#1549);
#473=VERTEX_POINT('',#1554);
#474=VERTEX_POINT('',#1558);
#475=VERTEX_POINT('',#1562);
#476=VERTEX_POINT('',#1563);
#477=VERTEX_POINT('',#1568);
#478=VERTEX_POINT('',#1572);
#479=VERTEX_POINT('',#1582);
#480=VERTEX_POINT('',#1586);
#481=VERTEX_POINT('',#1590);
#482=VERTEX_POINT('',#1594);
#483=VERTEX_POINT('',#1598);
#484=VERTEX_POINT('',#1600);
#485=VERTEX_POINT('',#1603);
#486=VERTEX_POINT('',#1609);
#487=VERTEX_POINT('',#1611);
#488=VERTEX_POINT('',#1614);
#489=VERTEX_POINT('',#1620);
#490=VERTEX_POINT('',#1622);
#491=VERTEX_POINT('',#1625);
#492=VERTEX_POINT('',#1631);
#493=VERTEX_POINT('',#1633);
#494=VERTEX_POINT('',#1636);
#495=EDGE_CURVE('',#407,#408,#255,.T.);
#496=EDGE_CURVE('',#409,#407,#256,.T.);
#497=EDGE_CURVE('',#410,#409,#257,.T.);
#498=EDGE_CURVE('',#410,#408,#258,.T.);
#499=EDGE_CURVE('',#408,#411,#43,.T.);
#500=EDGE_CURVE('',#412,#410,#44,.T.);
#501=EDGE_CURVE('',#412,#411,#259,.T.);
#502=EDGE_CURVE('',#411,#413,#260,.T.);
#503=EDGE_CURVE('',#414,#412,#261,.T.);
#504=EDGE_CURVE('',#414,#413,#262,.T.);
#505=EDGE_CURVE('',#413,#407,#45,.T.);
#506=EDGE_CURVE('',#409,#414,#46,.T.);
#507=EDGE_CURVE('',#415,#416,#263,.T.);
#508=EDGE_CURVE('',#417,#415,#264,.T.);
#509=EDGE_CURVE('',#418,#417,#265,.T.);
#510=EDGE_CURVE('',#418,#416,#266,.T.);
#511=EDGE_CURVE('',#416,#419,#47,.T.);
#512=EDGE_CURVE('',#420,#418,#48,.T.);
#513=EDGE_CURVE('',#420,#419,#267,.T.);
#514=EDGE_CURVE('',#419,#421,#268,.T.);
#515=EDGE_CURVE('',#422,#420,#269,.T.);
#516=EDGE_CURVE('',#422,#421,#270,.T.);
#517=EDGE_CURVE('',#421,#415,#49,.T.);
#518=EDGE_CURVE('',#417,#422,#50,.T.);
#519=EDGE_CURVE('',#423,#424,#271,.T.);
#520=EDGE_CURVE('',#425,#423,#272,.T.);
#521=EDGE_CURVE('',#426,#425,#273,.T.);
#522=EDGE_CURVE('',#426,#424,#274,.T.);
#523=EDGE_CURVE('',#424,#427,#51,.T.);
#524=EDGE_CURVE('',#428,#426,#52,.T.);
#525=EDGE_CURVE('',#428,#427,#275,.T.);
#526=EDGE_CURVE('',#427,#429,#276,.T.);
#527=EDGE_CURVE('',#430,#428,#277,.T.);
#528=EDGE_CURVE('',#430,#429,#278,.T.);
#529=EDGE_CURVE('',#429,#423,#53,.T.);
#530=EDGE_CURVE('',#425,#430,#54,.T.);
#531=EDGE_CURVE('',#431,#432,#279,.T.);
#532=EDGE_CURVE('',#433,#431,#280,.T.);
#533=EDGE_CURVE('',#434,#433,#281,.T.);
#534=EDGE_CURVE('',#434,#432,#282,.T.);
#535=EDGE_CURVE('',#432,#435,#55,.T.);
#536=EDGE_CURVE('',#436,#434,#56,.T.);
#537=EDGE_CURVE('',#436,#435,#283,.T.);
#538=EDGE_CURVE('',#435,#437,#284,.T.);
#539=EDGE_CURVE('',#438,#436,#285,.T.);
#540=EDGE_CURVE('',#438,#437,#286,.T.);
#541=EDGE_CURVE('',#437,#431,#57,.T.);
#542=EDGE_CURVE('',#433,#438,#58,.T.);
#543=EDGE_CURVE('',#439,#440,#59,.T.);
#544=EDGE_CURVE('',#440,#441,#287,.T.);
#545=EDGE_CURVE('',#441,#442,#60,.T.);
#546=EDGE_CURVE('',#442,#439,#288,.T.);
#547=EDGE_CURVE('',#443,#441,#289,.T.);
#548=EDGE_CURVE('',#444,#443,#61,.T.);
#549=EDGE_CURVE('',#445,#444,#290,.T.);
#550=EDGE_CURVE('',#446,#445,#62,.T.);
#551=EDGE_CURVE('',#447,#446,#291,.T.);
#552=EDGE_CURVE('',#448,#447,#63,.T.);
#553=EDGE_CURVE('',#449,#448,#292,.T.);
#554=EDGE_CURVE('',#450,#449,#64,.T.);
#555=EDGE_CURVE('',#451,#450,#293,.T.);
#556=EDGE_CURVE('',#452,#451,#65,.T.);
#557=EDGE_CURVE('',#453,#452,#294,.T.);
#558=EDGE_CURVE('',#454,#453,#66,.T.);
#559=EDGE_CURVE('',#455,#454,#295,.T.);
#560=EDGE_CURVE('',#456,#455,#67,.T.);
#561=EDGE_CURVE('',#442,#456,#296,.T.);
#562=EDGE_CURVE('',#457,#457,#68,.F.);
#563=EDGE_CURVE('',#458,#458,#69,.F.);
#564=EDGE_CURVE('',#459,#459,#70,.F.);
#565=EDGE_CURVE('',#460,#460,#71,.F.);
#566=EDGE_CURVE('',#461,#461,#72,.T.);
#567=EDGE_CURVE('',#462,#462,#73,.T.);
#568=EDGE_CURVE('',#463,#463,#74,.T.);
#569=EDGE_CURVE('',#464,#464,#75,.T.);
#570=EDGE_CURVE('',#440,#465,#297,.T.);
#571=EDGE_CURVE('',#443,#465,#298,.T.);
#572=EDGE_CURVE('',#465,#466,#76,.T.);
#573=EDGE_CURVE('',#466,#444,#299,.T.);
#574=EDGE_CURVE('',#467,#468,#77,.T.);
#575=EDGE_CURVE('',#468,#446,#300,.T.);
#576=EDGE_CURVE('',#445,#467,#301,.T.);
#577=EDGE_CURVE('',#468,#469,#302,.T.);
#578=EDGE_CURVE('',#447,#469,#303,.T.);
#579=EDGE_CURVE('',#469,#470,#78,.T.);
#580=EDGE_CURVE('',#470,#448,#304,.T.);
#581=EDGE_CURVE('',#471,#472,#79,.T.);
#582=EDGE_CURVE('',#472,#450,#305,.T.);
#583=EDGE_CURVE('',#449,#471,#306,.T.);
#584=EDGE_CURVE('',#472,#473,#307,.T.);
#585=EDGE_CURVE('',#451,#473,#308,.T.);
#586=EDGE_CURVE('',#473,#474,#80,.T.);
#587=EDGE_CURVE('',#474,#452,#309,.T.);
#588=EDGE_CURVE('',#475,#476,#81,.T.);
#589=EDGE_CURVE('',#476,#454,#310,.T.);
#590=EDGE_CURVE('',#453,#475,#311,.T.);
#591=EDGE_CURVE('',#476,#477,#312,.T.);
#592=EDGE_CURVE('',#455,#477,#313,.T.);
#593=EDGE_CURVE('',#477,#478,#82,.T.);
#594=EDGE_CURVE('',#478,#456,#314,.T.);
#595=EDGE_CURVE('',#467,#466,#315,.T.);
#596=EDGE_CURVE('',#439,#478,#316,.T.);
#597=EDGE_CURVE('',#471,#470,#317,.T.);
#598=EDGE_CURVE('',#479,#479,#83,.T.);
#599=EDGE_CURVE('',#479,#457,#318,.T.);
#600=EDGE_CURVE('',#480,#480,#84,.T.);
#601=EDGE_CURVE('',#480,#458,#319,.T.);
#602=EDGE_CURVE('',#481,#481,#85,.T.);
#603=EDGE_CURVE('',#481,#459,#320,.T.);
#604=EDGE_CURVE('',#482,#482,#86,.T.);
#605=EDGE_CURVE('',#482,#460,#321,.T.);
#606=EDGE_CURVE('',#483,#483,#87,.T.);
#607=EDGE_CURVE('',#484,#484,#88,.T.);
#608=EDGE_CURVE('',#485,#485,#89,.T.);
#609=EDGE_CURVE('',#485,#483,#322,.T.);
#610=EDGE_CURVE('',#484,#461,#323,.T.);
#611=EDGE_CURVE('',#486,#486,#90,.T.);
#612=EDGE_CURVE('',#487,#487,#91,.T.);
#613=EDGE_CURVE('',#488,#488,#92,.T.);
#614=EDGE_CURVE('',#488,#486,#324,.T.);
#615=EDGE_CURVE('',#487,#462,#325,.T.);
#616=EDGE_CURVE('',#489,#489,#93,.T.);
#617=EDGE_CURVE('',#490,#490,#94,.T.);
#618=EDGE_CURVE('',#491,#491,#95,.T.);
#619=EDGE_CURVE('',#491,#489,#326,.T.);
#620=EDGE_CURVE('',#490,#463,#327,.T.);
#621=EDGE_CURVE('',#492,#492,#96,.T.);
#622=EDGE_CURVE('',#493,#493,#97,.T.);
#623=EDGE_CURVE('',#494,#494,#98,.T.);
#624=EDGE_CURVE('',#494,#492,#328,.T.);
#625=EDGE_CURVE('',#493,#464,#329,.T.);
#626=EDGE_CURVE('',#475,#474,#330,.T.);
#627=ORIENTED_EDGE('',*,*,#495,.F.);
#628=ORIENTED_EDGE('',*,*,#496,.F.);
#629=ORIENTED_EDGE('',*,*,#497,.F.);
#630=ORIENTED_EDGE('',*,*,#498,.T.);
#631=ORIENTED_EDGE('',*,*,#499,.F.);
#632=ORIENTED_EDGE('',*,*,#498,.F.);
#633=ORIENTED_EDGE('',*,*,#500,.F.);
#634=ORIENTED_EDGE('',*,*,#501,.T.);
#635=ORIENTED_EDGE('',*,*,#502,.F.);
#636=ORIENTED_EDGE('',*,*,#501,.F.);
#637=ORIENTED_EDGE('',*,*,#503,.F.);
#638=ORIENTED_EDGE('',*,*,#504,.T.);
#639=ORIENTED_EDGE('',*,*,#505,.F.);
#640=ORIENTED_EDGE('',*,*,#504,.F.);
#641=ORIENTED_EDGE('',*,*,#506,.F.);
#642=ORIENTED_EDGE('',*,*,#496,.T.);
#643=ORIENTED_EDGE('',*,*,#507,.F.);
#644=ORIENTED_EDGE('',*,*,#508,.F.);
#645=ORIENTED_EDGE('',*,*,#509,.F.);
#646=ORIENTED_EDGE('',*,*,#510,.T.);
#647=ORIENTED_EDGE('',*,*,#511,.F.);
#648=ORIENTED_EDGE('',*,*,#510,.F.);
#649=ORIENTED_EDGE('',*,*,#512,.F.);
#650=ORIENTED_EDGE('',*,*,#513,.T.);
#651=ORIENTED_EDGE('',*,*,#514,.F.);
#652=ORIENTED_EDGE('',*,*,#513,.F.);
#653=ORIENTED_EDGE('',*,*,#515,.F.);
#654=ORIENTED_EDGE('',*,*,#516,.T.);
#655=ORIENTED_EDGE('',*,*,#517,.F.);
#656=ORIENTED_EDGE('',*,*,#516,.F.);
#657=ORIENTED_EDGE('',*,*,#518,.F.);
#658=ORIENTED_EDGE('',*,*,#508,.T.);
#659=ORIENTED_EDGE('',*,*,#519,.F.);
#660=ORIENTED_EDGE('',*,*,#520,.F.);
#661=ORIENTED_EDGE('',*,*,#521,.F.);
#662=ORIENTED_EDGE('',*,*,#522,.T.);
#663=ORIENTED_EDGE('',*,*,#523,.F.);
#664=ORIENTED_EDGE('',*,*,#522,.F.);
#665=ORIENTED_EDGE('',*,*,#524,.F.);
#666=ORIENTED_EDGE('',*,*,#525,.T.);
#667=ORIENTED_EDGE('',*,*,#526,.F.);
#668=ORIENTED_EDGE('',*,*,#525,.F.);
#669=ORIENTED_EDGE('',*,*,#527,.F.);
#670=ORIENTED_EDGE('',*,*,#528,.T.);
#671=ORIENTED_EDGE('',*,*,#529,.F.);
#672=ORIENTED_EDGE('',*,*,#528,.F.);
#673=ORIENTED_EDGE('',*,*,#530,.F.);
#674=ORIENTED_EDGE('',*,*,#520,.T.);
#675=ORIENTED_EDGE('',*,*,#531,.F.);
#676=ORIENTED_EDGE('',*,*,#532,.F.);
#677=ORIENTED_EDGE('',*,*,#533,.F.);
#678=ORIENTED_EDGE('',*,*,#534,.T.);
#679=ORIENTED_EDGE('',*,*,#535,.F.);
#680=ORIENTED_EDGE('',*,*,#534,.F.);
#681=ORIENTED_EDGE('',*,*,#536,.F.);
#682=ORIENTED_EDGE('',*,*,#537,.T.);
#683=ORIENTED_EDGE('',*,*,#538,.F.);
#684=ORIENTED_EDGE('',*,*,#537,.F.);
#685=ORIENTED_EDGE('',*,*,#539,.F.);
#686=ORIENTED_EDGE('',*,*,#540,.T.);
#687=ORIENTED_EDGE('',*,*,#541,.F.);
#688=ORIENTED_EDGE('',*,*,#540,.F.);
#689=ORIENTED_EDGE('',*,*,#542,.F.);
#690=ORIENTED_EDGE('',*,*,#532,.T.);
#691=ORIENTED_EDGE('',*,*,#543,.T.);
#692=ORIENTED_EDGE('',*,*,#544,.T.);
#693=ORIENTED_EDGE('',*,*,#545,.T.);
#694=ORIENTED_EDGE('',*,*,#546,.T.);
#695=ORIENTED_EDGE('',*,*,#545,.F.);
#696=ORIENTED_EDGE('',*,*,#547,.F.);
#697=ORIENTED_EDGE('',*,*,#548,.F.);
#698=ORIENTED_EDGE('',*,*,#549,.F.);
#699=ORIENTED_EDGE('',*,*,#550,.F.);
#700=ORIENTED_EDGE('',*,*,#551,.F.);
#701=ORIENTED_EDGE('',*,*,#552,.F.);
#702=ORIENTED_EDGE('',*,*,#553,.F.);
#703=ORIENTED_EDGE('',*,*,#554,.F.);
#704=ORIENTED_EDGE('',*,*,#555,.F.);
#705=ORIENTED_EDGE('',*,*,#556,.F.);
#706=ORIENTED_EDGE('',*,*,#557,.F.);
#707=ORIENTED_EDGE('',*,*,#558,.F.);
#708=ORIENTED_EDGE('',*,*,#559,.F.);
#709=ORIENTED_EDGE('',*,*,#560,.F.);
#710=ORIENTED_EDGE('',*,*,#561,.F.);
#711=ORIENTED_EDGE('',*,*,#502,.T.);
#712=ORIENTED_EDGE('',*,*,#505,.T.);
#713=ORIENTED_EDGE('',*,*,#495,.T.);
#714=ORIENTED_EDGE('',*,*,#499,.T.);
#715=ORIENTED_EDGE('',*,*,#514,.T.);
#716=ORIENTED_EDGE('',*,*,#517,.T.);
#717=ORIENTED_EDGE('',*,*,#507,.T.);
#718=ORIENTED_EDGE('',*,*,#511,.T.);
#719=ORIENTED_EDGE('',*,*,#526,.T.);
#720=ORIENTED_EDGE('',*,*,#529,.T.);
#721=ORIENTED_EDGE('',*,*,#519,.T.);
#722=ORIENTED_EDGE('',*,*,#523,.T.);
#723=ORIENTED_EDGE('',*,*,#538,.T.);
#724=ORIENTED_EDGE('',*,*,#541,.T.);
#725=ORIENTED_EDGE('',*,*,#531,.T.);
#726=ORIENTED_EDGE('',*,*,#535,.T.);
#727=ORIENTED_EDGE('',*,*,#562,.T.);
#728=ORIENTED_EDGE('',*,*,#563,.T.);
#729=ORIENTED_EDGE('',*,*,#564,.T.);
#730=ORIENTED_EDGE('',*,*,#565,.T.);
#731=ORIENTED_EDGE('',*,*,#566,.T.);
#732=ORIENTED_EDGE('',*,*,#567,.T.);
#733=ORIENTED_EDGE('',*,*,#568,.T.);
#734=ORIENTED_EDGE('',*,*,#569,.T.);
#735=ORIENTED_EDGE('',*,*,#544,.F.);
#736=ORIENTED_EDGE('',*,*,#570,.T.);
#737=ORIENTED_EDGE('',*,*,#571,.F.);
#738=ORIENTED_EDGE('',*,*,#547,.T.);
#739=ORIENTED_EDGE('',*,*,#548,.T.);
#740=ORIENTED_EDGE('',*,*,#571,.T.);
#741=ORIENTED_EDGE('',*,*,#572,.T.);
#742=ORIENTED_EDGE('',*,*,#573,.T.);
#743=ORIENTED_EDGE('',*,*,#574,.T.);
#744=ORIENTED_EDGE('',*,*,#575,.T.);
#745=ORIENTED_EDGE('',*,*,#550,.T.);
#746=ORIENTED_EDGE('',*,*,#576,.T.);
#747=ORIENTED_EDGE('',*,*,#575,.F.);
#748=ORIENTED_EDGE('',*,*,#577,.T.);
#749=ORIENTED_EDGE('',*,*,#578,.F.);
#750=ORIENTED_EDGE('',*,*,#551,.T.);
#751=ORIENTED_EDGE('',*,*,#552,.T.);
#752=ORIENTED_EDGE('',*,*,#578,.T.);
#753=ORIENTED_EDGE('',*,*,#579,.T.);
#754=ORIENTED_EDGE('',*,*,#580,.T.);
#755=ORIENTED_EDGE('',*,*,#581,.T.);
#756=ORIENTED_EDGE('',*,*,#582,.T.);
#757=ORIENTED_EDGE('',*,*,#554,.T.);
#758=ORIENTED_EDGE('',*,*,#583,.T.);
#759=ORIENTED_EDGE('',*,*,#582,.F.);
#760=ORIENTED_EDGE('',*,*,#584,.T.);
#761=ORIENTED_EDGE('',*,*,#585,.F.);
#762=ORIENTED_EDGE('',*,*,#555,.T.);
#763=ORIENTED_EDGE('',*,*,#556,.T.);
#764=ORIENTED_EDGE('',*,*,#585,.T.);
#765=ORIENTED_EDGE('',*,*,#586,.T.);
#766=ORIENTED_EDGE('',*,*,#587,.T.);
#767=ORIENTED_EDGE('',*,*,#588,.T.);
#768=ORIENTED_EDGE('',*,*,#589,.T.);
#769=ORIENTED_EDGE('',*,*,#558,.T.);
#770=ORIENTED_EDGE('',*,*,#590,.T.);
#771=ORIENTED_EDGE('',*,*,#589,.F.);
#772=ORIENTED_EDGE('',*,*,#591,.T.);
#773=ORIENTED_EDGE('',*,*,#592,.F.);
#774=ORIENTED_EDGE('',*,*,#559,.T.);
#775=ORIENTED_EDGE('',*,*,#560,.T.);
#776=ORIENTED_EDGE('',*,*,#592,.T.);
#777=ORIENTED_EDGE('',*,*,#593,.T.);
#778=ORIENTED_EDGE('',*,*,#594,.T.);
#779=ORIENTED_EDGE('',*,*,#573,.F.);
#780=ORIENTED_EDGE('',*,*,#595,.F.);
#781=ORIENTED_EDGE('',*,*,#576,.F.);
#782=ORIENTED_EDGE('',*,*,#549,.T.);
#783=ORIENTED_EDGE('',*,*,#546,.F.);
#784=ORIENTED_EDGE('',*,*,#561,.T.);
#785=ORIENTED_EDGE('',*,*,#594,.F.);
#786=ORIENTED_EDGE('',*,*,#596,.F.);
#787=ORIENTED_EDGE('',*,*,#580,.F.);
#788=ORIENTED_EDGE('',*,*,#597,.F.);
#789=ORIENTED_EDGE('',*,*,#583,.F.);
#790=ORIENTED_EDGE('',*,*,#553,.T.);
#791=ORIENTED_EDGE('',*,*,#598,.F.);
#792=ORIENTED_EDGE('',*,*,#599,.T.);
#793=ORIENTED_EDGE('',*,*,#562,.F.);
#794=ORIENTED_EDGE('',*,*,#599,.F.);
#795=ORIENTED_EDGE('',*,*,#600,.F.);
#796=ORIENTED_EDGE('',*,*,#601,.T.);
#797=ORIENTED_EDGE('',*,*,#563,.F.);
#798=ORIENTED_EDGE('',*,*,#601,.F.);
#799=ORIENTED_EDGE('',*,*,#602,.F.);
#800=ORIENTED_EDGE('',*,*,#603,.T.);
#801=ORIENTED_EDGE('',*,*,#564,.F.);
#802=ORIENTED_EDGE('',*,*,#603,.F.);
#803=ORIENTED_EDGE('',*,*,#604,.F.);
#804=ORIENTED_EDGE('',*,*,#605,.T.);
#805=ORIENTED_EDGE('',*,*,#565,.F.);
#806=ORIENTED_EDGE('',*,*,#605,.F.);
#807=ORIENTED_EDGE('',*,*,#606,.F.);
#808=ORIENTED_EDGE('',*,*,#607,.T.);
#809=ORIENTED_EDGE('',*,*,#608,.F.);
#810=ORIENTED_EDGE('',*,*,#609,.T.);
#811=ORIENTED_EDGE('',*,*,#606,.T.);
#812=ORIENTED_EDGE('',*,*,#609,.F.);
#813=ORIENTED_EDGE('',*,*,#607,.F.);
#814=ORIENTED_EDGE('',*,*,#610,.T.);
#815=ORIENTED_EDGE('',*,*,#566,.F.);
#816=ORIENTED_EDGE('',*,*,#610,.F.);
#817=ORIENTED_EDGE('',*,*,#611,.F.);
#818=ORIENTED_EDGE('',*,*,#612,.T.);
#819=ORIENTED_EDGE('',*,*,#613,.F.);
#820=ORIENTED_EDGE('',*,*,#614,.T.);
#821=ORIENTED_EDGE('',*,*,#611,.T.);
#822=ORIENTED_EDGE('',*,*,#614,.F.);
#823=ORIENTED_EDGE('',*,*,#612,.F.);
#824=ORIENTED_EDGE('',*,*,#615,.T.);
#825=ORIENTED_EDGE('',*,*,#567,.F.);
#826=ORIENTED_EDGE('',*,*,#615,.F.);
#827=ORIENTED_EDGE('',*,*,#616,.F.);
#828=ORIENTED_EDGE('',*,*,#617,.T.);
#829=ORIENTED_EDGE('',*,*,#618,.F.);
#830=ORIENTED_EDGE('',*,*,#619,.T.);
#831=ORIENTED_EDGE('',*,*,#616,.T.);
#832=ORIENTED_EDGE('',*,*,#619,.F.);
#833=ORIENTED_EDGE('',*,*,#617,.F.);
#834=ORIENTED_EDGE('',*,*,#620,.T.);
#835=ORIENTED_EDGE('',*,*,#568,.F.);
#836=ORIENTED_EDGE('',*,*,#620,.F.);
#837=ORIENTED_EDGE('',*,*,#621,.F.);
#838=ORIENTED_EDGE('',*,*,#622,.T.);
#839=ORIENTED_EDGE('',*,*,#623,.F.);
#840=ORIENTED_EDGE('',*,*,#624,.T.);
#841=ORIENTED_EDGE('',*,*,#621,.T.);
#842=ORIENTED_EDGE('',*,*,#624,.F.);
#843=ORIENTED_EDGE('',*,*,#622,.F.);
#844=ORIENTED_EDGE('',*,*,#625,.T.);
#845=ORIENTED_EDGE('',*,*,#569,.F.);
#846=ORIENTED_EDGE('',*,*,#625,.F.);
#847=ORIENTED_EDGE('',*,*,#587,.F.);
#848=ORIENTED_EDGE('',*,*,#626,.F.);
#849=ORIENTED_EDGE('',*,*,#590,.F.);
#850=ORIENTED_EDGE('',*,*,#557,.T.);
#851=ORIENTED_EDGE('',*,*,#543,.F.);
#852=ORIENTED_EDGE('',*,*,#596,.T.);
#853=ORIENTED_EDGE('',*,*,#593,.F.);
#854=ORIENTED_EDGE('',*,*,#591,.F.);
#855=ORIENTED_EDGE('',*,*,#588,.F.);
#856=ORIENTED_EDGE('',*,*,#626,.T.);
#857=ORIENTED_EDGE('',*,*,#586,.F.);
#858=ORIENTED_EDGE('',*,*,#584,.F.);
#859=ORIENTED_EDGE('',*,*,#581,.F.);
#860=ORIENTED_EDGE('',*,*,#597,.T.);
#861=ORIENTED_EDGE('',*,*,#579,.F.);
#862=ORIENTED_EDGE('',*,*,#577,.F.);
#863=ORIENTED_EDGE('',*,*,#574,.F.);
#864=ORIENTED_EDGE('',*,*,#595,.T.);
#865=ORIENTED_EDGE('',*,*,#572,.F.);
#866=ORIENTED_EDGE('',*,*,#570,.F.);
#867=ORIENTED_EDGE('',*,*,#503,.T.);
#868=ORIENTED_EDGE('',*,*,#500,.T.);
#869=ORIENTED_EDGE('',*,*,#497,.T.);
#870=ORIENTED_EDGE('',*,*,#506,.T.);
#871=ORIENTED_EDGE('',*,*,#515,.T.);
#872=ORIENTED_EDGE('',*,*,#512,.T.);
#873=ORIENTED_EDGE('',*,*,#509,.T.);
#874=ORIENTED_EDGE('',*,*,#518,.T.);
#875=ORIENTED_EDGE('',*,*,#527,.T.);
#876=ORIENTED_EDGE('',*,*,#524,.T.);
#877=ORIENTED_EDGE('',*,*,#521,.T.);
#878=ORIENTED_EDGE('',*,*,#530,.T.);
#879=ORIENTED_EDGE('',*,*,#539,.T.);
#880=ORIENTED_EDGE('',*,*,#536,.T.);
#881=ORIENTED_EDGE('',*,*,#533,.T.);
#882=ORIENTED_EDGE('',*,*,#542,.T.);
#883=ORIENTED_EDGE('',*,*,#598,.T.);
#884=ORIENTED_EDGE('',*,*,#600,.T.);
#885=ORIENTED_EDGE('',*,*,#602,.T.);
#886=ORIENTED_EDGE('',*,*,#604,.T.);
#887=ORIENTED_EDGE('',*,*,#608,.T.);
#888=ORIENTED_EDGE('',*,*,#613,.T.);
#889=ORIENTED_EDGE('',*,*,#618,.T.);
#890=ORIENTED_EDGE('',*,*,#623,.T.);
#891=PLANE('',#977);
#892=PLANE('',#981);
#893=PLANE('',#985);
#894=PLANE('',#989);
#895=PLANE('',#993);
#896=PLANE('',#997);
#897=PLANE('',#1001);
#898=PLANE('',#1005);
#899=PLANE('',#1012);
#900=PLANE('',#1028);
#901=PLANE('',#1033);
#902=PLANE('',#1038);
#903=PLANE('',#1043);
#904=PLANE('',#1046);
#905=PLANE('',#1047);
#906=PLANE('',#1048);
#907=PLANE('',#1057);
#908=PLANE('',#1063);
#909=PLANE('',#1069);
#910=PLANE('',#1075);
#911=PLANE('',#1081);
#912=PLANE('',#1082);
#913=ADVANCED_FACE('',(#127),#891,.F.);
#914=ADVANCED_FACE('',(#128),#99,.F.);
#915=ADVANCED_FACE('',(#129),#892,.F.);
#916=ADVANCED_FACE('',(#130),#100,.F.);
#917=ADVANCED_FACE('',(#131),#893,.F.);
#918=ADVANCED_FACE('',(#132),#101,.F.);
#919=ADVANCED_FACE('',(#133),#894,.F.);
#920=ADVANCED_FACE('',(#134),#102,.F.);
#921=ADVANCED_FACE('',(#135),#895,.F.);
#922=ADVANCED_FACE('',(#136),#103,.F.);
#923=ADVANCED_FACE('',(#137),#896,.F.);
#924=ADVANCED_FACE('',(#138),#104,.F.);
#925=ADVANCED_FACE('',(#139),#897,.F.);
#926=ADVANCED_FACE('',(#140),#105,.F.);
#927=ADVANCED_FACE('',(#141),#898,.F.);
#928=ADVANCED_FACE('',(#142),#106,.F.);
#929=ADVANCED_FACE('',(#143),#107,.T.);
#930=ADVANCED_FACE('',(#144,#15,#16,#17,#18,#19,#20,#21,#22,#23,#24,#25,
#26),#899,.F.);
#931=ADVANCED_FACE('',(#145),#900,.T.);
#932=ADVANCED_FACE('',(#146),#108,.T.);
#933=ADVANCED_FACE('',(#147),#109,.T.);
#934=ADVANCED_FACE('',(#148),#901,.T.);
#935=ADVANCED_FACE('',(#149),#110,.T.);
#936=ADVANCED_FACE('',(#150),#111,.T.);
#937=ADVANCED_FACE('',(#151),#902,.T.);
#938=ADVANCED_FACE('',(#152),#112,.T.);
#939=ADVANCED_FACE('',(#153),#113,.T.);
#940=ADVANCED_FACE('',(#154),#903,.T.);
#941=ADVANCED_FACE('',(#155),#114,.T.);
#942=ADVANCED_FACE('',(#156),#904,.T.);
#943=ADVANCED_FACE('',(#157),#905,.T.);
#944=ADVANCED_FACE('',(#158),#906,.T.);
#945=ADVANCED_FACE('',(#159),#115,.F.);
#946=ADVANCED_FACE('',(#160),#116,.F.);
#947=ADVANCED_FACE('',(#161),#117,.F.);
#948=ADVANCED_FACE('',(#162),#118,.F.);
#949=ADVANCED_FACE('',(#163,#27),#907,.F.);
#950=ADVANCED_FACE('',(#164),#119,.F.);
#951=ADVANCED_FACE('',(#165),#120,.F.);
#952=ADVANCED_FACE('',(#166,#28),#908,.F.);
#953=ADVANCED_FACE('',(#167),#121,.F.);
#954=ADVANCED_FACE('',(#168),#122,.F.);
#955=ADVANCED_FACE('',(#169,#29),#909,.F.);
#956=ADVANCED_FACE('',(#170),#123,.F.);
#957=ADVANCED_FACE('',(#171),#124,.F.);
#958=ADVANCED_FACE('',(#172,#30),#910,.F.);
#959=ADVANCED_FACE('',(#173),#125,.F.);
#960=ADVANCED_FACE('',(#174),#126,.F.);
#961=ADVANCED_FACE('',(#175),#911,.T.);
#962=ADVANCED_FACE('',(#176,#31,#32,#33,#34,#35,#36,#37,#38,#39,#40,#41,
#42),#912,.T.);
#963=CLOSED_SHELL('',(#913,#914,#915,#916,#917,#918,#919,#920,#921,#922,
#923,#924,#925,#926,#927,#928,#929,#930,#931,#932,#933,#934,#935,#936,#937,
#938,#939,#940,#941,#942,#943,#944,#945,#946,#947,#948,#949,#950,#951,#952,
#953,#954,#955,#956,#957,#958,#959,#960,#961,#962));
#964=DERIVED_UNIT_ELEMENT(#966,1.);
#965=DERIVED_UNIT_ELEMENT(#1651,-3.);
#966=(
MASS_UNIT()
NAMED_UNIT(*)
SI_UNIT(.KILO.,.GRAM.)
);
#967=DERIVED_UNIT((#964,#965));
#968=MEASURE_REPRESENTATION_ITEM('density measure',
POSITIVE_RATIO_MEASURE(7850.),#967);
#969=PROPERTY_DEFINITION_REPRESENTATION(#974,#971);
#970=PROPERTY_DEFINITION_REPRESENTATION(#975,#972);
#971=REPRESENTATION('material name',(#973),#1646);
#972=REPRESENTATION('density',(#968),#1646);
#973=DESCRIPTIVE_REPRESENTATION_ITEM('Steel','Steel');
#974=PROPERTY_DEFINITION('material property','material name',#1659);
#975=PROPERTY_DEFINITION('material property','density of part',#1659);
#976=AXIS2_PLACEMENT_3D('',#1373,#1083,#1084);
#977=AXIS2_PLACEMENT_3D('',#1374,#1085,#1086);
#978=AXIS2_PLACEMENT_3D('',#1383,#1091,#1092);
#979=AXIS2_PLACEMENT_3D('',#1385,#1093,#1094);
#980=AXIS2_PLACEMENT_3D('',#1387,#1095,#1096);
#981=AXIS2_PLACEMENT_3D('',#1389,#1098,#1099);
#982=AXIS2_PLACEMENT_3D('',#1395,#1103,#1104);
#983=AXIS2_PLACEMENT_3D('',#1396,#1105,#1106);
#984=AXIS2_PLACEMENT_3D('',#1397,#1107,#1108);
#985=AXIS2_PLACEMENT_3D('',#1398,#1109,#1110);
#986=AXIS2_PLACEMENT_3D('',#1407,#1115,#1116);
#987=AXIS2_PLACEMENT_3D('',#1409,#1117,#1118);
#988=AXIS2_PLACEMENT_3D('',#1411,#1119,#1120);
#989=AXIS2_PLACEMENT_3D('',#1413,#1122,#1123);
#990=AXIS2_PLACEMENT_3D('',#1419,#1127,#1128);
#991=AXIS2_PLACEMENT_3D('',#1420,#1129,#1130);
#992=AXIS2_PLACEMENT_3D('',#1421,#1131,#1132);
#993=AXIS2_PLACEMENT_3D('',#1422,#1133,#1134);
#994=AXIS2_PLACEMENT_3D('',#1431,#1139,#1140);
#995=AXIS2_PLACEMENT_3D('',#1433,#1141,#1142);
#996=AXIS2_PLACEMENT_3D('',#1435,#1143,#1144);
#997=AXIS2_PLACEMENT_3D('',#1437,#1146,#1147);
#998=AXIS2_PLACEMENT_3D('',#1443,#1151,#1152);
#999=AXIS2_PLACEMENT_3D('',#1444,#1153,#1154);
#1000=AXIS2_PLACEMENT_3D('',#1445,#1155,#1156);
#1001=AXIS2_PLACEMENT_3D('',#1446,#1157,#1158);
#1002=AXIS2_PLACEMENT_3D('',#1455,#1163,#1164);
#1003=AXIS2_PLACEMENT_3D('',#1457,#1165,#1166);
#1004=AXIS2_PLACEMENT_3D('',#1459,#1167,#1168);
#1005=AXIS2_PLACEMENT_3D('',#1461,#1170,#1171);
#1006=AXIS2_PLACEMENT_3D('',#1467,#1175,#1176);
#1007=AXIS2_PLACEMENT_3D('',#1468,#1177,#1178);
#1008=AXIS2_PLACEMENT_3D('',#1469,#1179,#1180);
#1009=AXIS2_PLACEMENT_3D('',#1470,#1181,#1182);
#1010=AXIS2_PLACEMENT_3D('',#1473,#1183,#1184);
#1011=AXIS2_PLACEMENT_3D('',#1477,#1186,#1187);
#1012=AXIS2_PLACEMENT_3D('',#1479,#1189,#1190);
#1013=AXIS2_PLACEMENT_3D('',#1483,#1192,#1193);
#1014=AXIS2_PLACEMENT_3D('',#1487,#1195,#1196);
#1015=AXIS2_PLACEMENT_3D('',#1491,#1198,#1199);
#1016=AXIS2_PLACEMENT_3D('',#1495,#1201,#1202);
#1017=AXIS2_PLACEMENT_3D('',#1499,#1204,#1205);
#1018=AXIS2_PLACEMENT_3D('',#1503,#1207,#1208);
#1019=AXIS2_PLACEMENT_3D('',#1507,#1210,#1211);
#1020=AXIS2_PLACEMENT_3D('',#1510,#1213,#1214);
#1021=AXIS2_PLACEMENT_3D('',#1512,#1215,#1216);
#1022=AXIS2_PLACEMENT_3D('',#1514,#1217,#1218);
#1023=AXIS2_PLACEMENT_3D('',#1516,#1219,#1220);
#1024=AXIS2_PLACEMENT_3D('',#1518,#1221,#1222);
#1025=AXIS2_PLACEMENT_3D('',#1520,#1223,#1224);
#1026=AXIS2_PLACEMENT_3D('',#1522,#1225,#1226);
#1027=AXIS2_PLACEMENT_3D('',#1524,#1227,#1228);
#1028=AXIS2_PLACEMENT_3D('',#1525,#1229,#1230);
#1029=AXIS2_PLACEMENT_3D('',#1529,#1233,#1234);
#1030=AXIS2_PLACEMENT_3D('',#1531,#1235,#1236);
#1031=AXIS2_PLACEMENT_3D('',#1533,#1238,#1239);
#1032=AXIS2_PLACEMENT_3D('',#1536,#1240,#1241);
#1033=AXIS2_PLACEMENT_3D('',#1539,#1244,#1245);
#1034=AXIS2_PLACEMENT_3D('',#1543,#1248,#1249);
#1035=AXIS2_PLACEMENT_3D('',#1545,#1250,#1251);
#1036=AXIS2_PLACEMENT_3D('',#1547,#1253,#1254);
#1037=AXIS2_PLACEMENT_3D('',#1550,#1255,#1256);
#1038=AXIS2_PLACEMENT_3D('',#1553,#1259,#1260);
#1039=AXIS2_PLACEMENT_3D('',#1557,#1263,#1264);
#1040=AXIS2_PLACEMENT_3D('',#1559,#1265,#1266);
#1041=AXIS2_PLACEMENT_3D('',#1561,#1268,#1269);
#1042=AXIS2_PLACEMENT_3D('',#1564,#1270,#1271);
#1043=AXIS2_PLACEMENT_3D('',#1567,#1274,#1275);
#1044=AXIS2_PLACEMENT_3D('',#1571,#1278,#1279);
#1045=AXIS2_PLACEMENT_3D('',#1573,#1280,#1281);
#1046=AXIS2_PLACEMENT_3D('',#1575,#1283,#1284);
#1047=AXIS2_PLACEMENT_3D('',#1577,#1286,#1287);
#1048=AXIS2_PLACEMENT_3D('',#1579,#1289,#1290);
#1049=AXIS2_PLACEMENT_3D('',#1581,#1292,#1293);
#1050=AXIS2_PLACEMENT_3D('',#1583,#1294,#1295);
#1051=AXIS2_PLACEMENT_3D('',#1585,#1297,#1298);
#1052=AXIS2_PLACEMENT_3D('',#1587,#1299,#1300);
#1053=AXIS2_PLACEMENT_3D('',#1589,#1302,#1303);
#1054=AXIS2_PLACEMENT_3D('',#1591,#1304,#1305);
#1055=AXIS2_PLACEMENT_3D('',#1593,#1307,#1308);
#1056=AXIS2_PLACEMENT_3D('',#1595,#1309,#1310);
#1057=AXIS2_PLACEMENT_3D('',#1597,#1312,#1313);
#1058=AXIS2_PLACEMENT_3D('',#1599,#1314,#1315);
#1059=AXIS2_PLACEMENT_3D('',#1601,#1316,#1317);
#1060=AXIS2_PLACEMENT_3D('',#1602,#1318,#1319);
#1061=AXIS2_PLACEMENT_3D('',#1604,#1320,#1321);
#1062=AXIS2_PLACEMENT_3D('',#1606,#1323,#1324);
#1063=AXIS2_PLACEMENT_3D('',#1608,#1326,#1327);
#1064=AXIS2_PLACEMENT_3D('',#1610,#1328,#1329);
#1065=AXIS2_PLACEMENT_3D('',#1612,#1330,#1331);
#1066=AXIS2_PLACEMENT_3D('',#1613,#1332,#1333);
#1067=AXIS2_PLACEMENT_3D('',#1615,#1334,#1335);
#1068=AXIS2_PLACEMENT_3D('',#1617,#1337,#1338);
#1069=AXIS2_PLACEMENT_3D('',#1619,#1340,#1341);
#1070=AXIS2_PLACEMENT_3D('',#1621,#1342,#1343);
#1071=AXIS2_PLACEMENT_3D('',#1623,#1344,#1345);
#1072=AXIS2_PLACEMENT_3D('',#1624,#1346,#1347);
#1073=AXIS2_PLACEMENT_3D('',#1626,#1348,#1349);
#1074=AXIS2_PLACEMENT_3D('',#1628,#1351,#1352);
#1075=AXIS2_PLACEMENT_3D('',#1630,#1354,#1355);
#1076=AXIS2_PLACEMENT_3D('',#1632,#1356,#1357);
#1077=AXIS2_PLACEMENT_3D('',#1634,#1358,#1359);
#1078=AXIS2_PLACEMENT_3D('',#1635,#1360,#1361);
#1079=AXIS2_PLACEMENT_3D('',#1637,#1362,#1363);
#1080=AXIS2_PLACEMENT_3D('',#1639,#1365,#1366);
#1081=AXIS2_PLACEMENT_3D('',#1641,#1368,#1369);
#1082=AXIS2_PLACEMENT_3D('',#1643,#1371,#1372);
#1083=DIRECTION('axis',(0.,0.,1.));
#1084=DIRECTION('refdir',(1.,0.,0.));
#1085=DIRECTION('center_axis',(-1.,-5.82794238648376E-16,0.));
#1086=DIRECTION('ref_axis',(-5.82794238648376E-16,1.,0.));
#1087=DIRECTION('',(5.82794238648376E-16,-1.,0.));
#1088=DIRECTION('',(0.,0.,-1.));
#1089=DIRECTION('',(-5.82794238648376E-16,1.,0.));
#1090=DIRECTION('',(0.,0.,-1.));
#1091=DIRECTION('center_axis',(0.,0.,-1.));
#1092=DIRECTION('ref_axis',(-1.,0.,0.));
#1093=DIRECTION('center_axis',(0.,0.,1.));
#1094=DIRECTION('ref_axis',(-1.,0.,0.));
#1095=DIRECTION('center_axis',(0.,0.,-1.));
#1096=DIRECTION('ref_axis',(-1.,0.,0.));
#1097=DIRECTION('',(0.,0.,-1.));
#1098=DIRECTION('center_axis',(1.,0.,0.));
#1099=DIRECTION('ref_axis',(0.,-1.,0.));
#1100=DIRECTION('',(0.,1.,0.));
#1101=DIRECTION('',(0.,-1.,0.));
#1102=DIRECTION('',(0.,0.,-1.));
#1103=DIRECTION('center_axis',(0.,0.,-1.));
#1104=DIRECTION('ref_axis',(1.,0.,0.));
#1105=DIRECTION('center_axis',(0.,0.,1.));
#1106=DIRECTION('ref_axis',(1.,0.,0.));
#1107=DIRECTION('center_axis',(0.,0.,-1.));
#1108=DIRECTION('ref_axis',(1.,0.,0.));
#1109=DIRECTION('center_axis',(-1.,0.,0.));
#1110=DIRECTION('ref_axis',(0.,1.,0.));
#1111=DIRECTION('',(0.,-1.,0.));
#1112=DIRECTION('',(0.,0.,-1.));
#1113=DIRECTION('',(0.,1.,0.));
#1114=DIRECTION('',(0.,0.,-1.));
#1115=DIRECTION('center_axis',(0.,0.,-1.));
#1116=DIRECTION('ref_axis',(-1.,0.,0.));
#1117=DIRECTION('center_axis',(0.,0.,1.));
#1118=DIRECTION('ref_axis',(-1.,0.,0.));
#1119=DIRECTION('center_axis',(0.,0.,-1.));
#1120=DIRECTION('ref_axis',(-1.,0.,0.));
#1121=DIRECTION('',(0.,0.,-1.));
#1122=DIRECTION('center_axis',(1.,0.,0.));
#1123=DIRECTION('ref_axis',(0.,-1.,0.));
#1124=DIRECTION('',(0.,1.,0.));
#1125=DIRECTION('',(0.,-1.,0.));
#1126=DIRECTION('',(0.,0.,-1.));
#1127=DIRECTION('center_axis',(0.,0.,-1.));
#1128=DIRECTION('ref_axis',(1.,0.,0.));
#1129=DIRECTION('center_axis',(0.,0.,1.));
#1130=DIRECTION('ref_axis',(1.,0.,0.));
#1131=DIRECTION('center_axis',(0.,0.,-1.));
#1132=DIRECTION('ref_axis',(1.,0.,0.));
#1133=DIRECTION('center_axis',(-1.,0.,0.));
#1134=DIRECTION('ref_axis',(0.,1.,0.));
#1135=DIRECTION('',(0.,-1.,0.));
#1136=DIRECTION('',(0.,0.,-1.));
#1137=DIRECTION('',(0.,1.,0.));
#1138=DIRECTION('',(0.,0.,-1.));
#1139=DIRECTION('center_axis',(0.,0.,-1.));
#1140=DIRECTION('ref_axis',(-1.,0.,0.));
#1141=DIRECTION('center_axis',(0.,0.,1.));
#1142=DIRECTION('ref_axis',(-1.,0.,0.));
#1143=DIRECTION('center_axis',(0.,0.,-1.));
#1144=DIRECTION('ref_axis',(-1.,0.,0.));
#1145=DIRECTION('',(0.,0.,-1.));
#1146=DIRECTION('center_axis',(1.,0.,0.));
#1147=DIRECTION('ref_axis',(0.,-1.,0.));
#1148=DIRECTION('',(0.,1.,0.));
#1149=DIRECTION('',(0.,-1.,0.));
#1150=DIRECTION('',(0.,0.,-1.));
#1151=DIRECTION('center_axis',(0.,0.,-1.));
#1152=DIRECTION('ref_axis',(1.,0.,0.));
#1153=DIRECTION('center_axis',(0.,0.,1.));
#1154=DIRECTION('ref_axis',(1.,0.,0.));
#1155=DIRECTION('center_axis',(0.,0.,-1.));
#1156=DIRECTION('ref_axis',(1.,0.,0.));
#1157=DIRECTION('center_axis',(-1.,0.,0.));
#1158=DIRECTION('ref_axis',(0.,1.,0.));
#1159=DIRECTION('',(0.,-1.,0.));
#1160=DIRECTION('',(0.,0.,-1.));
#1161=DIRECTION('',(0.,1.,0.));
#1162=DIRECTION('',(0.,0.,-1.));
#1163=DIRECTION('center_axis',(0.,0.,-1.));
#1164=DIRECTION('ref_axis',(-1.,0.,0.));
#1165=DIRECTION('center_axis',(0.,0.,1.));
#1166=DIRECTION('ref_axis',(-1.,0.,0.));
#1167=DIRECTION('center_axis',(0.,0.,-1.));
#1168=DIRECTION('ref_axis',(-1.,0.,0.));
#1169=DIRECTION('',(0.,0.,-1.));
#1170=DIRECTION('center_axis',(1.,0.,0.));
#1171=DIRECTION('ref_axis',(0.,-1.,0.));
#1172=DIRECTION('',(0.,1.,0.));
#1173=DIRECTION('',(0.,-1.,0.));
#1174=DIRECTION('',(0.,0.,-1.));
#1175=DIRECTION('center_axis',(0.,0.,-1.));
#1176=DIRECTION('ref_axis',(1.,0.,0.));
#1177=DIRECTION('center_axis',(0.,0.,1.));
#1178=DIRECTION('ref_axis',(1.,0.,0.));
#1179=DIRECTION('center_axis',(0.,0.,-1.));
#1180=DIRECTION('ref_axis',(1.,0.,0.));
#1181=DIRECTION('center_axis',(0.,0.,1.));
#1182=DIRECTION('ref_axis',(-0.923879532511286,0.382683432365091,0.));
#1183=DIRECTION('center_axis',(0.,0.,-1.));
#1184=DIRECTION('ref_axis',(-0.923879532511286,0.382683432365091,0.));
#1185=DIRECTION('',(0.,0.,-1.));
#1186=DIRECTION('center_axis',(0.,0.,1.));
#1187=DIRECTION('ref_axis',(-0.923879532511286,0.382683432365091,0.));
#1188=DIRECTION('',(0.,0.,1.));
#1189=DIRECTION('center_axis',(0.,0.,1.));
#1190=DIRECTION('ref_axis',(1.,0.,0.));
#1191=DIRECTION('',(-0.707106781186547,-0.707106781186548,0.));
#1192=DIRECTION('center_axis',(0.,0.,1.));
#1193=DIRECTION('ref_axis',(-0.38268343236509,0.923879532511287,0.));
#1194=DIRECTION('',(-1.,0.,0.));
#1195=DIRECTION('center_axis',(0.,0.,1.));
#1196=DIRECTION('ref_axis',(0.382683432365091,0.923879532511286,0.));
#1197=DIRECTION('',(-0.707106781186547,0.707106781186547,0.));
#1198=DIRECTION('center_axis',(0.,0.,1.));
#1199=DIRECTION('ref_axis',(0.923879532511287,0.382683432365089,0.));
#1200=DIRECTION('',(0.,1.,0.));
#1201=DIRECTION('center_axis',(0.,0.,1.));
#1202=DIRECTION('ref_axis',(0.923879532511287,-0.38268343236509,0.));
#1203=DIRECTION('',(0.707106781186548,0.707106781186547,0.));
#1204=DIRECTION('center_axis',(0.,0.,1.));
#1205=DIRECTION('ref_axis',(0.382683432365091,-0.923879532511286,0.));
#1206=DIRECTION('',(1.,0.,0.));
#1207=DIRECTION('center_axis',(0.,0.,1.));
#1208=DIRECTION('ref_axis',(-0.38268343236509,-0.923879532511287,0.));
#1209=DIRECTION('',(0.707106781186548,-0.707106781186548,0.));
#1210=DIRECTION('center_axis',(0.,0.,1.));
#1211=DIRECTION('ref_axis',(-0.923879532511287,-0.38268343236509,0.));
#1212=DIRECTION('',(5.54598499171127E-33,-1.,0.));
#1213=DIRECTION('center_axis',(0.,0.,-1.));
#1214=DIRECTION('ref_axis',(1.,0.,0.));
#1215=DIRECTION('center_axis',(0.,0.,-1.));
#1216=DIRECTION('ref_axis',(1.,0.,0.));
#1217=DIRECTION('center_axis',(0.,0.,-1.));
#1218=DIRECTION('ref_axis',(1.,0.,0.));
#1219=DIRECTION('center_axis',(0.,0.,-1.));
#1220=DIRECTION('ref_axis',(1.,0.,0.));
#1221=DIRECTION('center_axis',(0.,0.,1.));
#1222=DIRECTION('ref_axis',(1.,0.,0.));
#1223=DIRECTION('center_axis',(0.,0.,1.));
#1224=DIRECTION('ref_axis',(1.,0.,0.));
#1225=DIRECTION('center_axis',(0.,0.,1.));
#1226=DIRECTION('ref_axis',(1.,0.,0.));
#1227=DIRECTION('center_axis',(0.,0.,1.));
#1228=DIRECTION('ref_axis',(1.,0.,0.));
#1229=DIRECTION('center_axis',(-0.707106781186548,0.707106781186547,0.));
#1230=DIRECTION('ref_axis',(0.,0.,1.));
#1231=DIRECTION('',(0.707106781186547,0.707106781186548,0.));
#1232=DIRECTION('',(0.,0.,1.));
#1233=DIRECTION('center_axis',(0.,0.,-1.));
#1234=DIRECTION('ref_axis',(-0.38268343236509,0.923879532511287,0.));
#1235=DIRECTION('center_axis',(0.,0.,-1.));
#1236=DIRECTION('ref_axis',(-0.38268343236509,0.923879532511287,0.));
#1237=DIRECTION('',(0.,0.,-1.));
#1238=DIRECTION('center_axis',(0.,0.,1.));
#1239=DIRECTION('ref_axis',(0.382683432365091,0.923879532511286,0.));
#1240=DIRECTION('center_axis',(0.,0.,-1.));
#1241=DIRECTION('ref_axis',(0.382683432365091,0.923879532511286,0.));
#1242=DIRECTION('',(0.,0.,-1.));
#1243=DIRECTION('',(0.,0.,1.));
#1244=DIRECTION('center_axis',(0.707106781186548,0.707106781186548,0.));
#1245=DIRECTION('ref_axis',(0.,0.,-1.));
#1246=DIRECTION('',(0.707106781186547,-0.707106781186547,0.));
#1247=DIRECTION('',(0.,0.,1.));
#1248=DIRECTION('center_axis',(0.,0.,-1.));
#1249=DIRECTION('ref_axis',(0.923879532511287,0.382683432365089,0.));
#1250=DIRECTION('center_axis',(0.,0.,-1.));
#1251=DIRECTION('ref_axis',(0.923879532511287,0.382683432365089,0.));
#1252=DIRECTION('',(0.,0.,-1.));
#1253=DIRECTION('center_axis',(0.,0.,1.));
#1254=DIRECTION('ref_axis',(0.923879532511287,-0.38268343236509,0.));
#1255=DIRECTION('center_axis',(0.,0.,-1.));
#1256=DIRECTION('ref_axis',(0.923879532511287,-0.38268343236509,0.));
#1257=DIRECTION('',(0.,0.,-1.));
#1258=DIRECTION('',(0.,0.,1.));
#1259=DIRECTION('center_axis',(0.707106781186547,-0.707106781186548,0.));
#1260=DIRECTION('ref_axis',(0.,0.,-1.));
#1261=DIRECTION('',(-0.707106781186548,-0.707106781186547,0.));
#1262=DIRECTION('',(0.,0.,1.));
#1263=DIRECTION('center_axis',(0.,0.,-1.));
#1264=DIRECTION('ref_axis',(0.382683432365091,-0.923879532511286,0.));
#1265=DIRECTION('center_axis',(0.,0.,-1.));
#1266=DIRECTION('ref_axis',(0.382683432365091,-0.923879532511286,0.));
#1267=DIRECTION('',(0.,0.,-1.));
#1268=DIRECTION('center_axis',(0.,0.,1.));
#1269=DIRECTION('ref_axis',(-0.38268343236509,-0.923879532511287,0.));
#1270=DIRECTION('center_axis',(0.,0.,-1.));
#1271=DIRECTION('ref_axis',(-0.38268343236509,-0.923879532511287,0.));
#1272=DIRECTION('',(0.,0.,-1.));
#1273=DIRECTION('',(0.,0.,1.));
#1274=DIRECTION('center_axis',(-0.707106781186548,-0.707106781186548,0.));
#1275=DIRECTION('ref_axis',(0.,0.,1.));
#1276=DIRECTION('',(-0.707106781186548,0.707106781186548,0.));
#1277=DIRECTION('',(0.,0.,1.));
#1278=DIRECTION('center_axis',(0.,0.,-1.));
#1279=DIRECTION('ref_axis',(-0.923879532511287,-0.38268343236509,0.));
#1280=DIRECTION('center_axis',(0.,0.,-1.));
#1281=DIRECTION('ref_axis',(-0.923879532511287,-0.38268343236509,0.));
#1282=DIRECTION('',(0.,0.,-1.));
#1283=DIRECTION('center_axis',(0.,1.,0.));
#1284=DIRECTION('ref_axis',(-1.,0.,0.));
#1285=DIRECTION('',(-1.,0.,0.));
#1286=DIRECTION('center_axis',(-1.,-5.54598499171127E-33,0.));
#1287=DIRECTION('ref_axis',(5.54598499171127E-33,-1.,0.));
#1288=DIRECTION('',(5.54598499171127E-33,-1.,0.));
#1289=DIRECTION('center_axis',(1.,0.,0.));
#1290=DIRECTION('ref_axis',(0.,1.,0.));
#1291=DIRECTION('',(0.,1.,0.));
#1292=DIRECTION('center_axis',(0.,0.,-1.));
#1293=DIRECTION('ref_axis',(1.,0.,0.));
#1294=DIRECTION('center_axis',(0.,0.,-1.));
#1295=DIRECTION('ref_axis',(1.,0.,0.));
#1296=DIRECTION('',(0.,0.,-1.));
#1297=DIRECTION('center_axis',(0.,0.,-1.));
#1298=DIRECTION('ref_axis',(1.,0.,0.));
#1299=DIRECTION('center_axis',(0.,0.,-1.));
#1300=DIRECTION('ref_axis',(1.,0.,0.));
#1301=DIRECTION('',(0.,0.,-1.));
#1302=DIRECTION('center_axis',(0.,0.,-1.));
#1303=DIRECTION('ref_axis',(1.,0.,0.));
#1304=DIRECTION('center_axis',(0.,0.,-1.));
#1305=DIRECTION('ref_axis',(1.,0.,0.));
#1306=DIRECTION('',(0.,0.,-1.));
#1307=DIRECTION('center_axis',(0.,0.,-1.));
#1308=DIRECTION('ref_axis',(1.,0.,0.));
#1309=DIRECTION('center_axis',(0.,0.,-1.));
#1310=DIRECTION('ref_axis',(1.,0.,0.));
#1311=DIRECTION('',(0.,0.,-1.));
#1312=DIRECTION('center_axis',(0.,0.,-1.));
#1313=DIRECTION('ref_axis',(1.,0.,0.));
#1314=DIRECTION('center_axis',(0.,0.,-1.));
#1315=DIRECTION('ref_axis',(1.,0.,0.));
#1316=DIRECTION('center_axis',(0.,0.,-1.));
#1317=DIRECTION('ref_axis',(1.,0.,0.));
#1318=DIRECTION('center_axis',(0.,0.,-1.));
#1319=DIRECTION('ref_axis',(1.,0.,0.));
#1320=DIRECTION('center_axis',(0.,0.,-1.));
#1321=DIRECTION('ref_axis',(1.,0.,0.));
#1322=DIRECTION('',(0.,0.,-1.));
#1323=DIRECTION('center_axis',(0.,0.,-1.));
#1324=DIRECTION('ref_axis',(1.,0.,0.));
#1325=DIRECTION('',(0.,0.,-1.));
#1326=DIRECTION('center_axis',(0.,0.,-1.));
#1327=DIRECTION('ref_axis',(1.,0.,0.));
#1328=DIRECTION('center_axis',(0.,0.,-1.));
#1329=DIRECTION('ref_axis',(1.,0.,0.));
#1330=DIRECTION('center_axis',(0.,0.,-1.));
#1331=DIRECTION('ref_axis',(1.,0.,0.));
#1332=DIRECTION('center_axis',(0.,0.,-1.));
#1333=DIRECTION('ref_axis',(1.,0.,0.));
#1334=DIRECTION('center_axis',(0.,0.,-1.));
#1335=DIRECTION('ref_axis',(1.,0.,0.));
#1336=DIRECTION('',(0.,0.,-1.));
#1337=DIRECTION('center_axis',(0.,0.,-1.));
#1338=DIRECTION('ref_axis',(1.,0.,0.));
#1339=DIRECTION('',(0.,0.,-1.));
#1340=DIRECTION('center_axis',(0.,0.,-1.));
#1341=DIRECTION('ref_axis',(1.,0.,0.));
#1342=DIRECTION('center_axis',(0.,0.,-1.));
#1343=DIRECTION('ref_axis',(1.,0.,0.));
#1344=DIRECTION('center_axis',(0.,0.,-1.));
#1345=DIRECTION('ref_axis',(1.,0.,0.));
#1346=DIRECTION('center_axis',(0.,0.,-1.));
#1347=DIRECTION('ref_axis',(1.,0.,0.));
#1348=DIRECTION('center_axis',(0.,0.,-1.));
#1349=DIRECTION('ref_axis',(1.,0.,0.));
#1350=DIRECTION('',(0.,0.,-1.));
#1351=DIRECTION('center_axis',(0.,0.,-1.));
#1352=DIRECTION('ref_axis',(1.,0.,0.));
#1353=DIRECTION('',(0.,0.,-1.));
#1354=DIRECTION('center_axis',(0.,0.,-1.));
#1355=DIRECTION('ref_axis',(1.,0.,0.));
#1356=DIRECTION('center_axis',(0.,0.,-1.));
#1357=DIRECTION('ref_axis',(1.,0.,0.));
#1358=DIRECTION('center_axis',(0.,0.,-1.));
#1359=DIRECTION('ref_axis',(1.,0.,0.));
#1360=DIRECTION('center_axis',(0.,0.,-1.));
#1361=DIRECTION('ref_axis',(1.,0.,0.));
#1362=DIRECTION('center_axis',(0.,0.,-1.));
#1363=DIRECTION('ref_axis',(1.,0.,0.));
#1364=DIRECTION('',(0.,0.,-1.));
#1365=DIRECTION('center_axis',(0.,0.,-1.));
#1366=DIRECTION('ref_axis',(1.,0.,0.));
#1367=DIRECTION('',(0.,0.,-1.));
#1368=DIRECTION('center_axis',(0.,-1.,0.));
#1369=DIRECTION('ref_axis',(1.,0.,0.));
#1370=DIRECTION('',(1.,0.,0.));
#1371=DIRECTION('center_axis',(0.,0.,1.));
#1372=DIRECTION('ref_axis',(1.,0.,0.));
#1373=CARTESIAN_POINT('',(0.,0.,0.));
#1374=CARTESIAN_POINT('Origin',(1.317,0.385,0.375));
#1375=CARTESIAN_POINT('',(1.317,0.685,0.));
#1376=CARTESIAN_POINT('',(1.317,0.385,0.));
#1377=CARTESIAN_POINT('',(1.317,1.72375,0.));
#1378=CARTESIAN_POINT('',(1.317,0.685,0.375));
#1379=CARTESIAN_POINT('',(1.317,0.685,0.375));
#1380=CARTESIAN_POINT('',(1.317,0.385,0.375));
#1381=CARTESIAN_POINT('',(1.317,1.72375,0.375));
#1382=CARTESIAN_POINT('',(1.317,0.385,0.375));
#1383=CARTESIAN_POINT('Origin',(1.45,0.385,0.375));
#1384=CARTESIAN_POINT('',(1.583,0.385,0.));
#1385=CARTESIAN_POINT('Origin',(1.45,0.385,0.));
#1386=CARTESIAN_POINT('',(1.583,0.385,0.375));
#1387=CARTESIAN_POINT('Origin',(1.45,0.385,0.375));
#1388=CARTESIAN_POINT('',(1.583,0.385,0.375));
#1389=CARTESIAN_POINT('Origin',(1.583,0.685,0.375));
#1390=CARTESIAN_POINT('',(1.583,0.685,0.));
#1391=CARTESIAN_POINT('',(1.583,1.87375,0.));
#1392=CARTESIAN_POINT('',(1.583,0.685,0.375));
#1393=CARTESIAN_POINT('',(1.583,1.87375,0.375));
#1394=CARTESIAN_POINT('',(1.583,0.685,0.375));
#1395=CARTESIAN_POINT('Origin',(1.45,0.685,0.375));
#1396=CARTESIAN_POINT('Origin',(1.45,0.685,0.));
#1397=CARTESIAN_POINT('Origin',(1.45,0.685,0.375));
#1398=CARTESIAN_POINT('Origin',(4.317,0.385,0.375));
#1399=CARTESIAN_POINT('',(4.317,0.685,0.));
#1400=CARTESIAN_POINT('',(4.317,0.385,0.));
#1401=CARTESIAN_POINT('',(4.317,1.72375,0.));
#1402=CARTESIAN_POINT('',(4.317,0.685,0.375));
#1403=CARTESIAN_POINT('',(4.317,0.685,0.375));
#1404=CARTESIAN_POINT('',(4.317,0.385,0.375));
#1405=CARTESIAN_POINT('',(4.317,1.72375,0.375));
#1406=CARTESIAN_POINT('',(4.317,0.385,0.375));
#1407=CARTESIAN_POINT('Origin',(4.45,0.385,0.375));
#1408=CARTESIAN_POINT('',(4.583,0.385,0.));
#1409=CARTESIAN_POINT('Origin',(4.45,0.385,0.));
#1410=CARTESIAN_POINT('',(4.583,0.385,0.375));
#1411=CARTESIAN_POINT('Origin',(4.45,0.385,0.375));
#1412=CARTESIAN_POINT('',(4.583,0.385,0.375));
#1413=CARTESIAN_POINT('Origin',(4.583,0.685,0.375));
#1414=CARTESIAN_POINT('',(4.583,0.685,0.));
#1415=CARTESIAN_POINT('',(4.583,1.87375,0.));
#1416=CARTESIAN_POINT('',(4.583,0.685,0.375));
#1417=CARTESIAN_POINT('',(4.583,1.87375,0.375));
#1418=CARTESIAN_POINT('',(4.583,0.685,0.375));
#1419=CARTESIAN_POINT('Origin',(4.45,0.685,0.375));
#1420=CARTESIAN_POINT('Origin',(4.45,0.685,0.));
#1421=CARTESIAN_POINT('Origin',(4.45,0.685,0.375));
#1422=CARTESIAN_POINT('Origin',(0.317,5.385,0.375));
#1423=CARTESIAN_POINT('',(0.317,5.685,0.));
#1424=CARTESIAN_POINT('',(0.317,5.385,0.));
#1425=CARTESIAN_POINT('',(0.317,4.22375,0.));
#1426=CARTESIAN_POINT('',(0.317,5.685,0.375));
#1427=CARTESIAN_POINT('',(0.317,5.685,0.375));
#1428=CARTESIAN_POINT('',(0.317,5.385,0.375));
#1429=CARTESIAN_POINT('',(0.317,4.22375,0.375));
#1430=CARTESIAN_POINT('',(0.317,5.385,0.375));
#1431=CARTESIAN_POINT('Origin',(0.45,5.385,0.375));
#1432=CARTESIAN_POINT('',(0.583000000000001,5.385,0.));
#1433=CARTESIAN_POINT('Origin',(0.45,5.385,0.));
#1434=CARTESIAN_POINT('',(0.583000000000001,5.385,0.375));
#1435=CARTESIAN_POINT('Origin',(0.45,5.385,0.375));
#1436=CARTESIAN_POINT('',(0.583000000000001,5.385,0.375));
#1437=CARTESIAN_POINT('Origin',(0.583000000000001,5.685,0.375));
#1438=CARTESIAN_POINT('',(0.583000000000001,5.685,0.));
#1439=CARTESIAN_POINT('',(0.583000000000001,4.37375,0.));
#1440=CARTESIAN_POINT('',(0.583000000000001,5.685,0.375));
#1441=CARTESIAN_POINT('',(0.583000000000001,4.37375,0.375));
#1442=CARTESIAN_POINT('',(0.583000000000001,5.685,0.375));
#1443=CARTESIAN_POINT('Origin',(0.45,5.685,0.375));
#1444=CARTESIAN_POINT('Origin',(0.45,5.685,0.));
#1445=CARTESIAN_POINT('Origin',(0.45,5.685,0.375));
#1446=CARTESIAN_POINT('Origin',(5.317,5.385,0.375));
#1447=CARTESIAN_POINT('',(5.317,5.685,0.));
#1448=CARTESIAN_POINT('',(5.317,5.385,0.));
#1449=CARTESIAN_POINT('',(5.317,4.22375,0.));
#1450=CARTESIAN_POINT('',(5.317,5.685,0.375));
#1451=CARTESIAN_POINT('',(5.317,5.685,0.375));
#1452=CARTESIAN_POINT('',(5.317,5.385,0.375));
#1453=CARTESIAN_POINT('',(5.317,4.22375,0.375));
#1454=CARTESIAN_POINT('',(5.317,5.385,0.375));
#1455=CARTESIAN_POINT('Origin',(5.45,5.385,0.375));
#1456=CARTESIAN_POINT('',(5.583,5.385,0.));
#1457=CARTESIAN_POINT('Origin',(5.45,5.385,0.));
#1458=CARTESIAN_POINT('',(5.583,5.385,0.375));
#1459=CARTESIAN_POINT('Origin',(5.45,5.385,0.375));
#1460=CARTESIAN_POINT('',(5.583,5.385,0.375));
#1461=CARTESIAN_POINT('Origin',(5.583,5.685,0.375));
#1462=CARTESIAN_POINT('',(5.583,5.685,0.));
#1463=CARTESIAN_POINT('',(5.583,4.37375,0.));
#1464=CARTESIAN_POINT('',(5.583,5.685,0.375));
#1465=CARTESIAN_POINT('',(5.583,4.37375,0.375));
#1466=CARTESIAN_POINT('',(5.583,5.685,0.375));
#1467=CARTESIAN_POINT('Origin',(5.45,5.685,0.375));
#1468=CARTESIAN_POINT('Origin',(5.45,5.685,0.));
#1469=CARTESIAN_POINT('Origin',(5.45,5.685,0.375));
#1470=CARTESIAN_POINT('Origin',(0.25,5.64744660940673,0.));
#1471=CARTESIAN_POINT('',(-3.13206541372604E-32,5.64744660940673,0.375));
#1472=CARTESIAN_POINT('',(0.0732233047033632,5.82422330470336,0.375));
#1473=CARTESIAN_POINT('Origin',(0.25,5.64744660940673,0.375));
#1474=CARTESIAN_POINT('',(0.0732233047033632,5.82422330470336,0.));
#1475=CARTESIAN_POINT('',(0.073223304703363,5.82422330470336,0.));
#1476=CARTESIAN_POINT('',(-3.13206541372604E-32,5.64744660940673,0.));
#1477=CARTESIAN_POINT('Origin',(0.25,5.64744660940673,0.));
#1478=CARTESIAN_POINT('',(0.,5.64744660940673,0.));
#1479=CARTESIAN_POINT('Origin',(2.95,3.0625,0.));
#1480=CARTESIAN_POINT('',(0.300776695296637,6.05177669529664,0.));
#1481=CARTESIAN_POINT('',(0.158874999999999,5.909875,0.));
#1482=CARTESIAN_POINT('',(0.477553390593275,6.125,0.));
#1483=CARTESIAN_POINT('Origin',(0.477553390593275,5.875,0.));
#1484=CARTESIAN_POINT('',(5.42244660940672,6.125,0.));
#1485=CARTESIAN_POINT('',(5.9,6.125,0.));
#1486=CARTESIAN_POINT('',(5.59922330470336,6.05177669529664,0.));
#1487=CARTESIAN_POINT('Origin',(5.42244660940672,5.875,0.));
#1488=CARTESIAN_POINT('',(5.82677669529664,5.82422330470336,0.));
#1489=CARTESIAN_POINT('',(5.741125,5.909875,0.));
#1490=CARTESIAN_POINT('',(5.9,5.64744660940673,0.));
#1491=CARTESIAN_POINT('Origin',(5.65,5.64744660940673,0.));
#1492=CARTESIAN_POINT('',(5.9,1.35355339059327,0.));
#1493=CARTESIAN_POINT('',(5.9,0.,0.));
#1494=CARTESIAN_POINT('',(5.82677669529664,1.17677669529664,0.));
#1495=CARTESIAN_POINT('Origin',(5.65,1.35355339059327,0.));
#1496=CARTESIAN_POINT('',(4.72322330470336,0.0732233047033632,0.));
#1497=CARTESIAN_POINT('',(5.303125,0.653125,0.));
#1498=CARTESIAN_POINT('',(4.54644660940673,0.,0.));
#1499=CARTESIAN_POINT('Origin',(4.54644660940673,0.25,0.));
#1500=CARTESIAN_POINT('',(1.35355339059327,0.,0.));
#1501=CARTESIAN_POINT('',(0.,0.,0.));
#1502=CARTESIAN_POINT('',(1.17677669529664,0.0732233047033636,0.));
#1503=CARTESIAN_POINT('Origin',(1.35355339059327,0.25,0.));
#1504=CARTESIAN_POINT('',(0.0732233047033635,1.17677669529664,0.));
#1505=CARTESIAN_POINT('',(0.596875,0.653125,0.));
#1506=CARTESIAN_POINT('',(-7.50678678971021E-33,1.35355339059327,0.));
#1507=CARTESIAN_POINT('Origin',(0.25,1.35355339059327,0.));
#1508=CARTESIAN_POINT('',(-3.39691580742316E-32,6.125,0.));
#1509=CARTESIAN_POINT('',(4.34925,4.77297077300919,0.));
#1510=CARTESIAN_POINT('Origin',(4.45,4.77297077300919,0.));
#1511=CARTESIAN_POINT('',(1.34925,4.77297077300919,0.));
#1512=CARTESIAN_POINT('Origin',(1.45,4.77297077300919,0.));
#1513=CARTESIAN_POINT('',(1.34925,2.77297077300919,0.));
#1514=CARTESIAN_POINT('Origin',(1.45,2.77297077300919,0.));
#1515=CARTESIAN_POINT('',(4.34925,2.7729707730092,0.));
#1516=CARTESIAN_POINT('Origin',(4.45,2.7729707730092,0.));
#1517=CARTESIAN_POINT('',(2.8395,1.,0.));
#1518=CARTESIAN_POINT('Origin',(2.95,1.,0.));
#1519=CARTESIAN_POINT('',(2.8395,5.77297077300919,0.));
#1520=CARTESIAN_POINT('Origin',(2.95,5.77297077300919,0.));
#1521=CARTESIAN_POINT('',(0.453014613495392,3.38648538650461,0.));
#1522=CARTESIAN_POINT('Origin',(0.563514613495392,3.38648538650461,0.));
#1523=CARTESIAN_POINT('',(5.2259853865046,3.3864853865046,0.));
#1524=CARTESIAN_POINT('Origin',(5.3364853865046,3.3864853865046,0.));
#1525=CARTESIAN_POINT('Origin',(0.187,5.938,0.));
#1526=CARTESIAN_POINT('',(0.300776695296637,6.05177669529664,0.375));
#1527=CARTESIAN_POINT('',(0.158874999999999,5.909875,0.375));
#1528=CARTESIAN_POINT('',(0.300776695296637,6.05177669529664,0.));
#1529=CARTESIAN_POINT('Origin',(0.477553390593275,5.875,0.));
#1530=CARTESIAN_POINT('',(0.477553390593275,6.125,0.375));
#1531=CARTESIAN_POINT('Origin',(0.477553390593275,5.875,0.375));
#1532=CARTESIAN_POINT('',(0.477553390593275,6.125,0.));
#1533=CARTESIAN_POINT('Origin',(5.42244660940672,5.875,0.));
#1534=CARTESIAN_POINT('',(5.42244660940672,6.125,0.375));
#1535=CARTESIAN_POINT('',(5.59922330470336,6.05177669529664,0.375));
#1536=CARTESIAN_POINT('Origin',(5.42244660940672,5.875,0.375));
#1537=CARTESIAN_POINT('',(5.59922330470336,6.05177669529664,0.));
#1538=CARTESIAN_POINT('',(5.42244660940672,6.125,0.));
#1539=CARTESIAN_POINT('Origin',(5.713,5.938,0.));
#1540=CARTESIAN_POINT('',(5.82677669529664,5.82422330470336,0.375));
#1541=CARTESIAN_POINT('',(5.741125,5.909875,0.375));
#1542=CARTESIAN_POINT('',(5.82677669529664,5.82422330470336,0.));
#1543=CARTESIAN_POINT('Origin',(5.65,5.64744660940673,0.));
#1544=CARTESIAN_POINT('',(5.9,5.64744660940673,0.375));
#1545=CARTESIAN_POINT('Origin',(5.65,5.64744660940673,0.375));
#1546=CARTESIAN_POINT('',(5.9,5.64744660940673,0.));
#1547=CARTESIAN_POINT('Origin',(5.65,1.35355339059327,0.));
#1548=CARTESIAN_POINT('',(5.9,1.35355339059327,0.375));
#1549=CARTESIAN_POINT('',(5.82677669529664,1.17677669529664,0.375));
#1550=CARTESIAN_POINT('Origin',(5.65,1.35355339059327,0.375));
#1551=CARTESIAN_POINT('',(5.82677669529664,1.17677669529664,0.));
#1552=CARTESIAN_POINT('',(5.9,1.35355339059327,0.));
#1553=CARTESIAN_POINT('Origin',(5.275,0.625,0.));
#1554=CARTESIAN_POINT('',(4.72322330470336,0.0732233047033632,0.375));
#1555=CARTESIAN_POINT('',(5.303125,0.653125,0.375));
#1556=CARTESIAN_POINT('',(4.72322330470336,0.0732233047033632,0.));
#1557=CARTESIAN_POINT('Origin',(4.54644660940673,0.25,0.));
#1558=CARTESIAN_POINT('',(4.54644660940673,0.,0.375));
#1559=CARTESIAN_POINT('Origin',(4.54644660940673,0.25,0.375));
#1560=CARTESIAN_POINT('',(4.54644660940673,0.,0.));
#1561=CARTESIAN_POINT('Origin',(1.35355339059327,0.25,0.));
#1562=CARTESIAN_POINT('',(1.35355339059327,0.,0.375));
#1563=CARTESIAN_POINT('',(1.17677669529664,0.0732233047033636,0.375));
#1564=CARTESIAN_POINT('Origin',(1.35355339059327,0.25,0.375));
#1565=CARTESIAN_POINT('',(1.17677669529664,0.0732233047033632,0.));
#1566=CARTESIAN_POINT('',(1.35355339059327,0.,0.));
#1567=CARTESIAN_POINT('Origin',(0.625,0.625,0.));
#1568=CARTESIAN_POINT('',(0.0732233047033635,1.17677669529664,0.375));
#1569=CARTESIAN_POINT('',(0.596875,0.653125,0.375));
#1570=CARTESIAN_POINT('',(0.073223304703363,1.17677669529664,0.));
#1571=CARTESIAN_POINT('Origin',(0.25,1.35355339059327,0.));
#1572=CARTESIAN_POINT('',(-7.50678678971021E-33,1.35355339059327,0.375));
#1573=CARTESIAN_POINT('Origin',(0.25,1.35355339059327,0.375));
#1574=CARTESIAN_POINT('',(0.,1.35355339059327,0.));
#1575=CARTESIAN_POINT('Origin',(5.9,6.125,0.));
#1576=CARTESIAN_POINT('',(5.9,6.125,0.375));
#1577=CARTESIAN_POINT('Origin',(-3.39691580742316E-32,6.125,0.));
#1578=CARTESIAN_POINT('',(-3.39691580742316E-32,6.125,0.375));
#1579=CARTESIAN_POINT('Origin',(5.9,0.,0.));
#1580=CARTESIAN_POINT('',(5.9,0.,0.375));
#1581=CARTESIAN_POINT('Origin',(4.45,4.77297077300919,0.16875));
#1582=CARTESIAN_POINT('',(4.34925,4.77297077300919,0.375));
#1583=CARTESIAN_POINT('Origin',(4.45,4.77297077300919,0.375));
#1584=CARTESIAN_POINT('',(4.34925,4.77297077300919,0.16875));
#1585=CARTESIAN_POINT('Origin',(1.45,4.77297077300919,0.16875));
#1586=CARTESIAN_POINT('',(1.34925,4.77297077300919,0.375));
#1587=CARTESIAN_POINT('Origin',(1.45,4.77297077300919,0.375));
#1588=CARTESIAN_POINT('',(1.34925,4.77297077300919,0.16875));
#1589=CARTESIAN_POINT('Origin',(1.45,2.77297077300919,0.16875));
#1590=CARTESIAN_POINT('',(1.34925,2.77297077300919,0.375));
#1591=CARTESIAN_POINT('Origin',(1.45,2.77297077300919,0.375));
#1592=CARTESIAN_POINT('',(1.34925,2.77297077300919,0.16875));
#1593=CARTESIAN_POINT('Origin',(4.45,2.7729707730092,0.16875));
#1594=CARTESIAN_POINT('',(4.34925,2.7729707730092,0.375));
#1595=CARTESIAN_POINT('Origin',(4.45,2.7729707730092,0.375));
#1596=CARTESIAN_POINT('',(4.34925,2.7729707730092,0.16875));
#1597=CARTESIAN_POINT('Origin',(2.95,1.,0.185));
#1598=CARTESIAN_POINT('',(2.7625,1.,0.185));
#1599=CARTESIAN_POINT('Origin',(2.95,1.,0.185));
#1600=CARTESIAN_POINT('',(2.8395,1.,0.185));
#1601=CARTESIAN_POINT('Origin',(2.95,1.,0.185));
#1602=CARTESIAN_POINT('Origin',(2.95,1.,0.28));
#1603=CARTESIAN_POINT('',(2.7625,1.,0.375));
#1604=CARTESIAN_POINT('Origin',(2.95,1.,0.375));
#1605=CARTESIAN_POINT('',(2.7625,1.,0.28));
#1606=CARTESIAN_POINT('Origin',(2.95,1.,0.16875));
#1607=CARTESIAN_POINT('',(2.8395,1.,0.16875));
#1608=CARTESIAN_POINT('Origin',(2.95,5.77297077300919,0.185));
#1609=CARTESIAN_POINT('',(2.7625,5.77297077300919,0.185));
#1610=CARTESIAN_POINT('Origin',(2.95,5.77297077300919,0.185));
#1611=CARTESIAN_POINT('',(2.8395,5.77297077300919,0.185));
#1612=CARTESIAN_POINT('Origin',(2.95,5.77297077300919,0.185));
#1613=CARTESIAN_POINT('Origin',(2.95,5.77297077300919,0.28));
#1614=CARTESIAN_POINT('',(2.7625,5.77297077300919,0.375));
#1615=CARTESIAN_POINT('Origin',(2.95,5.77297077300919,0.375));
#1616=CARTESIAN_POINT('',(2.7625,5.77297077300919,0.28));
#1617=CARTESIAN_POINT('Origin',(2.95,5.77297077300919,0.16875));
#1618=CARTESIAN_POINT('',(2.8395,5.77297077300919,0.16875));
#1619=CARTESIAN_POINT('Origin',(0.563514613495392,3.38648538650461,0.185));
#1620=CARTESIAN_POINT('',(0.376014613495392,3.38648538650461,0.185));
#1621=CARTESIAN_POINT('Origin',(0.563514613495392,3.38648538650461,0.185));
#1622=CARTESIAN_POINT('',(0.453014613495392,3.38648538650461,0.185));
#1623=CARTESIAN_POINT('Origin',(0.563514613495392,3.38648538650461,0.185));
#1624=CARTESIAN_POINT('Origin',(0.563514613495392,3.38648538650461,0.28));
#1625=CARTESIAN_POINT('',(0.376014613495392,3.38648538650461,0.375));
#1626=CARTESIAN_POINT('Origin',(0.563514613495392,3.38648538650461,0.375));
#1627=CARTESIAN_POINT('',(0.376014613495392,3.38648538650461,0.28));
#1628=CARTESIAN_POINT('Origin',(0.563514613495392,3.38648538650461,0.16875));
#1629=CARTESIAN_POINT('',(0.453014613495392,3.38648538650461,0.16875));
#1630=CARTESIAN_POINT('Origin',(5.3364853865046,3.3864853865046,0.185));
#1631=CARTESIAN_POINT('',(5.1489853865046,3.3864853865046,0.185));
#1632=CARTESIAN_POINT('Origin',(5.3364853865046,3.3864853865046,0.185));
#1633=CARTESIAN_POINT('',(5.2259853865046,3.3864853865046,0.185));
#1634=CARTESIAN_POINT('Origin',(5.3364853865046,3.3864853865046,0.185));
#1635=CARTESIAN_POINT('Origin',(5.3364853865046,3.3864853865046,0.28));
#1636=CARTESIAN_POINT('',(5.1489853865046,3.3864853865046,0.375));
#1637=CARTESIAN_POINT('Origin',(5.3364853865046,3.3864853865046,0.375));
#1638=CARTESIAN_POINT('',(5.1489853865046,3.3864853865046,0.28));
#1639=CARTESIAN_POINT('Origin',(5.3364853865046,3.3864853865046,0.16875));
#1640=CARTESIAN_POINT('',(5.2259853865046,3.3864853865046,0.16875));
#1641=CARTESIAN_POINT('Origin',(0.,0.,0.));
#1642=CARTESIAN_POINT('',(0.,0.,0.375));
#1643=CARTESIAN_POINT('Origin',(2.95,3.0625,0.375));
#1644=UNCERTAINTY_MEASURE_WITH_UNIT(LENGTH_MEASURE(0.000393700787401575),
#1649,'DISTANCE_ACCURACY_VALUE',
'Maximum model space distance between geometric entities at asserted c
onnectivities');
#1645=UNCERTAINTY_MEASURE_WITH_UNIT(LENGTH_MEASURE(0.000393700787401575),
#1649,'DISTANCE_ACCURACY_VALUE',
'Maximum model space distance between geometric entities at asserted c
onnectivities');
#1646=(
GEOMETRIC_REPRESENTATION_CONTEXT(3)
GLOBAL_UNCERTAINTY_ASSIGNED_CONTEXT((#1644))
GLOBAL_UNIT_ASSIGNED_CONTEXT((#1649,#1653,#1654))
REPRESENTATION_CONTEXT('','3D')
);
#1647=(
GEOMETRIC_REPRESENTATION_CONTEXT(3)
GLOBAL_UNCERTAINTY_ASSIGNED_CONTEXT((#1645))
GLOBAL_UNIT_ASSIGNED_CONTEXT((#1649,#1653,#1654))
REPRESENTATION_CONTEXT('','3D')
);
#1648=DIMENSIONAL_EXPONENTS(1.,0.,0.,0.,0.,0.,0.);
#1649=(
CONVERSION_BASED_UNIT('inch',#1652)
LENGTH_UNIT()
NAMED_UNIT(#1648)
);
#1650=(
LENGTH_UNIT()
NAMED_UNIT(*)
SI_UNIT(.MILLI.,.METRE.)
);
#1651=(
LENGTH_UNIT()
NAMED_UNIT(*)
SI_UNIT($,.METRE.)
);
#1652=LENGTH_MEASURE_WITH_UNIT(LENGTH_MEASURE(25.4),#1650);
#1653=(
NAMED_UNIT(*)
PLANE_ANGLE_UNIT()
SI_UNIT($,.RADIAN.)
);
#1654=(
NAMED_UNIT(*)
SI_UNIT($,.STERADIAN.)
SOLID_ANGLE_UNIT()
);
#1655=SHAPE_DEFINITION_REPRESENTATION(#1656,#1657);
#1656=PRODUCT_DEFINITION_SHAPE('',$,#1659);
#1657=SHAPE_REPRESENTATION('',(#976),#1646);
#1658=PRODUCT_DEFINITION_CONTEXT('part definition',#1663,'design');
#1659=PRODUCT_DEFINITION('XY_Mount','XY_Mount v39',#1660,#1658);
#1660=PRODUCT_DEFINITION_FORMATION('',$,#1665);
#1661=PRODUCT_RELATED_PRODUCT_CATEGORY('XY_Mount v39','XY_Mount v39',(#1665));
#1662=APPLICATION_PROTOCOL_DEFINITION('international standard',
'automotive_design',2009,#1663);
#1663=APPLICATION_CONTEXT(
'Core Data for Automotive Mechanical Design Process');
#1664=PRODUCT_CONTEXT('part definition',#1663,'mechanical');
#1665=PRODUCT('XY_Mount','XY_Mount v39',$,(#1664));
#1666=PRESENTATION_STYLE_ASSIGNMENT((#1668));
#1667=PRESENTATION_STYLE_ASSIGNMENT((#1669));
#1668=SURFACE_STYLE_USAGE(.BOTH.,#1670);
#1669=SURFACE_STYLE_USAGE(.BOTH.,#1671);
#1670=SURFACE_SIDE_STYLE('',(#1672));
#1671=SURFACE_SIDE_STYLE('',(#1673));
#1672=SURFACE_STYLE_FILL_AREA(#1674);
#1673=SURFACE_STYLE_FILL_AREA(#1675);
#1674=FILL_AREA_STYLE('Steel - Satin',(#1676));
#1675=FILL_AREA_STYLE('Aluminum - Satin',(#1677));
#1676=FILL_AREA_STYLE_COLOUR('Steel - Satin',#1678);
#1677=FILL_AREA_STYLE_COLOUR('Aluminum - Satin',#1679);
#1678=COLOUR_RGB('Steel - Satin',0.627450980392157,0.627450980392157,0.627450980392157);
#1679=COLOUR_RGB('Aluminum - Satin',0.96078431372549,0.96078431372549,0.964705882352941);
ENDSEC;
END-ISO-10303-21;
